<mxfile host="app.diagrams.net" modified="2021-09-16T07:39:47.761Z" agent="5.0 (Windows NT 10.0; WOW64) AppleWebKit/537.36 (KHTML, like Gecko) Chrome/86.0.4240.198 Safari/537.36" etag="ttXBGGwGdRl-Lee59Aqx" version="15.1.4" type="github" pages="2">
  <diagram id="uNhbeHN_YKukI16IZ3Rf" name="Page-1">
    <mxGraphModel dx="1422" dy="761" grid="1" gridSize="10" guides="1" tooltips="1" connect="1" arrows="1" fold="1" page="1" pageScale="1" pageWidth="827" pageHeight="1169" math="0" shadow="0">
      <root>
        <mxCell id="0" />
        <mxCell id="1" parent="0" />
        <mxCell id="WWeYNiVOzWscjV635nap-56" style="edgeStyle=orthogonalEdgeStyle;rounded=0;orthogonalLoop=1;jettySize=auto;html=1;exitX=0.5;exitY=1;exitDx=0;exitDy=0;entryX=0.5;entryY=0;entryDx=0;entryDy=0;sourcePerimeterSpacing=0;targetPerimeterSpacing=0;strokeColor=#000000;strokeWidth=1;" parent="1" source="eN-WV_VvRqyreEzH0uXg-95" target="WWeYNiVOzWscjV635nap-45" edge="1">
          <mxGeometry relative="1" as="geometry" />
        </mxCell>
        <mxCell id="WWeYNiVOzWscjV635nap-57" style="edgeStyle=orthogonalEdgeStyle;rounded=0;orthogonalLoop=1;jettySize=auto;html=1;exitX=0.5;exitY=1;exitDx=0;exitDy=0;entryX=0.5;entryY=0;entryDx=0;entryDy=0;sourcePerimeterSpacing=0;targetPerimeterSpacing=0;strokeColor=#000000;strokeWidth=1;" parent="1" source="eN-WV_VvRqyreEzH0uXg-95" target="WWeYNiVOzWscjV635nap-46" edge="1">
          <mxGeometry relative="1" as="geometry" />
        </mxCell>
        <mxCell id="WWeYNiVOzWscjV635nap-58" style="edgeStyle=orthogonalEdgeStyle;rounded=0;orthogonalLoop=1;jettySize=auto;html=1;entryX=0.5;entryY=0;entryDx=0;entryDy=0;sourcePerimeterSpacing=0;targetPerimeterSpacing=0;strokeColor=#000000;strokeWidth=1;" parent="1" source="eN-WV_VvRqyreEzH0uXg-95" target="WWeYNiVOzWscjV635nap-48" edge="1">
          <mxGeometry relative="1" as="geometry" />
        </mxCell>
        <mxCell id="WWeYNiVOzWscjV635nap-59" style="edgeStyle=orthogonalEdgeStyle;rounded=0;orthogonalLoop=1;jettySize=auto;html=1;exitX=0.5;exitY=1;exitDx=0;exitDy=0;entryX=0.5;entryY=0;entryDx=0;entryDy=0;sourcePerimeterSpacing=0;targetPerimeterSpacing=0;strokeColor=#000000;strokeWidth=1;" parent="1" source="eN-WV_VvRqyreEzH0uXg-95" target="WWeYNiVOzWscjV635nap-50" edge="1">
          <mxGeometry relative="1" as="geometry" />
        </mxCell>
        <mxCell id="WWeYNiVOzWscjV635nap-60" style="edgeStyle=orthogonalEdgeStyle;rounded=0;orthogonalLoop=1;jettySize=auto;html=1;exitX=0.5;exitY=1;exitDx=0;exitDy=0;entryX=0.5;entryY=0;entryDx=0;entryDy=0;sourcePerimeterSpacing=0;targetPerimeterSpacing=0;strokeColor=#000000;strokeWidth=1;" parent="1" source="eN-WV_VvRqyreEzH0uXg-95" target="WWeYNiVOzWscjV635nap-52" edge="1">
          <mxGeometry relative="1" as="geometry" />
        </mxCell>
        <mxCell id="WWeYNiVOzWscjV635nap-61" style="edgeStyle=orthogonalEdgeStyle;rounded=0;orthogonalLoop=1;jettySize=auto;html=1;exitX=0.5;exitY=1;exitDx=0;exitDy=0;entryX=0.5;entryY=0;entryDx=0;entryDy=0;sourcePerimeterSpacing=0;targetPerimeterSpacing=0;strokeColor=#000000;strokeWidth=1;" parent="1" source="eN-WV_VvRqyreEzH0uXg-95" target="WWeYNiVOzWscjV635nap-53" edge="1">
          <mxGeometry relative="1" as="geometry" />
        </mxCell>
        <mxCell id="WWeYNiVOzWscjV635nap-62" style="edgeStyle=orthogonalEdgeStyle;rounded=0;orthogonalLoop=1;jettySize=auto;html=1;exitX=0.5;exitY=1;exitDx=0;exitDy=0;entryX=0.5;entryY=0;entryDx=0;entryDy=0;sourcePerimeterSpacing=0;targetPerimeterSpacing=0;strokeColor=#000000;strokeWidth=1;" parent="1" source="eN-WV_VvRqyreEzH0uXg-95" target="WWeYNiVOzWscjV635nap-54" edge="1">
          <mxGeometry relative="1" as="geometry" />
        </mxCell>
        <mxCell id="WWeYNiVOzWscjV635nap-63" style="edgeStyle=orthogonalEdgeStyle;rounded=0;orthogonalLoop=1;jettySize=auto;html=1;exitX=0.5;exitY=1;exitDx=0;exitDy=0;entryX=0.5;entryY=0;entryDx=0;entryDy=0;sourcePerimeterSpacing=0;targetPerimeterSpacing=0;strokeColor=#000000;strokeWidth=1;" parent="1" source="eN-WV_VvRqyreEzH0uXg-95" target="WWeYNiVOzWscjV635nap-55" edge="1">
          <mxGeometry relative="1" as="geometry" />
        </mxCell>
        <mxCell id="eN-WV_VvRqyreEzH0uXg-95" value="Classification results" style="rounded=1;whiteSpace=wrap;html=1;fillColor=#f8cecc;strokeColor=#b85450;" parent="1" vertex="1">
          <mxGeometry x="185.42" y="618" width="290" height="16" as="geometry" />
        </mxCell>
        <mxCell id="WWeYNiVOzWscjV635nap-8" value="" style="rounded=1;whiteSpace=wrap;html=1;strokeColor=#8C8C8C;" parent="1" vertex="1">
          <mxGeometry x="185.62" y="280" width="290" height="180" as="geometry" />
        </mxCell>
        <mxCell id="WWeYNiVOzWscjV635nap-9" value="" style="edgeStyle=orthogonalEdgeStyle;rounded=0;orthogonalLoop=1;jettySize=auto;html=1;shape=flexArrow;endSize=5;targetPerimeterSpacing=3;sourcePerimeterSpacing=3;strokeWidth=1;startSize=5;strokeColor=#8C8C8C;" parent="1" source="WWeYNiVOzWscjV635nap-3" target="WWeYNiVOzWscjV635nap-8" edge="1">
          <mxGeometry relative="1" as="geometry" />
        </mxCell>
        <mxCell id="WWeYNiVOzWscjV635nap-11" style="edgeStyle=orthogonalEdgeStyle;rounded=0;orthogonalLoop=1;jettySize=auto;html=1;exitX=0.5;exitY=1;exitDx=0;exitDy=0;" parent="1" source="WWeYNiVOzWscjV635nap-12" target="WWeYNiVOzWscjV635nap-14" edge="1">
          <mxGeometry relative="1" as="geometry" />
        </mxCell>
        <mxCell id="WWeYNiVOzWscjV635nap-12" value="encode" style="rounded=1;whiteSpace=wrap;html=1;fillColor=#dae8fc;strokeColor=#6c8ebf;" parent="1" vertex="1">
          <mxGeometry x="382.63" y="295" width="80" height="30" as="geometry" />
        </mxCell>
        <mxCell id="WWeYNiVOzWscjV635nap-13" value="segmentation" style="rounded=1;whiteSpace=wrap;html=1;fillColor=#dae8fc;strokeColor=#6c8ebf;" parent="1" vertex="1">
          <mxGeometry x="382.63" y="414" width="80" height="30" as="geometry" />
        </mxCell>
        <mxCell id="WWeYNiVOzWscjV635nap-22" value="" style="edgeStyle=orthogonalEdgeStyle;rounded=0;orthogonalLoop=1;jettySize=auto;html=1;sourcePerimeterSpacing=0;targetPerimeterSpacing=0;strokeWidth=1;" parent="1" source="WWeYNiVOzWscjV635nap-14" target="WWeYNiVOzWscjV635nap-13" edge="1">
          <mxGeometry relative="1" as="geometry" />
        </mxCell>
        <mxCell id="WWeYNiVOzWscjV635nap-14" value="denoise" style="rounded=1;whiteSpace=wrap;html=1;fillColor=#dae8fc;strokeColor=#6c8ebf;" parent="1" vertex="1">
          <mxGeometry x="382.63" y="353" width="80" height="30" as="geometry" />
        </mxCell>
        <mxCell id="WWeYNiVOzWscjV635nap-39" value="" style="edgeStyle=orthogonalEdgeStyle;rounded=0;orthogonalLoop=1;jettySize=auto;html=1;sourcePerimeterSpacing=3;targetPerimeterSpacing=3;strokeWidth=1;shape=flexArrow;strokeColor=#8C8C8C;endSize=5;startSize=5;" parent="1" target="WWeYNiVOzWscjV635nap-38" edge="1">
          <mxGeometry relative="1" as="geometry">
            <mxPoint x="330.29999999999995" y="464" as="sourcePoint" />
          </mxGeometry>
        </mxCell>
        <mxCell id="WWeYNiVOzWscjV635nap-29" value="" style="shape=image;verticalLabelPosition=bottom;labelBackgroundColor=#ffffff;verticalAlign=top;aspect=fixed;imageAspect=0;image=data:image/png,iVBORw0KGgoAAAANSUhEUgAAAfQAAACnCAYAAADnu65nAAAgAElEQVR4Ae2dCZRUxdXH78x0T88+zMIyM+yM7KjsIAiMIgguEREVNdGoUTHuIcbw+WGiuIB+RkVNYtC44BoOYsSFqCgIiIAoiwoosgwwC8y+r/2df5E39kwv08vrnn7d/5rzznS/rlev6veq3q1761ZVhNVqtQoDCZAACQQ5Abyq5syZI/v37xd8LioqkpkzZ8qjjz4qSUlJQZ57Zo8E/E8gggLd/5B5BxIgAX0I5OXlyeHDh6Wurk4J8QEDBkhsbKw+iTMVEjA4AQp0gz9AZp8ESIAESIAEQCCSGEiABEiABEiABIxPwNRRRXj55Zdl06ZNYjabOyoLvC8JkAAJhD2B5ubmsGdgJAANDQ2Sk5Mjc+fOtct2h5ncL7nkEuncubOMHj1ampqa7DLGEyRAAiRAAv4nEBER4f+b8A66EDCZTLJ+/XolM1966SW7NDtMQ9c8Vs866yy7TPEECZAACZAACZCAPYGUlBRZsWKF/Q8dPYYOT1UGEiABEiABEiAB9wjU19c7jUinOKdo+AMJkAAJkAAJGIcABbpxnhVzSgIkQAIkQAJOCVCgO0XDH0jANwINTQ3y7r53ZUf+Dt8S4tUkQAIk4AYBCnQ3IDEKCXhDoKqhSu75+B55Z+873lzOa0iABEjAIwIU6B7hYmQScJ/AsYpjUl5XLsU1xZJfme/+hYxJAiRAAl4QoED3AhovIQF3CHx68FO5aeRNEmeOk61Ht7pzCeOQAAmQgNcEKNC9RscLScA1gU8PfCpzh8yV7NRs2Vm4U5qauYCSa2L8lQRIwBcCFOi+0OO1JOCEQH5FvjK1903rKyMzRkpBZYEUVhc6ic3TJEACJOA7AQp03xkyBRKwI7Ahd4OMzRqrzndL6CY1DTXqsIvIEyRAAiSgEwEKdJ1AMhkSsCVwoPSAMrXjXOf4zgKP95rGGtso/EwCJEACuhKgQNcVJxMjgZMEjpYflczETPUlMiJSjZ9XN1QTDwmQAAn4jQAFut/QMuFwJnCk4ojA1K6FtLg0Kaou0r7yPwmQAAnoToACXXekTJAEREprSgVCXAtZiVlSWEWnOI0H/5MACehPgAJdf6ZMMcwJYDGZJEuSWKIsLSRgfj9edVyarc0t5/iBBEiABPQkQIGuJ02mRQIialW4lNgUMUeZW3hAoBdUFVCgtxDhBxIgAb0JUKDrTZTphT0BzDlPiUmR6KjoFhYZiRnU0Fto8AMJkIA/CFCg+4Mq0wxrAli3HQKdGnpYVwMWngQCToACPeDIecNQJwDTeqeYTmKO/Nnknh6XLiW1JYItVRlIgARIwB8EKND9QZVphjWBvMo8wRg65p/bhmRLspyoPmF7ip9JgARIQDcCrd84uiXLhEggfAlgyhqEd9vQPbm7HK042vY0v5MACZCALgQo0HXByERI4CQBNS0tQiQhOsEOSfeE7oIFZxhIgARIwB8EKND9QZVphi2BkpoSMUeYJdGSaMcgMylTjpUfszvPEyRAAiSgB4F2BbrVanXrPu7GcysxRiIBgxKA41tUZJQkRtsL9M5xneV49XGDlozZJgESCHYCJkcZhHD+6quv5OOPP5a8vDy54oorZOzYk1tBto1fW1srK1askC+++EKys7Pl8ssvl4yMjLbR+J0EwoIAVomDQI+Pjrcrb2psqtoj3e4HniABEiABHQg41NAbGxtlx44dcvz4cXnvvfdky5YtTm+1dOlSWbZsmRLmmzZtkgULFkh1NXeVcgqMP4Q0gYq6CjFFmCTWHGtXztS4VIFJnoEESIAE/EHAoYZuMpnkyiuvlJiYGNm7d680Nztef/qnn36S1atXy/z58+WCCy6QmTNnynXXXSfr1q2TGTNmuMxvVFSUy9/5IwkYkUBlQ6VERkZKnCnOLvvQ0ItquOOaHRieIAES0IWAQ4EeERGhhHl7d8jNzRWz2SwDBgxQUXv06CGZmZny448/2l166NAh2bx5s0D7t1gssn//fkHHgYEEQolAZV2lMrlbTD9vzKKVL9GcKNwTXaPB/yRAAnoT8Emi1tXVCcbbockjQLjjc01NjV0+CwoK5NNPPxVcA0GOsXkKdDtMPGFwAtDQoyIcW58iIiMEQr2mocahSd7gRWf2SYAEOpiATwI9OjpaoM3X19erYjQ0NCiBrQl427KNGTNGcGjhsssuEzjUMZBAKBGobaiVGNPJDm7bcmHluKSYJDWO7miMvW18ficBEiABTwg4dIprmwDGBLWA8XRNgMO8DiGOsXSE/Px8gSbep08fLbrT/zC9M5BAqBGoa6qT5Bj7VeJQTgh0TGfD1DYGEiABEtCbgFMNfdeuXcrT/ciRI/L5559LSkqK5OTkKI/3V155RZYvXy79+/eXqVOnypIlS5QJ/ZNPPpGuXbvK5MmT9c4n0yOBoCdQ31QvEOiZlkyHeVUauiWJAt0hHZ4kARLwlYBTgQ6ntX/9618ybNgwpYWvWbNG+vXrJ1lZWTJixAjlyYub33XXXZKeni4ffPCBco6Dl3tSUpKv+eL1JGA4AkqgN9Q5XMcdhWnR0Dl1zXDPlhkmASMQcCrQL7roIsHhKNiOhcfHx8u8efPU4Sguz5FAuBCoa6wTHI42ZgEDCHSY42lyD5cawXKSQGAJ/Dw4Htj78m4kEHIEYG6vba5Vjm+OCqc0dEuilNaWOvqZ50iABEjAJwIU6D7h48Uk8DMBCHRXGnqEREgSx9B/BsZPJEACuhKgQNcVJxMLZwLK5N5U51RDBxsl0DmGHs7VhGUnAb8RoED3G1omHG4ElMm9odbpGDp4cNpauNUKlpcEAkeAAj1wrHmnECcADb3R6np9BSwoA294BhIgARLQmwAFut5EmV7YEqisr5SE6ASX5Y+OihYcWDKZgQRIgAT0JECBridNphXWBOC9nh6X7pKBJcoi0ZHRUl5f7jIefyQBEiABTwlQoHtKjPFJwAmBstoySYtNc/LrydPRpmjBgX3TGUiABEhATwIU6HrSZFphS6DZ2qzml7cn0DUNnQI9bKsKC04CfiNAge43tEw4nAhoAj01LtVlsbUx9Ip6auguQfFHEiABjwlQoHuMjBeQgD0BCPTyunJJi2nH5B4VLeYos1Cg2zPkGRIgAd8IUKD7xo9Xk4AiAK91CPSU2BSXRDQNHR7xDCRAAiSgJwEKdD1pMq2wJQANvayuTFJj2ze5Q0Ovqq8KW1YsOAmQgH8IUKD7hytTDTMCzeKeQDdFmsQcaRZq6GFWQVhcEggAAQr0AEDmLUKfQHNzsxLSWAmuvQANnQK9PUr8nQRIwFMCFOieEmN8EnBAAE5ucaY4B7/Yn8LCMrUNtfY/8AwJkAAJ+ECAAt0HeLyUBDQCRTVFkhbn2sNdixtjjpEmadK+8j8JkAAJ6EKAAl0XjEwk3AlAoLfnEKcxijfHS1MzBbrGg/9JgAT0IUCBrg9HphLmBIprittd9lVDhHF2jLljdzYGEiABEtCLAAW6XiSZTlgTKK4ulvZWidMAaRp6bSPH0TUm/E8CJOA7AQp03xkyBRIQTzT0OHOcGkOva6KGzqpDAiSgHwEKdP1YMqUwJgCB7u4YuhLozU00uYdxfWHRScAfBCjQ/UGVaYYdAeXl3s7WqRoUCHSsLEcNXSPC/yRAAnoQoEDXgyLTCHsCGEN3d9pai0CnU1zY1xsCIAE9CVCg60mTaYUtgRM1JzwzuVubqKGHbW1hwUnAPwQo0P3DlamGGYH6pnqB5u1O0MbQ6eXuDi3GIQEScJcABbq7pBiPBJwQwLapyZZkiYxwrzlhC9UmauhOaPI0CZCAtwTcewN5mzqvI4EwIFBSUyJJMUkSERHhdmmVUxzH0N3mxYgkQALtE6BAb58RY5CASwKYsuaJho7EsFocTe4usfJHEiABDwlQoHsIjNFJoC2BktoSSY5OlkhxvzklRSdJdUN126T4nQRIgAS8JuD+G8jrW/BCEghtAtDQkyxJbo+hgwZM9DUNNaENhqUjARIIKAEK9IDi5s1CkYAyuce47xQHBugAVDVUKee4UGTCMpEACQSeAAV64JnzjiFGAKvEdYrp5JFTnDK511dzG9UQqwssDgl0JAGTq5vX19fLt99+K/n5+dKzZ08ZMmSIXfSamhoVp6CgQP3W2NgoI0eOlO7du9vF5QkSCEUC0NAHpQ/yqGiJlkSpaqSG7hE0RiYBEnBJwKVAf/755+XNN9+U5ORkKS0tlVtuuUXmzJnTKsGDBw/KVVddJb169ZLU1FSBgEd8CvRWmPglhAmcqD6hNHRPigiTO8bQsS86AwmQAAnoQcCpQN+9e7csX75c5s+fL7NmzZIXXnhBnnjiCZk4caJkZGS03DsyMlJiYmLkmWeekezs7Jbz/EAC4UKgur5a4qPjPSouprlhDL3R2ujRdYxMAiRAAs4IOB1D37Nnj8TGxsqUKVPUtTk5OWKxWGTnzp12aVmtVvnVr34lM2fOlKefflpp6W0j1dbWCszyMN9D28d3TxbiaJsev5NAMBBA3TdFmsQSZfEoO8kxyWraWlNzk0fXMTIJkAAJOCPgVEMvLi6WpKQkSUhIUNfGxcVJfHy8Esa2iaWkpMiDDz4oXbp0kcLCQrn//vsF1y5cuNA2mnz22WfqHEzy0OrRYbj77rtbxeEXEjAaASz7GmOK8VygQ0Ov5xi60Z4380sCwUzAqUA3m83S1NSkDnzGWJ/SRkytL4EgP//881vKCEe6v/71r3LkyJFW4+jTp08XHJpWfvHFF0t1NRfWaAHHD4YkUFZXJhaTRR2eFAAaupq2Rg3dE2yMSwIk4IKAU5M7xsnLysrk+PHj6vKSkhLBYTt+7ihdk8nU0hGw/R2CXBPmOG/72TYeP5OAkQhAoMdExQg2XPEkYCOXusY6aWzmGLon3BiXBEjAOQGnAv20005Tzm7Lli0TeLJjbLxbt24yfvx4efHFF9WBZLdv3y4ffPCBHD16VL766it56qmnZNiwYZKVleX8rvyFBEKEQFltmUSboj02uaP42Ea1sr4yREiwGCRAAh1NoLX93CY30MQXLVqkDji7jRgxQhYvXqw0azjGQRNHqKysVEIcAj0xMVGmTp0qt912W8vvNknyIwmEHIGWMXSTZ05xAJEamyqlNaUhx4QFIgES6BgCTgU6sjNq1ChZtWqVXc4ef/zxlnOTJk0SHAwkEI4EINDh4e6pyR2slECvo0APx3rDMpOAPwg4Nbn742ZMkwRCjQBM7nCK80agY7lY7NTGQAIkQAJ6EKBA14Mi0whbAppTnDcAoKGjQ8BAAiRAAnoQoEDXgyLTCFsCWL7VYvZ8/BzAUmJSpKSGGnrYVh4WnAR0JkCBrjNQJhdeBJqsTRJv9mzZV41QSmyKlNZyDF3jwf8kQAK+EaBA940frw5jAnVNddJsbZaE6JOrKXqKAho6Bbqn1BifBEjAGQEKdGdkeJ4E2iGg7ZaWGJ3YTkzHPysNnV7ujuHwLAmQgMcEKNA9RsYLSOAkgeqGaoHJ3VsNXU1bo8md1YkESEAnAhToOoFkMuFHoKaxxieBjmlrNLmHX71hiUnAXwQo0P1FlumGPAHsgw4NPcmS5FVZMXc9QiKkvqneq+t5EQmQAAnYEqBAt6XBzyTgAYHKhkrBfubeCnQIc2rpHgBnVBIgAZcEKNBd4uGPJOCcgNrPvLlJ4qO9m7YmEaIEenFNsfOb8BcSIAEScJMABbqboBiNBNoSwH7mvmwDDA0d+6JzcZm2ZPmdBEjAGwIU6N5Q4zUkgJ0G6yrVBiu+wOhk4XruvvDjtSRAAj8ToED/mQU/kYDbBKxWq2Ad9/S4dLevcRQRGjo93R2R4TkSIAFPCVCge0qM8UlARBqaG6SirkI6x3X2iUeyhSZ3nwDyYhIggRYCFOgtKPiBBNwn0NDUoHZKS4/3TUPHanFFNUXu35gxSYAESMAJAQp0J2B4mgRcEYCGXl5fLumxvgl0mOwLqwpd3Yq/kQAJkIBbBCjQ3cLESCTQmkBjc6OU15X7PIaODkFBZUHrxPmNBEiABLwgQIHuBTReQgIwuZfXlkvneB/H0GOSBQvUMJAACZCArwQo0H0lyOvDkkB9c71gHnqMKcan8pujzBITFcPlX32iyItJgARAgAKd9YAEvCCAqWZJMd6t4W57O6znnmhJlKJqOsbZcuFnEiABzwlQoHvOjFeQgBRWFkq3hG4+kzBHmtX2q8W1XP7VZ5hMgATCnAAFephXABbfOwLwTO8a39W7i22ugskd+6kXV1Og22DhRxIgAS8IUKB7AY2XkAAEekZChs8glIZuTuBcdJ9JMgESIAEKdNYBEvCCAKaa6WJyh4ZuSRDuuObFQ+AlJEACrQhQoLfCwS8k4B6BIxVHpEdyD/ciu4hlijRJYnQiNXQXjPgTCZCAewQo0N3jFLSxrGJV85hhAq5prBF8Z/A/gSPlR6RXci9dboT91OnlrgtKJkICYU3AFNalN3DhIbi3Ht0q7+x9R6obqiUqIkqarc1iibLIiMwRMr7HeMlKzBLsue1pQNpIq6y2TE2pwjgvw88EquqrpNHaKFiHXY8AgY5nyEACJEACvhCgQPeFXgdde6L6hCzZuETyK/NlSq8pkp2WLXHmOKmor5AjZUdkV+EuWfn9SsHypEM6D5FTUk+R7kndJSs5S7ondheLyaJy3lbYI/7WY1vljd1vyKGyQ2KJtEiTtUkuHnyxzB40W3UWOqjIQXXb3PJcyUzM1C1P8eZ4iYyIFGzJGhHheQdMt4wwIRIgAUMToEA30OOD1rz+0Hp5bNNjktM7R+6ecLfDtcRrGmqkpLZEjlYclb1Fe+Vg6UHZfGSzHKs8JnkVeYLFTPqm9pWBqQMlM+mkYDpUekg25m4U7M89e+BsuX3M7RJjjlHrjD/15VOyM3+nLJy8UHUcDITML1k9WHZQeiT6Pn6uZQ4aOgQ6OmRJFt8Xq9HS5X8SIIHwIkCBbpDnfaDkgCzfuVy+PPql3HvmvTKuxzinOY81xwoOaJGjM0ereDCjQwPEX2lNqRL0e07skcNlh6WpuUl6JveUJ6c/Kaekn9IqXaTxt/P/Jvd+eq/c/dHd8n/T/y/sNfXc0lxl8WgFyocv0NChmVOg+wCRl5IACQgFehBXAgjf749/Lx/t/0iZwgemD5Q3Zr+hpjl5mm2Y1zVzblpcmpwRd4ac0eMMt5KBiX7J1CVyx5o7ZPHGxbJw0kK3rgvVSOgEDes6TLfiKQ1dIqWirkIkUbdkmRAJkECYEaBAD4IHDsGNAM9paOIYv8b/H4t/VJt/9OrUS+aPny+ndTutRSgHOtvoDPx5yp/ljg/vkGVfL5Prh18f6CwEzf0whDHzlJm65SfBnHBSQ4dAZyABEiABLwm0K9AbGhqksbFRzGazmEzOo9fX10tTU1O78bzMZ0heVt1YLVuObJG397wtO/J3CDTnHkk9JCMxQ3p36i1n9T5LzXXOSsoSzFfu6NApppMsOHOB/M/a/5GeST1lWr9pHZ2lDrl/YXWhdE3wfdlXLfMYN4cFBX4PDCRAAiTgLQGXUmLdunXy0EMPSW5urgwYMEDuv/9+GTbM3tS4evVqeeyxx6SwsFBGjhwp9913n2RnZ3ubJ8Nch7FnCGVMY8JWmvVN9cq5Kc4UJ8mxyZIUbe/gBE9yOKetO7BOVu5ZKbGmWLl08KXyxwl/lMSYRDFFmJTwjoqMCkoO/dP6y62jb5XHNz+uHOjGZo0Nynz6K1OV9ZVq7XVft021zR/8HTDtELMXGEggXAnUNdZJaV2pep/iPQlHUUyZxX4HUGhgycQ7F7/BQRgB5+Hkq+KZzOr92dDcIA1NDYL/jU0n40ZGRirfH7xv4eyL9uYqIH1MJcW7HW0e7/fyunJBHtH24TyMjjiUHOyW2HbGkKu0/fmbU4EOIf7AAw/IOeecI9dee60sXrxYFixYIG+99ZbExsa25Gnfvn3ypz/9SW6++WaZMWOG3HPPPfLII4/IM888IxbLyelRLZED9EEzYeN27oLG/tb5FflyrOKYYOer6vpqqWuqU0K6uflk5VHp/XdaEYQ3HjYeckldiZTXlqtKFBEZITChpsemK027e3J3tYkHKghe2HBE21m4U9Ji0+SBKQ/I0K5DA0RFv9tM6j1JKhoq5IF1D8jvJ/xeJvearF/iQZ4S6kdqTKrujoGdYjupef9BXnxmjwS8JgCn3LK6MuX8iZk4tY216h2aV5kn+VX5aoMiLIGM9S8wXRYCHetq4IDgbpZmJcwhqPE7RiohzFUc08l4UIQgxPHurmuuk4bGBiX8cR5xsRESnFDRiUaauAcOvJ9xoMOA/7gePi14v2t51joDEPR4/6dYUqRzXGdJi09T7/PU2FSVvopnilH3gH9Ml7guqlPiNTgPLnQq0Hfu3KlM7b/85S+lc+fOcv3118tvfvMb2bZtm5x55pktt1i7dq306NFDZs+eLcnJyXLdddfJvffeKwcOHJCBAwe2xPP3BzwECMtNuZtkX9E+QYVBzw7e26d1PU2GZw6XZEtyq2ygQm05ukU2525W49d46OjpqQcdefJBR1gjxBRljwmVKD0+XQZ1HqQ8njHPGz02pYFXHFN52VWwSzYe2ohehRojRYXGYi8Lz1wo/dP7t8qL0b6cd8p5qjf8t61/U1Pirj796la7j+F5oAODqXNHy48KOkUZSRkyrMsw1cN1t6MVbFwg0LGgTLQpWtesof7A2Q4vCrx4GEggFAhAQH6d/7X8Z/9/lLKEdzIEKHxyIiVSKVz4DosmrH/9UvqpFRihReNdCu0Ysz+gYOG9DO0YTrrRkdEqDWjOELyIA+GL9gOBiuWUsUcCBCqug2aNjsLx6uPqwGcIZqXFNzeqOMgb0kX8lJgUGZg2UKCQoW2mx6W3ehzIG3yeMC0Y8gYH3nlQJtVsIqtVLT4FmXPd8OsEw6aBCPaS6r93LSgokE6dOklaWpo6g88Q2DhvG44ePSrp6ekSFxenTmdmZqqOQEVFawcfjK/X1dWphwDNHd81r2vb9Lz9jAcJ4YxNM4Z3Gy5x0XHq4eL7ez+8J0u3LFWVoW9KXwUdjk3QqlGBIFzPH3C+ErZd4rsocwoEtjcBlQH3wAHHKZh+0MNDWVG5YqJivEk2KK+Znj1d+qT0kRXfrZDfvvdb1UBhfkIjxAHBlxaTpv6j0X7y0ydyoPSAwMnvksGXKC97d4UXGgoaIJwFscRtJ0sn1dDQ8B0F9ODRoUAHDeYxmNj06ERA6ML6ovdzRINHBxBWn+hYCnRHz5TnjEVg7YG1smz7MqVBj8kaIyMzRypBiUWwlGCOsqh1LWCdcmYCh0k7GAPe8/BzwjG933SVRQh5vKPQeYCGD4URQj41LjVgRXAq0DWBqwld7b+t+Rm5xHf8pv2OsQr0UNrGW7Nmjfzv//6vVFdXS1RUlMBUf+edd+pWUAjgS4dcqrRyvMS1AKB4SUKoHi49LDDvQDicn32+6jWhZ4jeHASOPwJ6fW17d/64T0eliV41zO7Hq46rIQv4FMCHAJUYPWkIPjwbDEWggqM3vT1vu7z0zUuyaP0imdpnqkzpM0V1DCDcYSWB4EXjQMOAAN9ybIvqrGHxG/SWYTLD84S2jHvAkVBbuQ0mO2ycgv/wYUA66Oyd3u10mT14tozOGq2GRLzlhZkH2SnZupvQYLlBmfBC0GtJWW/LyOtIwFsCaG/bjm2Tp7c8rdre9SOul1GZo5T10l/vWG/zqvd1EPJqYSjvdEFdsuNUoEPrLi8vF2ja0NIrKyulqqpKUlNb9zYQb//+/VJbWysJCQlSVFSkvOHj4+NbZXDatGkyefJkJfihoc+aNUtqampaxfHlCzoU6Pm1DahE0BpxQBgw6E8AHSgIVE2oOrsDTGEwZWEY5KKBF6llalf/sFo52MGkhv3FNQeT8vpy1UHAmBfWpb9r3F1yapdTxWw62VlTfhJWkZKaEjXND8uxog5gHAse+NjaFJ0pBHQiPjv0mWB44NWdr8oNI28QaAzehBM1J2RCzwneXOryGtTN0tpStdGOy4j8kQSClABWo4S17qeSn+Ta4dcKhuU0RS9Isxxy2XIq0AcNGiSYivbhhx/K3Llz5f3331da94gRI9Q4OjTwMWPGyIQJE+TVV1+VzZs3S05OjqxatUq6deumxtVtaWHKm+20N0yDgybPEL4EMD5106ib1AHNFBo4hJoyU8Wmqg4YBLyjoMznEaIsAbAGDM8Y7iiaOoc0Luh/gTpWfrdSFm9YrEz+lw+93KMXDqwQ6LzAEUbvABMktBt0PhhIwEgE0Jl+4esX5IeiH9SS1PdNvk91zI1UhlDJq1OBDoe2G2+8UZ577jlZtmyZKi882KGhz58/X803h0DHcfXVV6spbYsWLZKYmBhZuHChGm8PFUgsh/8JwLoCB0N/B2w0A58JmPutEVa5YugVbt8SDn7mCP8IdGQC4+gYRmgvwDqxv2S/fJH7hZyoOqGc6GCZgP8HHDXhPxIlUS0ORcppqK5C+R7ASgJLCmZXaPPf27sffsc96xvr5ceSH9WLu7ahVvmEDEgfIP1S+zkdA3Unbb3iKKuNTWJQGNpqiOgI2saDUxU6kth+GD4uXeO7Kj4wn7oKevhjuErfKL99ceQLWfrlUhnaZagsnro4YM5fRuET6Hy6rLWXX365nHHGGVJcXCxdu3Zt0boxnc02zJs3T6ZPn67M83CKy8jIsP2Zn0kgqAjg5fOnKX9Sa9NnJmTKlN5T3MofBDpmPHSO119DRwbgoJlblusyL3A2xPK78EMY3328EuLw1IWz4Vd5X6nFaTDDA8IMU3Pgb6BN1bGYLcqP4bODn8nez/aqcszoN0Mm954s3RK7KaGMISoIPDgVYvoPPHmxf8CGwxuUJy/G+uEIhHSRl+W7lqu93JHGzOyZMrDzQOUHgUIgD3AKxa6AMMPCCgOfB+z41yO5hxoig88EhKcrAYmtamG9wAHBi1kT8IIbSkgAABTwSURBVGjGlCT1m7VRymrK1IwK+Mjgd8xnhjUFbGKjTnZisGAThDZ8M6BVgjXujTKhQwQfDwypwJEWzJBHOGvBB0PNR26oVNOa0HHCszq126lqBg3qA7ih82BbDnyHJ7fmF+LywRrtR6vIa7tfk9d2vSa3jb1Nzul7jl3nyWhFCoX8uhToMJH37dtXHbaFzcpq7YKPeP37G3salm35+Dn0CWBd/N+N/508/sXjamzeHU9UrFMA0zgOfwQISuymB2HqyOsX2vv8/8yXvp36qjX9oYkrRyOrqGGKJmlSw2LaUJYSMBAqmGuLKUIREUrIIn0IKXjVv//j+0ooYybAgNQBylSqCc59xftUMcdljZM5g+Yox0IMX2gCCoIfcTGH+JP9n8jDGx9WPg3wB4CgxPBJYWWhmmUALR7OpxCaEKToHMHPITs1WzlEwn8CHs3ohEAoQlDDsoAyHy45LAfKDqhOCxwn4YOB6UCYOghLBPKDa+FjcW6/c9UOghDQWudEpVN+TDnEolOBNGYNnKXSUQ6x/52iqjoy/124BMMryCOGfzCVSXWKsCteZKQS+JimhGf17JZnVacBQh1WJnQi8OyQJ/wHV5QTR5eELsoqgng40CmCA6nm6+GPOuWPNDF7BLOGvjv+nSydsVQ9P3/ch2l6TsClQPc8OV5BAsYhAK0SmueSTUvkkamPuMw4hCQWHPLnfFIIpL9u+6sSkpgJYhugDT+04SEZnTFa7hh/R2ttKEJOChGJEmlvsgbiyslFNuBsiANCGRr0nuN7BM6IWK1wYs+JaggE2qirAMHdO7m3XDfiOnVAeGo7+EGoQpA5WscBaWIGA4QChCOsBhAUELgImpCGgyPM+r8Y+As1T9nZNEVXeYTQbs9hs+X6/2LHcAQ6IY5Cn059ZFz3n3c7hNkeWj2ekWbZQIcE1omimiJl5YDDGDoIqEewEmDxKXQS0CmDYEdHBveE0yg6TUrYm+PUZ3Bsz4rhKJ96n0PnBut8PL/9eWXRefmil1W+9b4P0/OeAAW69+x4ZQgQuH3c7XLNqmtk3aF1Lle8w5SykuoStcaBv4rds1NPtSjG7oLdas6udh8IgRe+eUEJ7RtH3dhamGuRfPgPYYHphzh8DRBGQ7oMcSsZrGGA4zw5z634wRoJwhfrTrgTIPCLqoqUVQPDBziKqoskryKvpSMEwQmnY21lNFhTYIHA+hqYdol1HBBszfvu3NuXOFi0C9s3Y+MozFC5aMBFqtPlS5q8Vn8CFOj6M2WKBiIALenGkTfK37f9XSb0mKA0IUfZx/S4gqoCXYSeo/S1c/DGx2Y9WIRDC5iH/58f/6P2pYdGx2BcAjDDw/SOo22AyR/+Dxivx9AEDmj/WFMBfgHfHv9WVu1ZpYYy+qT2kX6d+qk1LmDuV0uQxqUpvwiY8xF8FfhYwOnzQ5/LG7vfUJabnF45akYKp/+2fXLB850CPXieBXPSQQTG9RinVhPEHFpMZXMUoJlgvX+M3/ozTO03VV7a8ZJyTMMLGc5fD3/+sNwy+hauo+BP8EGQNp63Nr7uKDu1TbVSWVep1jzHAkdHK08uq7yzYKcU1RapGQ9w6oNFB74JA9IGqGVUsYujNmYfGx2rrECwyqBzgeEQDLHAvwJDLxg2+CbvG7VuA3wsMNyBVR3Hdh+r9jBAPIbgJUCBHrzPhjkLEAGMsV444EJlUszpk9NqTXpkASZQTBGb1GuS33OEZWVhvn1r91syLXua2qp2VMYoOfeUc/1+b94guAlg1cWYuBillbvaCwJ+CDCRf3/ie+VIuD1/u9L6oe1D+8d/dB7g3KmN10NQ4zds4Ys1zLEozKKcRcqpL7ipMHe2BCjQbWnwc9gSyOmdI6v3rZY1P66RX532q1YcMIa5MXejPDvz2Vbn/fEF07rmDp2rOhcwr0LLumfiPf64FdMMUQLQxkdkjFCHqyJiWiKc9uAfgk4rPPLhBAnNncGYBCjQjfncmGudCUBDuXLYlcqT/Nzsc9WLTbsFtB2YKOG0FohwVp+z1FxvLB4DU6czL/FA5IX3CF0CqFddE7qqI3RLGV4la2+SS3jRYGnDmgAc0QZ3HizPbm2tia/4fkXLjkqBAITOBaZMTes3zW7L30Dcn/cgARIwJgEKdGM+N+baTwQWTFwgcDKCZy/CRz99JDvydigzuJ9uyWRJgARIQBcCNLnrgpGJhAoBLPCBRWb++PEfBZ7EXx75UhacuUCwZzMDCZAACQQzAWrowfx0mLcOIYAFVpacs0StLnbX+Lu83mq1QzLPm5IACYQtAWroYfvoWXBXBDCG7WzpT1fX8TcSIAES6CgC1NA7ijzvSwIkQAIkQAI6EqBA1xEmkyIBEiABEiCBjiLQoQKdywh21GPnfUmABEiABIxIwJXc7NAx9IaGBrXucGNjo25cUVisZRzqIVzKqT3HcCpvOJVVe77h8D/cniv2jseuceEQAlVWs9ksruRlhwn0uLg4ueGGG6Rz5866CWCtgxAdHR3ydaiurk6wZ7bJ1GGPMGCM0UGrqamR2NhY3bcODVgh3LwRXoC1tbWC9hEOIZzaLJ4r2muwtVl/KEBIE+WNiYkJizaL9zHeT/4O6BQWFhbKrFmzHN4qwuqPp+nwVq1PlpaWChozhJIeARXniSeekGPHjsmjjz6qBIAe6QZbGnigKOtNN90ko0ePll//+teCyhSqAeVF+aZMmSLvv/++pKSk6NYBDDZmKGtubq5ceeWV8tlnnwl6/R3UPAOCxmKxyOOPPy5FRUXy8MMPh3SbRVmhwEycOFF++ctfhnybRQf8rLPOkg8//FCSk5NDth6jjR44cECuueYa1WbRcPzdZqGhoz6Ba9vQYepdp076L9SRkJCgNBv0lALRW2oLM5DfUb7ExESJj49XRyDvHeh7oeMHrSY1NVX8UW8CXR5X96uurlZlTUtLcxUtZH5Dm0WZQ73N4iUfTm0WFiYoa6jHeE+FcsB7Ce8nKBsdHTrUKc4fhfd378gfefYmTZQz3MoaDuUNhzJ6U99D4ZpwerZaWbX/ofD8nJUhmMrYYRq6Mzi+nB88eLBkZGT4koRhrp0wYYL069fPMPn1JaMwa11yySUSDr4R0GwuuugiX3AZ6tohQ4ZIr169DJVnbzKL4RSY28OlzUJjDZc2CwuEszFtb+qKL9d02Bi6L5l2dq3mUQkBEOoBZcVLAkc4hKamJt38LYKdVziVlW022Guj9/kLp3ocLGUNKYHufdXjlSRAAiRAAiRgbAKhr8oa+/kw9yRAAiRAAiTgFgHDjqFrjgjtmZzdjecWrQ6K5E4Z3InTQdn36LZaOXCRs2drG8dVPI9u3AGRbcsR6mUFXq28zspq+wg8iWt7XbB8dif/Whwtz+5w0eLyPwk4ImBIDf0f//iHwCls7Nix8txzzzlcOQdz9Z588kkVB84oy5cvd1T+oD6H6VoPPvigjBkzRiZPniyrVq1ymF/MWZ4zZ470799fzedt+6JweFEQnvzhhx/k6quvltNOO03mzp0re/futcvlTz/9JLfffrt6/uPHj5d77rlHLbRgFzHIT3zxxRfK+Q1lvfXWWyUvL88ux+CBuct4/jh+97vfOYxnd2GQnUB9/Pvf/y5nnHGGjBs3Tp5//nmHbVbLNp7xueeeK1dddZXhVhqrr6+XRYsWqTUi0GbfffddrVgt/+E3sHjxYundu7eq63DmRfs1YkAbxXM69dRT5YorrhDUWUehqqpKlRl1YPjw4eq9hnNGChs3bpQLLrhAlfW2226TgoICu+y//PLL6pnC2RNM4AR53nnnCdZdCUjAwjJGCqtWrbIOGjTI+vHHH6tjyJAh1rffftuuCMuXL7cOHTrUumHDBuvq1aut/fr1s65bt84uXjCfWLp0qXXkyJHWrVu3Wt966y1r3759rTt27GiV5ebmZuv69eutr776qvXCCy+03nnnndampqZWcYzwpbS01DpnzhzrDTfcYN27d68qx9lnn22trq5ulf3NmzdbH3vsMes333xj/fbbb1WZb775Zis4GCUcPHjQOmnSJOuiRYus3333nSr39ddfb1eGQ4cOWT/66CPrvn37rHv27LHOmjXLeuutt1rr6+uNUlSVz5UrV6o2u3btWuuaNWusgwcPtr777rsOy1BZWWm9++67raeffrr14osvtjY0NDiMF6wnn3zySeuoUaOs27Zts77++uuqze7atatVdlEmPMd58+ap8yUlJdbi4uJWcYzwBXmePXu29be//a2qo7fffrt1+vTp1pqaGrvs47drrrlGxcvNzVXvsaqqKrt4wXpi//791okTJ1oXL16s3jsot/b8bPOM+puXl2fNz8+3FhQUWC+99FLrbbfdZm1sbLSN5rfPhtPQX3/9dbn00kvl7LPPVgem+KxcudKux494WL0Hmjx6SDNmzJDXXnstIJ0kvW6C/EJ7GzVqlOrBwyLx5ptvtkoeZrozzzxT9Y7R4zdq2L9/vxw6dEjuuOMOZWmYP3++oAf/+eeftyoSGEBThWYLzQarbkFLKC4ubhUvmL9s2rRJLYAE7XvQoEGqzHv27JFvv/22VbZ79uwpU6dOlVNOOUUxGTlypFpVDZYbowRo56+++qqyuOTk5Mi0adPkwgsvlBUrVgg8g20D4qJ+4z+0PqOZoJHvN954Q6C94VldfvnlSlN31GYxE2f37t2KDaw1WGDHaGHfvn1y9OhR9Y5CHb3rrrukrKxMoMnahi+//FLVbVhd0J6//vprQd020vLGGzZskKSkJLn22mvVewfvZTy/77//3raoapGvbt26SdeuXeX48eNqFTnUd71WRG11MwdfDCfQjxw5IjBnaAEvdSz32nbB+oMHD7aKB/OHM3OQllYw/cfqWSdOnFCVR8sXhJiRyqDl253/MDljOcOsrCwVHSvgZWZmKiHv7HqYNz/66CMZOnSoWpHKWbxgO486jD0MtJWlunTpolYRwxrNbQOWvcXLA51YvBix5K+RXoQoD176tm0Wn8GgrUD/5ptv1LASBCLm9rb9vS2bYPuODihe4rZldfbewXnE27lzp1qqGp3Utu+wYCtf2/ygzWL1O63N4plBmB0+fLhVVLyLIfzRsUPne9myZfLnP/9ZKioqWsUL5i+oryib1mbxGe8rPG9nYf369Wp1yxEjRjiLovt5QznFoYHjsF1gBLvPONJY8LLHb1rAZ5wzSkBe0eNvW1YjlcET1igXFqPAgQANBr1aR89WSxdr9+NF8dJLL2mnDPEfZUV91NZL0Hrvjl7o+A1jsXihvPfeewJNHhYZowS0V4wZ27ZFPGOUFfVbC1j7e+HChcriAgGB77gOz1+rE1rcYP2vtc22bbZtHcZzv+yyy9Sa/YiLZzp79mz55JNPZPr06cFaPLt8obyon1r9hUUFZWtbXnyH8IfvEyw027dvVx1T/EfdNkJw1GZRf511OsvLy9XeE7Aka52AQJTTUBo6Kg40N1tnBHzGIvXay1GDhjWEbePl5+crrUj7Pdj/Y81yvARttTZYIqDZuQpGM1NqZcHzglUCDQEBmik+O2oMaEh/+ctf5N///rfq7cN8Z6SAtZ/hJAOhhVBZWakEnKM1ryHMsOIWhiLgDAjnTtQDowS0WVgUbNsiPqN+27ZZ1HNYn+677z4ZNmyYPPLII8r6cvHFFys+RigvyoTnpZUV9RSCrG2bRRvFewwaHj5nZ2erA4LdSAFtFlYJTdNGm8Xntm0WwwkDBgyQvn37quLBPA9WsEAaJaDNYlgPO8ghoJwQ5s6GSqBowLlz5syZAS2ioQQ6yEyaNEneeecdNVYDuB988IHynEXjQY9PG0tFz+/tt99WWjnGdVavXq3GIwNK18ebwSMU42/QZlD5P/74Y1UGCACUVfMSRdltj7baj4/ZCMjlEMrQVmBCR1m2bt2qXobwioYJ77vvvlP5QNmeeuop1fuFR6kRl9LEEAFe9F999ZUq66effqq0HMxSgEkS/gQIEAww6WnPFi8JBKNorMgrBBbaItosXoLoxGhtFho46nFJSYkaU123bp3SUvEfwwzYYQ8e8RB+RggoK2ZeoM2ibOikQOuGloayo6zotOI3vOyh9eHZYkwZY7HwpzBSgM8O6uLatWtVtjEkhPcUdoGEP4w2vozhBZjmUd8RMMyAzjqG1IwSUAZYyfCsENBmseslOmPoiGHHNdsA/ycMkdoOv9j+7q/PhlspDpr2zTffrBoCTDmA+vTTTyszD8xWGJuBAxwA46UAIYGeIxwann32Wbveo7/A6pEuGgTGE9HjRaeke/fuymwFx5I//OEPSjuFcEBDwpaxEIJ4QUAIYhqM0abCvPjii4ID6/Fj3BVT1+bNmye///3vVWOCoyO2Y8RzxrgU/CcgIAYOHKhMeOhFGyGgU4LtQjHdMD09XQluOBTBeQbPrE+fPrJkyRI1ngznMdRhXAMBAaccjKcbKaDzgjaLgDaLlzvaIjqkKAumecEUaxswnLJmzRo17ctIHRg4NsKSollhsE49ptZC6N17773yz3/+U2mqt9xyi6q7eLYYY0bnHdYJI5UVzwsdrldeeUU5geE5w5kRzp533nmn6oxq04XRrjE0huEUKF2YSgy/AVgpjBDQ/lBP8e7F+xhb/sJxFw7XWMcdnbGHHnpIFQWdcDjvwor4i1/8IqDFM5xABx1oLhBeCOgNwqMQL3Y41aDHpJm4IBTQK4bZD0LOKC982xqAxo5y4SWI3j86JqhM0NYgzGGmRc8RXpjQZCDQ0fNHBQt079A23958Rr7Re0fvvkePHsq7H2ZZ9IBhjTn99NNVWXfs2KEEA4QDzF543mBjJGcxCDPUTQhpmCPxLBFwDuVAJwUvhl27dikNFi9+xEP9tjVVe8O5I67By37btm1KY8ecejgCQlvFs4QJFh0b24A6gBc/njk0XyMFaN+ox3iOqJdoo2izGFLAc0Y7RZtGGRHQgcVMFm0s2khl1dosrGhos/Du19osfoNmi6BZIvA+g0MZtFejWF6056G1WVghYE3T3q/Q2lEWnEOABRXyCTIH7+1ABkMK9EAC4r1IgARIgARIwAgEDDeGbgSozCMJkAAJkAAJBJoABXqgifN+JEACJEACJOAHAhTofoDKJEmABEiABEgg0AQo0ANNnPcjARIgARIgAT8Q+H+6FG50XC8j/QAAAABJRU5ErkJggg==;" parent="1" vertex="1">
          <mxGeometry x="189.62" y="340" width="179.63" height="60" as="geometry" />
        </mxCell>
        <mxCell id="WWeYNiVOzWscjV635nap-30" value="" style="group" parent="1" vertex="1" connectable="0">
          <mxGeometry x="185.41705307948286" y="150" width="292.50122742894547" height="90" as="geometry" />
        </mxCell>
        <mxCell id="WWeYNiVOzWscjV635nap-3" value="" style="rounded=1;whiteSpace=wrap;html=1;strokeColor=#8C8C8C;" parent="WWeYNiVOzWscjV635nap-30" vertex="1">
          <mxGeometry width="290" height="90" as="geometry" />
        </mxCell>
        <mxCell id="WWeYNiVOzWscjV635nap-2" value="" style="shape=image;verticalLabelPosition=bottom;labelBackgroundColor=#ffffff;verticalAlign=top;aspect=fixed;imageAspect=0;image=data:image/png,iVBORw0KGgoAAAANSUhEUgAAAqoAAAEECAYAAADgexZpAAAgAElEQVR4Aeyd6XPcSHL2H6DRF09R1D07O3t6fd92OBz2J/+/bzj81eFPDl8RXoe9a89envHMziGNxLvvBhp441dAUiBFUiIJQGSzaqaEJo7KzCePyioUgCDLsky+eAQ8Ah4Bj4BHwCPgEfAIeARuGALhDePHs+MR8Ah4BDwCHgGPgEfAI+ARcAhES42DTRbbdqmF9cLdbAQCcesi//dmc+q58wh4BDwCHgGPwE1BYHkT1flcmk6lOJYWCylNG8c8U6DULawIjmkHQabQpSzHu/yPJUcgzQLFaUuMl6IwdXXJRfbilRBA/4ssjwEh/h8wYKH4VVclmJbmJ3EfX88y4n+gMETnbu/SyOgFOYkA2qWgb6d7BWoFqdP7yTP9X1dBYHkTVRLU4VAajyWSVpLVhgsGm6ahLEXGlFtBJoW+g2pYFe+V3GIRap5ELogFUaIoat4W3ysAd5U4yQqdVxooSfNVVlGYKQjziBDkfdtdRWc55XYJKnpH54EWaahWmKrdSt3oxKt8OdWOo5Ok2qCUQYpaqcLC15dU6sbEWt5EldnUnR3p6CgHk16h1ZLCBpblMnu7WCieSeNJoFkSKovaCtstrfUWWu3VnKiQIZOYJ0kue7udy96UWTFIoIJ107QL7N0MOhjAQ6fTjN4N31PyD0ZdffYi0GTe0neexPrgwczOrH4LbfSOrZu9N50R4XuTSY57v98c9tg98jMwjaLc9tB/E/Kbz5nNBYHSgHsnLQ0mLe0N2k7XW2uJ1voLtcLM1UoNANsH+9lM6vXy2oTsCIH82B3yG010gA3WXaCN7FR+U8z+66Zt7SP3bKYsWSiJ+orDrg5HkY5GLW2sLnR/I1GnXQxQqp5JL8c8kx/sqU0UaCK/9TdN0kY+6OLzFGJ9U3JDr8B+EWeazzNN5pGGSU+xIqdz/D0fnNQ4OYX8xD38DtmxffPBHJX6/jXaxFlo1xRvG7Lk+nA6t2UC9suX0v6+1O3mFSMmcaq7FJ1lfJTqaC/QcNpW2uurtdJVuJVoNYzr44CgQaWzIlnAYEkWwIDShAGPRvlsNlivreXBoz6JT7ZMwAJ/S1jgYXW1WR6Qnwrtfl+HrwJ9/LOeDoeBVrKFPtgogupJzq//F3rnDoIliSQrTSer8IDP7e1J6+vS/fvNYU+nwV0UKjZPbSpwQxufw/4KzLOwrUXY1tFeV18+z0Nt8DhRZytWp52pFVXceWHzYH94KG1t5djTcTRRSFSIuchPjKFa3K075kAb2ek00QPFaDchOzTQ/eGh0slccX9L405Lr14F+nqnpWcPFloLY3X6JPGZrfuojjPkhj5bsABvfB/7r7vg72CO3tE/v1dWcvzNDurmgXg3GORy0980IbfJVPQzi/FC00Gqw3FbL6ehJmFLracL3WvjD7YwwC6qeIv8xH3wRnabmKnb7xADulTiLLTp82rQ+/ImqjgszoshkahQARIHrrvgsJOJFtNYsyzVZNFRGq4q6q4qWU2krRpnVAkUVBIltnRUJAzIXtNo50w4wZ7OYmMjp33mSRXvJGiCvVX+Rt/IT/BsshC4C9qzo3Xtzda0O440brekrWLQUDU/6Jsgge2jb4I2gcOS1arpndUePBC4wB7aTerfOmoCt+ndZljqTtigjc+BNUE7ipRFXWWtrubTjoZBx61Jnfd7SjcWyjqZRK2yYPck6egA39vczHmpksZ5bRFnkZ1KAW98jrjbBPbIjs9h+xRoU5vorKFny8xmidJuX8nqPU0OIx1lkbY6iRbrsbK1VAHLvqq+/0+sxefYmvzEPGrdBVuDJj5H4W/ijum9CfyxOfQPrabkNlyLviZdzLQY0d93NMpWNNK65v1Y2mJSqgadG322xBviD34G9tg9v+v2O2hDA9rEWbAn7rKvYr0vb6JqikSJdJaPHr12IDtW15agMRgoSydKB7GSoK303ra0van0SSY9q7iDKstB0CBYMKtCooDRbG/nRsRvat0FoyVRIVl6+jTHvW6atA9NsCdhoONgi9Oi+yaCtsmI/Dgq8m9vK52vabba1XTe0mJ7Q/pWTQMV9E6gIHAj7717ecKCDzShd+SHBzpMZvag/+RJc9hbskTgxOap6MD8wPRTxxba+Bx2h/6p7b6ydl9pFinez/0ufZTm/t8jUa2YEWzfZpeYyf7gg1z2ismc2RxJ4sFB7nOcgL0Rd6mWvJ55YQU7oY3sJA3EP+IAdPGBijvMc7lF9/ARRMq2Hyi791SLWah4GGixnSl9mirbyCTy+KoTVdM5GGD7FPRPrbuANzSJtfg8f+N3+D7YNxF3dndzutB7/LgZuQ1XMMfno7HSZKo0ayvubClub2mBr3+Qr02uXOdGH1sHd3Cmgj3JKj5Xt9/BgyWmbKFdU5K8/IkqymJ2AeURuJpIWKDpErVAaWemNObW/6qy1XVlDHI3zcpq2BIoqCQMBG6MF5mtw2gicOC8GC5Ga7RrEPWNJsEc7AlY/AYDeLAO840LatqB/NyKKuRPV1aVtCMl7ZbS1Rr1j97ROfSZ0QB79NBEomZQGuYkaiSJTWJPogDuyGzyowN4qdvuoQ3+2J3ddm5zG25F2WFLaXEXNluTsg0CPLenDbSKtgxILDFHbmZU0X0ThcEJCQvy439U7A8e6u4woQ0Nm1mCB6MNH00U7B7sp/kdvGx9Q+mKnN6dz6Nz4n4diSo6NtwZMJWxr1t2dE6FJj7Ab/pa/B6fq9vvkA+6YN+k3IYrNkeZstxCSlnmF6wo7dLfFzrHBOsyQ/QO5gwUwNqwh6+6/c7JXdzFKfo6F3ehW7HeG5hey/Xo//UIeAQ8Ah4Bj4BHwCPgEfAIXAYBn6heBi1/rkfAI+AR8Ah4BDwCHgGPQGMI+ES1Mag9IY+AR8Aj4BHwCHgEPAIegcsg4BPVy6Dlz/UIeAQ8Ah4Bj4BHwCPgEWgMAZ+oNga1J+QR8Ah4BDwCHgGPgEfAI3AZBHyiehm0/LkeAY+AR8Aj4BHwCHgEPAKNIeAT1cag9oQ8Ah4Bj4BHwCPgEfAIeAQug4BPVC+Dlj/XI+AR8Ah4BDwCHgGPgEegMQR8otoY1J6QR8Aj4BHwCHgEPAIeAY/AZRDwiepl0PLnegQ8Ah4Bj4BHwCPgEfAINIaAT1Qbg9oT8gh4BDwCHgGPgEfAI+ARuAwCPlG9DFr+XI+AR8Aj4BHwCHgEPAIegcYQ8IlqY1B7Qh4Bj4BHwCPgEfAIeAQ8ApdBwCeql0HLn+sR8Ah4BDwCHgGPgEfAI9AYAj5RbQxqT8gj4BHwCHgEPAIeAY+AR+AyCPhE9TJo+XM9Ah4Bj4BHwCPgEfAIeAQaQ8Anqo1B7Ql5BDwCHgGPgEfAI+AR8AhcBgGfqF4GLX+uR8Aj4BHwCHgEPAIeAY9AYwj4RLUxqD0hj4BHwCPgEfAIeAQ8Ah6ByyDgE9XLoOXP9Qh4BDwCHgGPgEfAI+ARaAwBn6g2BrUn5BHwCHgEPAIeAY+AR8AjcBkEfKJ6GbT8uR4Bj4BHwCPgEfAIeAQ8Ao0h4BPVxqD2hDwCHgGPgEfAI+AR8Ah4BC6DQHSZk2/luVmWs83Wat2CnEXH9sFOwVItbBzTKeSFyFn7aiFeNAo9K0bb/q5za7TO29ZJu9y20Wcfv03h7id6KZ9c4W+j62i+B72bvGU+7HeFYl7YlNE7C4MLL7zmwbPolXkxnZs52PaaZE9cbvTYab+NrxMn1vCH0bFtEDTHQ1lWo2/7ahD1zCaNLgeNtun49PbMBq6x85jeGTH/Gs2+06WnaZ/19zs1dI2ToGnF6NvfdW+NnuOhpGi3/3Xor4UNR7NkbxAp82PHayFeNHqaXvnvCukuf6IKWGkqJUle47hC+M5pymgtFjlt6KeLggdJccmxzmniyruhSUVOthTjBz7CBibRjQe20G4CcwPMZIW2w73QfdM8lGWPE2kRSmkgJakUp8ZttVvkNewNB7aUJvQOHePBtk3q32zeaPN3FEkkTXXLX8a71ZKoQSIFsZRk0iJwasjwfWoLnbhd1f0DD2b3bJu0eWgZffBGB6Z7ftdZytgjN52l7auTbrltk32RKksWypzPSxl6R/9O7/iHpNwUyldf77fJar4P/uxrQv9mZyZ/We/4XN1+B3JGu0m5TWNm944H4m85BmfC32Grcp0bfbP103bP/rr9Dh6gazo3m+PvivW+/ImqKQxAAZJadzE6pkQUd0wfx6oxUYW20WJrhoxD0XlWbEBnQlnmwbA488SKdyLricBR0jl8NFXA3XRg/CyiIohhgzV13EbTAofpHFzQfROlzAO/Tf4maJutmfz8DX16irrlhw7V5Hd+RniN8iQlKfB3A5UiUa1aJdBHdvRtfLhesgHwDXvoQpNq++CnzmJ02ELf4oDpvk7a1rbRZkJigY/HymIwCJXZ4JQ5Elw/rDhTNdq2hSd+U+suRsdom92BPT5Qt9+ZrGZ3xk/dclv7Rg/61JQJCbMBJiUyZc4d+McuqmiLnZutQ5vf8AP2dqwiUuc2U9Y7dKnEoIr1vvyJKgocjaT9fWk2k8bjczGv7MBkktM8iqVRKo3bUtSRWpnUS6R2MdNZGcFSQ+YwyHx0lAcLAgay03k0kaju7UnDYe40nY4EHk0UnBNaVtE1jsOsWlM8ICfyDwY5bfA+WEjjdWnSlg7G0stpPWgQILBz9G520O3mQaMJvSMVPEAfe8MGdnelaU3ynkaRoHlwkPteu53bOvKj/7rlx86QF7/D5qHfGktRT9rrSkednNu9WOomUi+TOhUncNg4dgfe6ODVq1z20zjV8TfyQxufs+QYG5zPm8Ee2bE5S9SxBYt5dch7uk1kN/kPD6XFioLDtjSIFBwk0u5cmtOB1zC7hpzYHRggtw0UwL/uYnEG2tgc+Nsgpan+Bp8He+gRe5uQ23BFbmz+CB3MFYw60nSU+93+XMGrOHeHqpNU6NPfUbA3sCfGUbEHEsW6Yx60rb8xXwML4yPnrpJ/lz9RxXFxYowYo6ITqbsQnF1nQZIcSOOOFBChYqlN4J7XxwGBgoqsyI3R8Ld1IOBQd8FpCBxmvPDRVIGm4Y8O+JvSJA8mP3yA/QH4t/JEdf9AenlUDxoELnAnYSJxgD5JGkGrCb0jFTwgP7hbotoU9nRQBG3oIS/Yu4SxAfmhjY9hc2DucO9IYVfa7ys4WnE6D/aJQXOpA28Vz6yjb8OeLYlqxTMb5xoucZaYY/7GifBjHde5F1ZwANrQwubROTYIH9BuqkAL3xtNFQSHCmYd6aCnYNCVDmfSzkSaJvlyj6DiAQpyW6yzJI1tWRd14QDeVMOb39CGH3ywibhDnLFEFXtvQm7DE7tD1kEiDYkBiYLx0M2aB3sTaaOYpKla50afLfEOfy/39fxuAntwp4IBuie/qkHvy5+oYrj9vrS+nm/5XXchYNNBTmOpz1qRtrS6Km2sSpsL6X6Nt2QIEqcNZmMjp48BYcBNFBy415M2N3PaTdCkg8JhqDaL1jQPJiedp9E+2sh/T9u5Hd6vye3QOzpmi72treWBAx9oSu/QpuMgYK2sNKt/MLcOGtmxPfgwWzDd1LElWYAOfk/lN7Op1ElH2Vo3v/O32ZHuMata44wqHQf639rK+ahD3tNtIj9yk7BZB4kO4KPuZBnaxFxiDvZHHIAu1Xg5zW/Vf5vsrENH7rV70oC4j8+j8660vsgT1apDMIkZyQo8YP8UYj72X3eBHhX8LfZAFwz422qdfBDbwABa0G5CbpOHvgabT2d5fx93lGlFaq0q22hLW73Xt/yrniPCzin4FzoAB2Qn7vK7iZhvOufOFbTp89hXMe2aekzT4g3Y0mHgNA8eFAFkrX6mCBp0FslEOmQGtS3duyc9uCc9zqRnFY+oyxJZ4GBmyRKU7e08QbK/y+fX8Rs6dB44zJMnOe066JxuE8cFe2o5WWqSB3hCfjpM5Af7yXreWbFO8UFPelbxTJrhgO7prAgUDMywOQJHE4ma8YDc4M8tfwJXk9hjc9gACcv9+7nPIz/JasWB08Q93kITnzO7g2a7L3VWpEVL2gvzlz08zKSnWZ6odo+vruaH2T18kKQ+fZrbQzWtX9wKiQK3YJEf+6Oifyr+UGcBe2QnaWCwQiFRo8JHEwXZSda4t39/W9p6LE0CaRBK26n0JJM2s3oSVegyo0bChA8gM3EHH6i7EHOgCf6WKEOb2NNUsoSvmdyPHuWy1y23tW8+F4L9JJ+U6m5I7S3pEX09kwc1LPeAviWqxDgKflbu6+v2O2iicwoTgNBmcFiD3pc/UQU0wESZgEnyUHehs8ZxOiQOmRS1pU634EFiwFVbsUSV4G0dtMmN4dbdYSOYJQeMsox2bQKXGsZxwd6CJxg0zUNZfvDv95V1O0pbLS3CUGknklZq6jyR+zT2/I39N6F3ZAd/WxdayN+Iz0EbfZu88MBv/N38oGQqlf9kMECyht9Dm+oSVfQfKiUOAE83kLip0wukqhNV7B9Z8XPoI7t1JJULfKpBaJIoWsJAsmS+X3eHSfvYHYVEFRyMdlOJKroHe9fXFHEP/VLJI4j51DrWqCI3to//4+fIbLafo1Lfv+CNzNDG5vjbaMNLE3EHXYN92ebqk/hky9gaMnfp6xNlYJF1cixM73UlqnACfQYqYA/WYA8exKO6/Q760AN76EOXCt2K9b78iepJs/J/eQQaRyBLMyVJojgOlaa4XM0zTI1L6AlehECW5frnnDQNlWVU/qppwHIRM/6YR8Aj4BG4ZQj4RPWWKcyze/sQWKQLzWZJcWeS6TSfqN4+LV6dYwYp0+lUJKxx3NFi0XbJqk9Ur46pv9Ij4BG4Owj4RPXu6NpL+p4QSOJEw9FIR0ep5nOS1Krv+b4nwTzZd0JgPp/r8PBQaZpqPF53dwpTHrCs/I3/78SOP8kj4BHwCNwqBHyieqvU5Zm9dQgUt33Ho5GGw0SzWV9puqogCFy9dfJ4hi+NAInqYDBQmi40nUZKko7S1M+qXxrIW3dB5pbOsswj463vvngEPAJXQqDqF2VciQl/kUdgGRHgVu8iTd361NlspvF4otFo6JIW/vblbiDATCq3/6n8Vv78/90Q/o5KmT9js9B8PnN6z7LULf3I1ybfUVC82B6BKyLgZ1SvCJy/zCPwNgRIVElM4oSZ1Jkmk4mGw56Gw7abTe12u35W9W0g3vLjmQobiBNl2cLZA3bhy7IjkGmxYG36XHEcKU0DZZmfRV92rXv56kHAJ6r14Opb9QiIW77jwUDDQaw4jt2MCrd/6cB8srL8BuIGKovU6X46nbiZtcFg6AYq/T43sxr4St7yw3zjJLQB6nA41M7OgZ48WdV8vulu//PGB/8Q3Y1T2bUZQufcPVss8jsnccjdE3Ttb1pfG1xJPlGtAkXfhkfgDATmcayjoyMNhon47YLZIr8NnN8CPuMiv2tpEEiLzotBCk/9M6s+HHZdorq5Wbyke2mk9YKAAHPllqiORiPt7OxoMGCwwtp0uts6X6rpdfC+EHA6Xyzcg5JxEisJY/kHJqvThk9Uq8PyjZbyxGTh3oGd8SLsGOPl9o8fZb0B1hLucGsTGWUn+cvIg4D3ZzLqzm8BL6HIXqQTCLinaFziQixgjep4PNZo1FUcN/B5yxO8+D8aQcCp3G77z0SyOp2u+CUfjYD//oi4vp616HGq6WSqcTJx/b6fC6xGJz5RrQbHM1vJ1yfGiucLLeZzpfPYfcDDJ6pnwrV0O13wyjKXqIRBoDAkUc07MT+junTqfqtADFBYpzwaddxygLde4E+4hQjka5LRNUt/0Dcz6t7fb6EqL8EycZ1lXXGc5j4+77hXEWZZzz+HcAkczzvVJ6rnIVPBfm79xXGi6VzK4rmCxGZUK2jcN3HjEciYTU1T94oaklQqs2p0Xmx9uVsI2Gw6McEnLsup+/Kt/zjOE1USVvRNMuOfo1tSvRcTEu6uyWSsoVqaz/PlPeid1xH6cnUEfKJ6dezeeiVJymw+13SeKYxjRf6W71sxW6YT3BpFp3NmU9sKw8A9BTwczt1syzLJ6mXxCHgEcgTy2TU+7hG7pR6sTfYDkztgHZmUcNdkPNFgIc1m625w4pPU6+veJ6rXx/DcFtytPp78nqbqxIm6xaj63Av8gaVCAP3TSc3nrEkmUQ3dU6HTaf5k6FIJ64XxCHgEjl+RS7LK7Br+b7f+2Xd8gsdq6RBAvzz1P5nMNYrzpR/sy2fR/YzqdRTuE9XroPeWaxldjaZTDScLrS+41cvXiN5ykT+8NAjExReJRuO2FmnPzar60fXSqNcL4hG4EAHWLJKs2m3/C0/2B281AiSk3EFLkoWmfNxliu7zN73415FdX7X+8fPrY3huC0maaoLRzmbuloBPUs+FaikP8KJ/nvKeTMaus2JG1SeqS6lqL5RH4AQCzKIt3Dt0k+P3JuczqidO838sEQK2Bn0+m2s2m/rnECrUrU9UKwTzjaaY9nc3e/Lpfx+o3kBoqXe4UbZ7mMpu/yy1uF44j4BH4BiB/NY/H3rgYSqWAZG85reBj0/yP5YNgULBXtfVKtYnqtXieXZrZKvF9719oDoboqXcW3xClaf/fQ+1lBr2QnkEzkWA2/586KH81L/1A+de5A/cXgQYiBQTU17P1arRr1GtFs8TrbnXUyWx5kniXlN04qD/wyPgEbgTCLDcI389Wcst/fBLgO6E2o8nJ+6KtF5OiUkJHp6bzVjy4V9BWJVN+ES1KiTPaIdF9POYz2f6RPUMePwuj8CdQIBEtdVqqdWyNcr+ico7oXgv5J1DwE1OzUlU5R6sYvmXX/J3fTPwier1MTy3BfdOtdlMo2nsjPbcE/0Bj4BHYGkRYDaVRJXCreDhkK8pz5dWXi+YR+CuImDPJfAgnX93bnVW4BPV6rB8oyWe+ueJ/9F0rtjfBngDH7/DI3AXEGBGNYoipWmm4XCog4OpptPZXRDdy+gRuGMI8JqqPEn1M6nVqd4nqtVh+UZLrFdhVpVKJ+WLR8AjcPcQIFGl0nHxAvjxeO7Wsd09JLzEHoElRyB/mso/O1uxmn2iWjGgvjmPgEfAI3AWArxnkQct5nOJl8H74hHwCHgEPAJvR8Anqm/H6BpnlB6aKH76J36vAae/1CNwixHgrgrv00wSElV/h+UWq/IdWc9n0plNp+SbUp/wjq340zwCdx0B/x7VOi0gIDjlwSp0W+D2gapOyH3bHgGPgEfgJiBgD9H5L9LdBG14Hm4zAss/o8ob9nnhOtMYi0W+rVtj0MqnTdyL3klNWa+a8UCVHauLB2Q0OdlSjCZYhA2MTaAL5sYH9JsoyAfN09Xkb4IHaBh9MLAKb2aLhk0cV6sPo2tbk5upnCb0fpbsxkMT2Jvchi9/Qx/Z65YfOkbf6GYtqVXsT1MFTv/Eo8JOuabKYjyYH/B3U7dwjDayQ5PKPir81FkMb+MBeka7Sfmxu6yIe4uFiLQRryVjkoJjSWGPQcV4mKxmf8hsmNSJO22fpm08sL8JvzMewLdsc3XLbe0jp8ns9F/Eeefrhb6zMPeBqueozK+MB3gyXvhtx43XOrbQQ262ZgvQrTjeLn+iCniDgdRuS+Ox1O/Xoa6TbU4mjlZweKgWC9Jmc013dzX44kvN+ivSSo08YDRUZD48zA2Gv0ej/HcTgXt3N6fNy+SiKOflJEL1/QX2Bf5O3/CAzODRVEH+g4McA3QwWpF7sd6sKx0NpJ2BtLIidTo5b1XxhZ739/OK3VGhgQ6a0DtyEKT29nJfA4NvvmkOe3x9Z0c6OpJ4HRR4dLu579ctv8UZYgyxhhqi37aC3aFa47HC2UxBMFEwiHM+v/qqKs3n7Uynuc1h/9jB11/nuq+WytmtMejCx5CfAt7YH39X3Gm9wQDYIzO+ToeJDYIFMa+pguzY+2CkLNtTFmVqT8ZajSL15nNFu7sKVxIFvUhqVTxZgNy88wyZwQLswYG/6y74GDTRMxiU8YePuv0O+cCdCi3iHXg0VcAY2fcHufzY4XwmzYnFB9LXz6VWoIx3KNfBE7ZOvCPmWsyzvr5uv0Me62/AAN2TX0G3Yr0vf6JqAdQ6LQy57kKAnk4VHB25zuk4Ue1Fmq2uStS6CnJSLVBjMPDT6+XGU7EBnSkGjkOCBtYYL7SbKgQp5GULBvBAIG2SB+Q3DNgOUzdYcXwRzElkSaAILFXqg6BF+9ZpETxImKqmc5EuLVElYGMDL140hz22Bk0wwAewg6bkhzYyY3MMDKJIgfIa7s1dotqazRRmE2k4zRNVEskqC/LSYcMHHYjJXiWN89oqJ4t2DvaH/dfdYYI9shPr+Y0N0llDu6li9j4kUaFbjdUeT7XaitSdzdXa3VPYmUhtZtkrTlmQG/omPzIT/5pI1PEzMIcePPA3fBCDiG1VxrfzdAktS1Q5pwm5jRfra/bx63GOgduXOp4yfBx9Vz04Mfpm68Q8/Aza9HU1JItG8sQWulRiDTZAf1sD7eVPVOmkSQqYwUKB/K67oLAwVBJFGi0WGsSx7nG3r91W1utLa2v1cUCgoGIsBBC2JMaMdJoKHHRaYADWRrs+iU+2XCQJTm6OvA8ekN8CBvRx3qglLbDFTq4LcMEOqgzkBC10Dn30DQ1oN52okiAQuJrGHtnBnQ4T+W3WuokZZWibfyF7FClTpIVaSjrSPJhonmXuNvCi1VJGLKo6DpjPIa+1j+6bKNgc8hNvKPwGf6rtq4sPaCOzJWr4gdGui+bpdpGXhGm+yHUbrCjs9dTqdDQPAu3Hc21lPd3rdRURA6os2DwYo3/skGLxpUo6Z7VliSr4gzt/gz30zR/Ouq7KfdBlgEiBdtV+dRGvYI6PjTOpkyjodNTudtXtZ2qtrihYX8t1U/Xg5DRP5n/IT+xrKuajb/yOfgadE/OxRXRfYVn+RBXQrMNEiQTwugtOE4aKOx0N04WO4rmmgZS2O8rgYWOjPg4wHCpyE7TY4rhNBsBEUicAACAASURBVA6chmQBrNfX8+BRn8QnWy6ShGNHwWmb5gH5CWDITz2RqBbJOzrBDqp0aPSOzgkc6Bu5He2Gb/3bbF7T2BvuzORZh4XvYxNV4nzS4vK/oE2BDpi320oVKc1CJd1U8zDUnDnWIHAD2BRsqo4DxB3aRV5rv6lEFZujEG8o4ICNU21ffqT6fy3ekLBh/yQu2D+0myrIywBtxt2bvrJoVUG/p7DT1TQItJsk2iZ/7K+ov7ZSLVfEGjAmWTQ7tPhSLaU3WyPmQBPa1vdAm9gDJtS6C3SZRTWbq9qvLuLf7qCMMqkbK+zM1e711F1I0dqago1NBa1AQVgzDjZYAXtsH3uo2+/ABX+DNjEP2sQd6Fas97uRqAIiAKJAOrC6C50D3/jtdJQGoRjjpq1IGSNp1qfixHUVS1YI1jbas6BdgwGdKQbOS4JgmGPATRWT0Ub3JIomf1M8ID+BEwyoHW6/szatJXXAZZHzZMG8Kr7QPUHDZhSRG/p0Ik0ELeSAB/ROsgTtJrEnWQL3sr+jf3ipW35oIzt2B31kz1rKspbSXpz7P+vUOm2FvbYCcKk6DmBfpm/kxu/QfROlnCRagmIyNoE9NCxRKyeqFXeY50KJ7sF8Mpf62NxKoYuWkjBwE27TVktpHfEf+0ZmZLVE1bA/l+GKDpCoQBPa+AB/2yARnTSBP3TBntKU3Aaf+VefWcWJMr5A5/p8+v+u5GZUa7z1Dx/gT9zD/5Efv+d33X4HbfyeiQHwhza6h3bFem8oiplW38MWZVnHZQ5UNxsoCYd1nUZhMO0o/5uHqepM3KBrwQPjQX5LGPndhPFakmbGW6e85+myjIE573nnVr3f5MfuqO3i9jsOTNKKPswWq3RoOkuSVOibztFB04mq0XwfiSqzWmButseWv+u2ezpLOgzze2iK8Mpt+Kky/D+K3Axbqx8qMP1XaXvIWE5UsXuSmCYKg2JLVLBpeEFGeMDu6yx0lhRoogNLVKseCFwkA3TBnrtm2Fy37yYqeIgmCQLNgkBzkpg64j/4mtzoAPzrsK+z5Lc4yzFsgL+NNvqoMr6dRZ99NjHSpNzGCzISd7v5+sys1VKcZZrzVUqW+q2uugepalujarhjc9iB+VxTMd/unFp/Y/5esd6XP1EFMIyJgE11HYhZWU1bAie0MBzoGw/8TYdVJw8ECqrRL8sOff6uu+Ak0HLyNoQ5MtFBITf03xcP8FGmbZibHZzGhf1VFfRutNmChdUm9I4cBG1oQ69p/UO/LD+/8TVqE/JDzyq4W6LK+mToh6HCqKVWu6WQAUvVcYAkBfrQMtkdH1UZ2AXt4Hsmu9k6tJERO6izmN+TrFHsb+hX6V8XyQAt59u53WfR6/ifhaHSMFDK2mTD5KK2LnsMuWkX/JEdmU3/l23rsudD2+hBk8IWfgqbv2yTlz7fsIePOvC9iCHzOWTmgakgUJplWnBHFfkdb/hjTT5gtg5983toOn5qolnGw+iwha6Tt/o8o4GspSyV/+0R8Ah4BO4aAvlgxD7+kX+pqMIByl2D8xbJi65Pvvj/FjHvWb0cArxClf9IUot6uQb82ech4BPV85Dx+z0C10TABSs+9KDMdVZh2HJfKrtms/7yW4hAOUnNE9VbKIRn+VIIMMF3Uu90t36AcikQb9vJxbccmOj0pToEfKJaHZa+JY/ACQTSNFWcJMrSTO1OW/1+TxG3SHy5UwiQrLRaLTdYCYI8WfHJ6p0yAS+sR8AjcA0EfK95DfDedilj5+MRtR9Jvw2upTvuEtU4Ftt21FbQ6olZVX9baOlUfaFAxABu/+bffGcZYX5r8MKL/MElQ8DPpC6ZQr04DSLgE9UawW6FoXqdrvrdrvvmc42kfNM3EIEkSTSZTDSdtl1yQsLCvul06rYkLH5m7QYqrmKWLFGl2TiONZtlWvDgmy9LiQD65rY/t/m9fy+lir1QDSPgE9UaAed2X6/T0UrHJ6o1wnxjmz5OVGedPFENSVTj40T1xjLuGasUgTcT1cQNVCol4hu7YQjkSWqetPrZ1BumHM/OLUPAJ6o1KoxbvvMk0SxJlGZpMbr2QatGyG9U06ynZ9ZU+f8KxExa6mbTsA1f7g4CJCzYwmw202QSa7EoXqV0dyC4U5Lmg5N8yUeerN4p8b2wHoFKEfCJaqVwnmxskaWacasvnmuRWqJ68hz/1x1BoFiXmKaL49v+d0TyOy9mnrSELlGdz+duRj2OfaK6nIZRnkm1dcl+cmI5de2lagoB/9R/nUgX71VLFgtNpzONRiO3Rq1Okr7tm4uAm1zFJvzDNDdXSRVyVn6nojWL7tPUv7vG8Fi+bXH7pHifJndO3F2V5RPUS+QRaAwBn6jWCTXv0XMf60k1Go90eHik2WxaJ0XftkfAI3BTECgGJW7tR/kNIPmTNjeFS89HxQgwQCFB5e4JD83lA9OKifjmPAJ3CAGfqNatbD6pxvs05zxEM5G/5Vc34L59j8DNQMBmVJlBzWfW8nXJfs3izdBPXVy8nkFljWr+kY/85f91UfTt3ggEmJUqBqF+LFqtRvwa1WrxPLc1HqbiQZrXQezcU/0Bj4BHYBkQKC3zIFH1/r8MSn13Gfi4R7fbUbudf+yBK30C8+743bYzA/c6svzd6fmryW6bBDeXXz+j2oBu3NPfKS/59olqA3DfGBL5ALtY/+F7qBujlyYZwffz28D4vvf/JrF/37R4PWGn03UfemAJANWvT37fWqmHPn7Ow9M8hxC2Wmq3I/EVOpuY8p9UvR7ufkb1evj5qz0C5yIQhKH7dGbL3f6zlYrnnu4PeAQ8AkuDAJ/NDV3CkiRjDQY8TLvmX0u2NPo9KQiDkMls7l5F2e50tLbWVrvdLpb8MB9IKuvf/nAStXf/y8+ovjtWVz7Tm+eVobvVF9prifJPZ3oruNXK9Mx7BC6BADdQWJ8aRW03kzocDjQej5Uk/otkl4Dx1pyaLFJN5nmiGrXbWllZcQMVPvrCkh9froeAT1Svh9+FV7NmpRWECoPQf0rvQqSW82AYBGKdWiuKnA0sp5ReKo+AR+AiBPhsLkkqn05m5s2X5UOA96TzzvRpHLt3ppOcDocj7ezsaDweHS8BWD7Jm5HIJ6o14uxm1IJArdC+/VwjMd/0jUOAW/8kqlErf/L3xjHoGfIIeARqR4BZtfF44hJVXlnly/IhsEgX7sM+0/lcvDeddem8N313d1ej0dj9vXxSNyeRX6NaA9YEpvmEV1HFakeR+t2uS1ZqIOWbvMEIEKz4EhF2kGaZwpAZVhbat93a1RvMumfNI+ARqAiB/D2qPEzLOkVflhWBXL25jtF1kvBKyqnbLqvMTcnlZ1RrQDpmBD2ZaH6cqPYUtfyYoAaob3ST3OazRDVLU/f0LzOsnU7HJ6o3WnOeOY+AR8AjcB0ESFTz+E8/4Acp18FS8tnT9fA78+p5kmg4HrtklQQlCkP/Ar0zkVrunQSn41cT8dSne6+m/4Tqcmv9pHT2irL8Jf9+rfpJdJbvr3wmLdFsNne+zyuqqP7tdMun64skYnaV19ER/32SehFS73bMJ6rvhtOlzorncw2GQ43G43zxvH/g+1L4LeXJxcvfWaPG0hACmC93A4HXb3/wgWDZNc4SH5b6TNKJ83Hep5knql73y657L199CPhEtQZs3ROApbWJPP1vr1DzI+saAL81TeYzrP5W0K1R2PUZDXiQ8mS9fqO+hZuKAHfQZrOZRtnQJay89B39++IR8AhcHQGfqF4du7dfSQflPptHopp3VscZ69uv9mcsEQJ8953PlvBlGm4F+dtBS6Tc80TB7bN81U+erPiE5TyolmU/d0qmk6kGcabZzEX/ZRHNy+EReG8I3J1EtcknLku0bDbFPQv4+p96FZ4vkHlNw/ix7esjd+PXe5L7RFpSWp/a+LqlJuWHVpP03mbB74Mfo1k85J3/mf/BS+DzW8E1PMf6PnE/i/ZZ+96mr6seb5LWBTxy658HKMeTVHHcVpZR78gA9X3poEy3/PsCPVV26A16+aso80n0oN5YaLTZ2u/KBLtZDS1/olpWYMMKtdlUklWWAySLRClfqSjzVLU9lNs+63d5X9W0rT2jwdaqHatza7RsW6bFvqaK0c+yfMVHmXbpWOXYnNW20bZt3RgYndO81E2X9o1m+bftM77q4sPaL2+ZOWcGPU3dWnXiQK/X09pq5F5RVkscOEW/FhqXwRB+jKfLXHeZc639Mq3y78u0ddVzj3mggZOxJl0sFMczJXHsbKFyPM6S9ax9V5XtoutO0zEcHAwN6N54O03X9je4xb/5yAtfIgwzlnwUpmAYlXmsgq+z2i3vq5reWTyfplf++6zzr7hv+RNVgAE8Hl6hNvFlEGhAi0SlsFaCFYEqTZJ6eYC20YAH6LPP5G7CeA1rw9toX9FI3/kyZDNZ3xcPMAsP0Ef/RbLKLWCSFmUlO+S8KvVhdE12wwIbaLXeGcZrnWg8mM8ZD9dq9B0vPo82++suJqfZvNOBlC0ypcnCVfqtbqejfj9SmzeBVM3XWfJDp4litJEbezsdd+rkoYw99MtxAD6aKCa/8++w6G/yRI2XwYsXwc/n9cR/o+1srsCf3+yvuxj2ZR5sH9hXGd/OkwV60Cnr/bxzq95vsjrsi7sm9pEf/jQ9cF7VvliWGToUo9eU3UMPPowuclLYV2FZ/kSVpG0wkNptaTzOf1cI4FlNZa9eSQcH0nAoTSZKJ7Fm2VSBEsUce/78rMuq2YehYDTIfHiYOwdGg+w4StXOchbXu7s57fk8x300Ouus6vch52SSy4q8/J7Ncpmb4oFY8eqV0t1dhcOhVpJEK2mqlnvp/1QajnLb2NnJ7aBKfaD3/f0c+ziWqJ2OFEXN6B2NGg9gf3QkvXwpNYU9vr63l9s+uMJLr5fbYJU4n2W5YI2/IyuxhpqGUhJIeyNpNFTGW0DigZL92NlI5XHAMJ9Ocxt78SLX/Vn8Vr0PXyfm4HfWSbIPnuoeJIG9+TrxjziA35d5qVre0+1h68Rb9D8OFQwDZYOe0mFPYThRFM3UGg4VEP/7vdNXX+9v9A1dMLBEAdsH/7oL9KhgjfzQpYA/dlC330HLYh6/8XfsoakC5uOx4t1dHe3u6Gh/omRUfDp9MFG2l0krfUaoeUyoki/snAruYGB+hi3w2/6ukubptoi35DrggO77/VznFev97iSq1ml1u6ehrv7vV6+UHRwoGw6VTWOl01izeawsmSp59VJ6vlU9TWsROakYDh0nwQLHpRPBeKwTsfPr2BK0qQRQHIng0USxDoogSYU++iaQ4kANlXRvzwWugER1sXCJapTEiuNCJwSWuhJV9IzekZ1KwoTeKw4c50KJ7RE0sT9LVJvSP3omaEIXPrB75G8iUbfOGsyhR02U1/25gtHEJapJeKS4O1X6soYBKzaPbcEDOGD7TXRWGAODBJIVaFuM4Te2WLftQRvZ0Td6Jw7AC75gvJxrsBUdKBK1YARdJgokHcXKRgsFrYla3Zlag4GCVztSu+Ju1wYEbLFDZOY3PNVdwBua4E+CxN9mC/DRBP7YGHZPwdaIPU0V5J7NNN/Z0WB3V4ODmZJ5V2HUVjCYSrszZS5JbVU/aMTOqeBu/Tt6rylZPBNS6BJvibPQJuagg4r1XrHHnCnK+91JoF5Zke7dy7dNJCyzmYLDQwUrsYIuyQIzTVLa7ihbX5cePKgPEwscGK8ZDLKvrr7+uz7qecvQJViRoNy/n+NeN01rnyBFJUjjPMYD8jdUFkmieDRS3Osp6fW06PWUMbMZdHMssIGtrdwOwKqqgu5JkAgS2Dx0oIsPVEnnIn7hAfzpOMC8Sf1jcwRuEpaNjdznCZxNJKrQhpbZHba3CPIZ1Y2R1Mf/20qzluatlhbra9XHARJD6NN5oPvt7eo7x/N0D+bYGvQtQVlbk6h12x60kZ2kgaSJgu1Bu6kC5vAwifM3PYhZ1Z7CQV9htKKwu6pgc1MB/lB1/EduG5ya/MR8fKDuAj0qPk+cwf83N3PaZgd184B/YwPQI65Cv6lS+Fy2NlDcbisOE+fnQa8vrUXSZu+1zuGzykKsoxB3KPiZ5TlNxXzowAc8gDv9LfvQRYWlYuQq5KyqpjAOSw7ZNhC8ApyGGY21ucRkYgeDCvJbPjjSs2dVSfdmOxY4SBQwXCqBEdmbNF4wIFl6/Din/San1e+x0SVB2yodFjw0EbQLiVLeoXt0pLjf17zfV9LvK8OBo55EgkIwefgwt4MqO3F0T4JEQd/YmqPb8K1/sGfGmMDVpP6xOWyAjtsSAgamJFBV4lzo+cTGfJ6EhaANTW79k6x+cyStpUq7XS0WkWadjhJsoOo4wOCU2Q1iD7p/+vS1PZxgtoY/wBxbQ/cUOipkxAaIO3UWZnKQnWQJH8AGoIvPV9xhnisGmJOkT+ZS1HKzpuG4q9awo1a0rlZ3QyE6wR+q1rsNDKGPHSIzgxRq3QW8oYne6Wv5m/4GWeGjbr9DPnwNG4Deo0fNyG24YnfDodJvjrTo9rRoJ8raPQX0fZtS8KDgqQ5fxM4p+B2/8bNyX1+330Gb/gbaxFlo09+i84r1vvyJKoDhQHQeVJRad4EOCoSuJYchs1oEsE69PBAoqIz04AH5TW7jpW75CRzIDn2jXTdN2sdhmNkicBK4oE9F503ovZCR2dM0ipS2Wq5m4N4KFWSRwnZHrV5PgeFSpUOjd7BHZrbQoPJ3lXQu0iUzKtBGZuianBddU9UxZDTbM/nRO7/rlt9oQ6ugnS0CUcEhoEaRsixU6s4t7LIq2WkH/Zuu2SI72yYKSQJyQ4/fVNM9tlBngRZ+j+3ZrLrR5lgTpfCzNAg1S1ON5nMF7VWtkTBrT2FYxCLjq0qekJt2kf009lXSOastaKJfYi765+/C/p3P1e138FRgf8LmzuK1jn34HH1N1FbWCpWFgTKFOSYRPtF67Qd1+CJ9HvKDucUg/rbcow6Zy22az5vOoY09VKz3Cu87lrn3vz0CHoGTCPDaksC9QzOKIvcKE//S/5MILdtffOTBdPz6m+8NJU7LBuYtkYdPJI9GIx3wjELGpPI9raysiC9UmS3cElE8mx6BG4OAT1RvjCo8I0uHQPE1Mt6tx2vKyjV/CXjqvge+dHJ7gRwCSZxoMpkUn9IMFEUtl7B4eJYXAb485z6hOhq5xJT35vJezfl85j4EQCLri0fAI3A5BJb/1v/l8PBnewQqQ4C5M2bSQmrIrf/AdV6LxcIlqGzLyWtlhH1DNwKB6XSqvf2BRiMe/8cWmEn3M6o3Qjk1McEsOn7N16k6nTwpxQ6YYR0M1pRwa9wXj4BH4FIILP+MavFddfd1kCRxAYRAcroww+VvzZxGxf99FQRstpQ1UySqdqufB+rsGDZI9TZ3FYRvxzWz+UyDwZGbVUXP+adTfaJ6O7R3RS6zPFElIc0/lczyzVjD4cjZQZK82fdckZK/7IYi4CcfqlfM0s+o8u1lXhc0n041ThJNh0NtbGxofX3dzXIBKQGFSnGfP6t4IXD1avMt3mQE4iTRZDp1n83tdLvq9npqRS1lc775vXCzKiSpeUdW7Rc8bjIud403vkS2WBBbfHJ613Tv5b1bCDCTTq5BNA9boftEchgWHz+4W1DUIu1SJ6oYzSJNNZvPNR6NtJ8kOiwSUha4WyFpYNRL6XQ6xwmsHb/stpx60EXZg6e2vWx7/vzbhUCyWGg6m7nA1e52RbLa4o0PBLPiu++WpPoZ1dul28tw62bP3YDEP0hzGdyW6Vwf85dJm+fLwoNzrE9mG4Z2F41lHj5ZPR+1dz+ytIlqvFi4BHVwdKS9xUI7r17pxWCgnclEv/mbv+mS0XbxuojBYKDd3V13a+7DDz/Uw4cP3drBd4fx5JlZmopkhWSENWlRK1KrlTma3BbwZckRKJaRkKjYbaDj0cqSi+7F8wjcdQTyyQkengSJPN77sL/cVpGkC43nM1dbbZJT0/9yy92UdEubqCa8yy6OtTMY6NdHR/r1bKbPX77Ui4MDlzDev39fPJFJ+eabb/Tpp5+66XpmWh/w4lo3E3q1pJJbANz+dYlqEKrNOsXWwieqDtXl/4cZdbsNRG/lByfLr3MvoUfgGIHjrPT1mz6Oj/kfS4kAS3wms7mrvV7+kKwNUpZS4IaFWtpEFRx5LVAnirQaRbrf72vRbmvl/n33QNVPfvIT9yALi9739/ddsrq1taXvf//77vUizLbyEMxVCksNDgcDjScTdaKu1lYijRS4l8C3Wsv//NpVMLsJ1zCwwB5sJtTWK7O9anGzK8W8Sj67GvoBy1XBvGXXYUs88Z0kbafz1w/V3TJBPLvvjACxg2VkvKKKeMIryfL4cbVJj3cm7E98rwjYO5OZoPClegSulolVz0flLZKkRkGgfqejrfV1tVZWtBWGGmeZPv/8c/3nf/6nhsOhxuOx60zoUL797W9rb2/PPZ0JQ1dNVFmfuHd4qJFLVFe1udrV0SLTLOKl71dPeioHyTd4AgHWKvNaGRIMe1q/suTC9VO5/v3T3ydgX9o/sKP8Par52x8Y/Hr/X1p1O8FIVIgh6J0HJ4kfub8vt9xeOo9AnQi8kai6BwC4bT4auSTu5cuXbraRp+SfPHly/KUNHjqicD5OSbVz+/2+tre3tbm5qdXVVXfrk/fIUWmXBJFb79xiX1tbc1/usKSQ0ejR0ZEODw/dTCeznXYuT+tza55zuF3PMUatlMePH7tqicXxbCqfq9zc1MrWlhb9vuJ22/FMMIEOiSrb/EsimdvSNutUkeMqhfWpjKjhs0/C7D4hmD9Iw4LrZSrgD5bIik1Qb/LcAckDgxEqv6nYF/pGZ8+fP3e2jL1jb9ivrWV+V72BCUkvSUmv33d2FEUkKa+XAeA35Sf//fKAd0W3uvPA33TAltiBri3BZB8xoNvtvl5rfAny8zh28W42Y1YtcG1Dw7/4/xIg3rJT8Ws+9MDEB/ZzvEb9RkfFWwbyW9gtx1bwJw7b9i2XXvkw+QZ3S6k+ll8ZxnMvPJGoomAqScfOzo6+/vpr/eu//qv+5V/+Rd/5znf0V3/1V+5BpKdPn7qEhFbplEnySFL/7d/+Tf/8z//sOv0//uM/1g9/+EN98MEHrgP41a9+pV/84hf69a9/7erv/d7v6U/+5E/00UcfHSeYtEfS88UXX+iXv/ylPv74Y1d/93d/V3/6p3+q733ve3r27JlLYv/93//dHYNXyl/8xV/oL//yL13iS2fTCkN1WRva66m/uanFw4fK1taUrqy45IOHpkiaSbCR85NPPnFyk7R+9tlnrlOxtaqOwCX+cY5SvPIqC3htRao4TjRLEhe8LtHUjT+VYMzAgwfS+Fwg2N/kRBX7Yj3yT3/6U6d7Biq/8zu/oz//8z93f//85z93A6BvfetbznYJcgymLlPwCdYot6JI67wKbbrhkh0m0y2IgRu2e9kk+DJ8+HPPR8DiHIMTbIJKUoquSTIYrLJ99OiRG3RjB8yMXabE87mGo6Fms65b/IGuGci1251Lt3UZuv7c94eAs6skv/XPO1Pxd/P598fV3aKMDsyn84Ehg8OoVl2gYyakeB7Ff9Sjens7kaha83S0JHAkoCRt//Ef/+FmHr/73e+KJJXZUozBDIKkls7/Zz/7mUsAWOf5G7/xGy6J5Rw6ZRLAFy9euPZIWGmDBIFjnGOFv0kgrU1u0TO79du//dvH51pHAm/wSgdCosRva4sRDp1LxJP9PDRFsrG+7iodEkkonRSVBAtDfvXqlUu6kIWZNNasWqBhVoVqnRV0rNqIzWRgP3LAT8Dt/iCQexNAlu+z827r1uQj0SJJ/eqrr9xAhU6dmcnWzo6C3V1FcaxoY8M5sOFY3hputg88+F1FcbrBHphxRxdx7BJDZupJQlj+gR1RmTmFd+yOARK2yoN22Aiza5ct3P5D/yoSE2c37vOZ6fHD/4ah47Nk/5eldRPORwaKk4WZZOz+JjB2Bg/4JLqhI8PfqTazjh0wu45N/+///q+LgRwjuSRmUC9THJ2ZLSXhE6qRut2eer2u68w4jr3jB77UiwB6JF5ZxVbRJ4MHuyOInvFV9qGrK+mFfqF4f675Rb2S1dN6mXd+4zdUMLG4DeWb6Of4FToljvObSr+NTm2wiAwmD3dpL+vbZ6F+E7E4i88q95ltBMR83nJTZeOltk4kqpYkoFRTKB02sww4MQrH0VEwDPKbGSlulzIThWGQVDKL+oMf/MDNwnItySD77RY+CTAJL7OjJKy0bQUDgibLBqyS/DDDxZZAgsGRSNIeBgYNliVY4DE5rM3TW67nHGTkGmRhH4kvyTaJF8fghf3gAW2WF5hBcw3BDyw4h2qFffbUf9QK3QNdzPBqCT5KYoZJgmcPoYEZyT06oLYPDxXu7WmV5R9BoJXp1OEJRmBKNfsCW/62LRi+TX+G80XbBfopElQxaxYEzj4ZAGGz8GK390lQf/zjHzt5/u///s8dw7bNBi6ic9YxMMJXsANXSeRej8XOuuTW7jN7MFmzJFFEx1Bj0LoqWKYX9E8M4oHK//qv/3L6JgYRTxiwMJj57//+bzeIQY/4PIMW4tJ1bBMbX1npa2Vl7rp4fMj84Koy+eveDQESF+IVuqViC/RB6Jw7eNzpoy8ixtPvMGgp90vvRoWzAgVhfhv4Orby7vSqPxNsypV+joEdvgAmVGQjbucSV8/DdVqET3TMnVLiPRV54Be9omfyCGTC/7hbTH5xnUL7vBKTPqe1ZMv7LsKFtythH8FioTYY1xT3X2dXBTdmgCiVymiDmUWCNQaAcumU+E3At2QFRych5VwSUBSP01MQhCCNUWAo7KdDoPI3x8oFunlQX3GBhCSRc23mEx5JNOCJ/SRHdCRu5upUW+V27Tdtl2nCF3IiF4kKMyok39CgchzZaN8SdXNerkEGkh4KvDmcSOhRXthSwK2+G9t49AAAIABJREFUKySq1vmbLoz/97lFNjAoz5AzO0kFI2o0HCrY39c69tDva3U2cxiCudkXuqOyD/nAmESALZizz+zM9MW1VMPZtuzjXJs9VZq6F+6TgCYsDen1NB4M3KwvM2gkCOjLeDBZeJcuM/MMfJDTtVma7SQYGX1o87fx4H4U/7AfXux6O698zrL8RjbkNH+IZzP1qMy+MJuNXgoskdnwQ7/8dlgVuLKvroI+4dESFu7u4OsMsPF97AG/p4MjiWUpELGOWEXF9+ngyjJcllfsmHaYUUVueAEDbN5wuWybN/F80+mC5GY6VVjy6ab5JVZR6adIXFiihp+bzXIMO+BOComr9W/EoislqkFu4+jTdMo2vx3MvqYRuDw982mwAQ/sFN8gbtrso8Vp7lZl87mC0UjRaJQPUGczBVTifRHfzd/fxo3ZDueV8bvoOrvGxSCWocWxu1OCj6Nz+nKOoXP6apvwoq+iD2DSCx+HR3z0KiW/i8b701N1Sn3GVdq6KdcYrmzRBVtwJJaaPnmz0Xg4VDsItMZzKtzhvkayio6o1r7ZwBuJKiDBkBkoimQ9J0ki+1EujHIcA2AWkhELBSPgPBuxGOCci9GwThUDJ5FlJEsggKFywTlIJmiXAm2SUEtqYBywSChIMKwtHMiEKrf3Lr8xTq4nULFuFv4JbAQwS5JwVOjBP44LDsjF37/1W7+lH/3oR8fnMps6HI+1mOevx+q1e2oz45ovp30XlpyyCAxUgib1NFbv1FDFJ8EPHTmzzgR3bADefv/3f9/pnoHK7OVLTXhQKU21s7urF4eHblBjtoMdoU8wtw6D5JAAAvY2MAJzkk2b4bAEFp2AhQ0k+O30QXAcjxUyy7+zo88//VRT3t7ALGqW6csvv3S8YzPoDJpUZIIWHRh2ig3SJksEOA6/VrExszP8gMK51LtYwAV/xCewi6ODA93b29M9Zgvnc4U8VBiGDmPwMp3hN1T2Ufl9VjyoClN0zAN0JCqWsGBHf/RHf+TiFrGLmMJxzsVGOI6usXXiGnKa7ZkNXIU/987FSf4QJ3aDLyxLcfbAYJavAM5mOtjd1fq9e8cz0o3Jic9KzqeJUVaxUWyVwpZ+hn34P+cQb7BHYg6+f6Vy6u4JOs7tPrenK7XZ4EXEZGIguBADiYls6RNJ6sCFLXVOonJ0pA4PpbZaWl9ZUXs6VWc8VqfXc5+P5oFSYr3500WigD208S/zNfC7yN/oZ3hwcW9/X1/t7OhFHDtfRpfQpW+mr6aPYHIN/+c3baJn+n2qyXYRrYt4X7ZjxDt0gT2ACb+xAfIgBtzUl599pheffKKtR4/0HZZO8fApE09XSPiJHegFv8wH9D1nA+B6bqIKUygVRZMs0onQEEEcAdhiwKzlogPgmCWqJBzl0SjECQKcy/pVXgN1UaJK4ssMLQ7BubRHMoThUqBPp0JlH8kNwf6qBmadJzOzzKywdOEf//Ef9T//8z+OHu0y00Iig5z8xgkwfvCBNg+FAS5O5Z72JWGat9WNInXaXbXdGkXXnPuHdqgUttAo849x2C1KOknwPH2OtWbtuLaKGSxGuqwbcS+ch065lkar1sbbtsYvPJl+GHige9YPEwzAgXooaW800gHrhPb3tTceu0DHudgVlaAAdtgRbWIPrIFG38zGE0AYsOAYtqQAfNE3+rLEBnrso40h9jCdqjWZ6KuXL/U/n37qRtd9EtUkcZ0S55GE8HUy7JWKbOgS/ZLMQhf9krRge9gb+uA863T4m/3sgxf2nyhnTp0wnXILplROCHLyD+SlsKWiSwILwQu8Xr54odlwKI1G6rLEgte/zefOVzkXO0aP6A2fBkOq6dFwLNMxv7DtSY7yv+z8Yzsv9OV8oFhzT2fL4NMG18QiBizYGtUe9oRPbAQbxQ6IXdgk++HBeDyLj3fZh+1MJlOHGXLD+0WyvUubTZwDn/BOfaOADTPn9A10NjyQhh+ORnrywQcullufYLLa9o22rrKjsEu7lE9nM6OLLzOgxq/RP/6P/qCNvVLwX2IKdkyfhl1iG1ct9k5NW+8DPdonTlUq81UZfMt1JIv02cRrlnTRb+MzYEP/SL9Mn0TlTtX+zo57u81HvD2Fvng6dXWVN/oUz3ogu8VJw4Ct/YYlfuNj9Alghr2A2+nzTrPPLffRbKYXOzv66YsX+ryYUEKP9CdU5MGX8X9kItbTPrSwA5tso0+C1+uW1+H/1Kjlug03cL3FUnRBjoU9oA/8g2Uy+JEl9Z99/rk++d//1beYnX7yRB3uLKPXwsfQHe2VY9xpnSOSnYN/kl9hY6YH5z9luTmZTgOlsiUgYSgwxTEYpxECN0zzN4qFMH8zKrEHrjASrkdIiGMMBAue3Oc8jJy2rdA+52I4GBE0SCZIAJlRxcg5Dk3ao8InbZBsQK8MgLV7mS2A0A5JEzOEdF4kSowskYXj8IDMFJIbOmgSWvgiuFEXYEeimEUiaHGd65wXeTKNjFxHBTfkgC6YgDVycA7t8uYDEkHefIDyaKssJ3yZ3uDtFaPf588VjkZanc+1TifMWtwocjOcdDE4KJV2uJY2LYjyN8Vo0D4V/WGg6IUK/iSQrEW25BIdUTfjWA/mc02RY31dh0nirgdH2qVCD92BL0ECuuBgjsBxMKViN+BH4TzjEcxs9pWgSl1huUoQuOD56uVLLWgH+Tc39Yd/+IdOt/AM1pb40h54oG8KfJGEIyeYIje0qNga54EJvsC1JLPYDDwbjmCqYqaVV5bwN+ZuSRrnGbaO6C35h8Blo2p+oztwwj7oCEbDofoMcElUHz1S7z//U1mn43QLlugeLEjQqPgSW2yI2ICNU8y38AP24RdlfA0uswfaTohJBwea7+6KRCUhPqytqb2yom+KhAVdoj8ST5JRBqWmW3wXO8DmoIl+GDBjV/DDtswLcpifwI/zHJJOGxQak7d4C75gi28Sq1gqwZp09uHr5s8h6xdZZsPM9cGBdvkCIDpbXdVgPHa6w+doj+tIeKxfAR7D0TC1v8vQma7L+9x5NngiFrLsZzLRx7/6lT7+6iuXNKM7/Bad43/Gs7UDTWyLmTbiD8e5BtuDV469c3FzAiT0r+MU176mefMHqiT3JHPYPncT8Gt8gz7I+i3sgeM93lO+va12mmpvONT+YKBof1/hF1+4/gY/5LY6fYXFPHwMP0InVGyBmMtxaJMQoydiKsf4jR4MR9uSo2CHL3Z39dmvf+2Wn309GCgJQxdLiCf0D9gd56JT2sQO6IuwZ2wK/ZOI4+/EIviDH/abPXKe0XU/in/MJt3xQO71VPBKG2HI3aLXD3iXr7vJv7F7+ncGKLwdh7iHPGDNb2zA4vf08FCT/X0NDg/12RdfaOP+fW0/eOByNiYQibX0E1RiPXqnLXRtOPEbe4Iu9kalfXRP7sfyzteZYvGqKUtUCdYoDoVBACWzDyYxJJTMuQQbCoLxm0SVDoDgj/I4h2N0ZAQB2uQ4xgODVjgXIGDWElXeCkB7JALwQVscdx3iaOSEQ1iM3QKQtXeVLfxgmNYmCSIOyyiMDhklEXCQky0dNskKCSVrNMGHJBw+cVA3m5ORr+Rr0/pZntSjFBySBAyHAVNkMFlpm1tRPOjx93//965dMGM/vMEjxTADN/RD/eWvfqX//slPFM3netDt6tkHH+jbm5vaWlnRLI7dYm+MhbasmFPaPud0RXBFXy4YvHjh+CE40dmjvz/7sz9zSTTOz99cT3VrElm7tLKi7NkzjcLQ6R9jxUjRFW1SMUraBA+wwE7AFPvCWLEjfmND4EYFZzDmOIkGBo1NOr7W1rS1uqou65izTF1uTzGYefDA3ebltWjGg/ELDuY4tEVhdo2OizY5hnwEPfRAoIM+CRpY0U7ZAfnb6eh4fVaewEZR4GRHJtpEfsPadHHTt9gqfoztojt8g8QFHbqgLimeThWjPxLMzU21S4MibBSZwYC4QgdGR4ZfY0fYIsfxcdrHJjhORW9U0xvnUcGRdpnJHR0caLy3l9vKYKAu717e2NBXz5+7mTX8ilfd/cEf/IGjB03zJ4IqD1bQJvugDV/YLe3j79DGBy3e8PdxKQ2iSnuPD9+2H2V80Qd48PrBv/3bv3V44H/oi8KtvlWSuizTF8+f68vnz/Vt7pB85zvuIRPwAmvaRO/ESXRZLmCJX1ib5WP85lrikf3mfKe7And3vHjimzfV/L9/+Ac9ffbMDYJIsnhlInbk7LSstyLW8UAlsYd2reM0nk7zcv7fuU1m2esEhTZe1/OvvClH6OtIUOj70Dl+AXb0hwxUqMQAfP7Z06cuHiqO9QXrf1+9UspgLwzdrXhuxzMIxa/AHVzpP9E/sZS7tfzGPqjEf2bAicPoE9woTs+lAQ376Qdo78Xenn5SPCcxYtnGgweOJ15ZyXV2rdkP8YI4Rmyn36DvIVElJmGj8Acv+LnpDR64nmI8uT+wPbt7U/BJvMO2wzD/OpnZrDv/FvxDf0uuw8Omf/d3f+dyG3wd3yQOgrvF4q1uV/c6He3xWs9vvnFvunn2rW85nXOXFd3TjxLLSTrRNfhyvSWu4EyMxffod6ngz3k2QDqRqKIIF/BnM6dcOl+Yo1GMl8pxjAjGIcQWo7Xz2AcRE8pmzCyxwOhh2NpGb0YXRqEBUBgXdAgsJHEEL4wLgS1BoC3agSbCVlEwQng3eaDPPngGTIwOXsABJ0Oh7CeQIwcyDFnnxNPPymcBuT5qRe5LJR9//D86OvrYOZgpHcXTgdIGyuF82wd9fjPDB87QwNHYRwFr9ENbVILL18yocru13dbRbKb9LNPa8+dudoHbJOBKtXbAEAcFQ9pFRnNUZIM3EnGCCPu5XYrBkViDyxv403lR0QkzGN384RFoQgP8oAF9eGc/uoWO4YAsdi77jA9+Y0tgxLXgZQGGV6Jtdrva5EGINFU7SdReXVXE2tfivajIim1xfbnwN9XsDt1ih8YT/BK0SZjRAzxwDDtB59glSRe4wCvH3YNEpeQFeujvdLX9xo/xZueV99sxuwa+OA++Gb6wqJ/A6V4VYoHVGrjGFrtAJ9g7sjKYhDZ2gz2QvDte0OvBgavde/fUe/hQK3xwo7jzgo3TuTh+izsN2JQFKToMjnMetNiSFOPr2I3ZBLhTzIad/fM1oJ0dLV69UsyHQXj9EPFoZUXj6dTZLrEEPZ1lt7RJ+1aIbTZAwT55EwByUOGHYxZ0A2ZsvvlGi/19bTx8qM2HD62ZM7em2/K2rNszL2p4p9k4uqGzIe6iYyYQ8D0wQHfwzevfZqxFPzrSCg+5bm/r/uPH2n7yxOmNuE5fgG7RI0kCtkN7VLCn0i5tUtEF++AD+8MfqdArV5KkbDxWNp06PjhnNJ3q4aNH7o4c9kmssiTErj0NJ3GIwSg0sT14YDYHnrjmooIekSNJM3fbExmZoKC4/cXsH+edVTjHjhl/p2naOXbc2uHuXcIX9Zg8mk7dzD4DtF5Bi3bxDwZdYMnftAGPyIoPsZ9z0A+6RufIbe8uJ+FgwohzwAUf4m7n9taWvv3BB+LNKo+7XQ24+7i6qqTT0QEf7Tk8dPGZa2ib69ElsZP+hC0Jr/kViSP7ibX4PjrhGNcbHmyJH8hDm3tffeUe3vpge1srjx7pwYcfugSJfuG8wvVWsEsqCTJxDXr4PvaNPYADPIORxS2O0346HLpYNx5P1G5FWu+31C/yH/jHzh89euhswOjdxC02YXaADniYFN3QDzIzih7QgdmoycC65G3uRuzsuDg/yTI9ePTIYYcf0lcQO7kOPGgbvwZHcAVr7BBdchzbI1aAPRizj/h/IlHFEcyguZigjjIIxhgOyqQTJsjjwDBPx0/AhjiEqfzGmDAiiDJioW0L+ggOgzBrgjuD29tz5/KbdmCWRA36OBQC05HBOIV24BGBoGeGbCBed0t7GCr0MVIUSWE/vwEXnlAqM0vwDE4omNdU5Gkq50thcSv7xz/+qf7hH/7bOT0Ygi/XgQ/JoDkD8oItyx8ojGJNNyRLKBA+0AW44khUbne/4uE2ZoAkvTw81BcHB2r3+66z5iEH9AZu8I8xwQcjXjMMZDNcCRo4GzJBk4DPA2cELnNWeL2oYA/oErrwTDW9s4/kDpqGMb/Bgy0V2lTsjw6Eay1wYSsUguiD7W2tMrvJYGM8dk+iilndx4/VLm4jYXPQv6hgm4zk4A3HoWL3VJJU7Ble4YGKTSIfs7XwRoeNLlrIUHTE7M+y/O0EJh8yGg7ww98UeLS/y8dtv/HPMfjgOuf8Ba42m49WLpbUkXnrP9ABZ/SPP4MHtoNf4IPMVoED9jljfRkDpRcvFHHL5qOPtPnkiTuPmIJ/4DPgw/n8TaeITXNnAnvkOH9zHPmQzclX3KLFX6BHsXbcubyZI47VY7BFJ9LvuyfOeep8bX3d2Qgz8Ngb+nqb3cIv55Hg4N9UCnogLtFRY3fYCbP3wy++0GxnRx/x6rMHD9yyH3fBOf+Aq9VzTnmvu8EWn6OzYaBMnEPuv/mbv3FyI7vF8dHhoX7985/rm+IWqhswsf6WOznF+m/8B30jM5iCLfot65j2iHtUh2uxdhR7gBcq+KM7iyXCB0jQmK3nLgUJY7vtYidJNX6JndKm+dBZwBKLiffYNnZO+1wDn/BsfnfWtRx3r+phkFh0wrl9FW+Bmefx2Xz8dBvsJy6YTPBJNZpmJ5xjx6wN+hrWBU/HY02YJMkydzu+W7Iv8CN2Ihu0aAOs8SX24d/4HRX/5nz6FfAjWaWPAAviP/7DceJBL4q0xmzbZKL5w4dazGbKtreV8hYNnhsYj128JGaSBFKQAdvib2InPo+uqfBBhUdiLT6IXtgaFiY/fHPtWpqK93F8j7uHf/zHevobv+F4NXzO2iK3DZRIULFNeIQ29MCGGV/kRW5k5Rg6hReuddfzrAp9/njknkfZWO24B8gYpAyHA00mX+ujj759HNvP4uWm7EMnYIr+GZSDN3ee8AlsARyQHQxcrOcd9DxEF8f67OVLPfjiCx3M51pdX1cYRS6uk5hyPnji5+jcfJ72ieO0aTZBvoEusAXyC3h6I1HFGTiAQig0gtIwDEbTHOMc9sM0DECUAjHrUNgPEwiDc9jolFkXlGvMcZ3R4xwCIiDBNODALPRpl4IAGDbnsI/gwznQq6tg0NTTBRzgkyBmDoPMAE0w5as0WSt/8tS9W69IIki4UB6Oz6gUA0Ah4Ih8YE87yEdHwHk4CYEBp6SCCZXzwACsuA68u+22tgisJAz2nkZuy+N8jGaTxBmNBSnTGdcjB4bEb+RCx/CLjsAZWjguoyz4etdigeWs88/ClvMMX3BBZngDHwKp2SBbjhHUSNgf8oqyOHY14IGewcB1lCmvSdvIX4MGZm8rYIKdmu7BimSKiu1CjwpG6I6CjNgwt0vWef0ViSr7Gf1D0722Jh+0wDc6BWsqf1uFNrizRWZ0QeE4PkblOAMJCphwnrueZP/lS8UvX6rFDCTrBItkLSrNVCEP9vOuhbaxA2wbOwQX2sAGbKDE39jfnIfZ8EkeLHz2TOEPfqDVx4+dneOn8Esb7tzidjr+Ah7oEjq0fyxT6QEewwjewR3MLcBhozw806PSoRAseVCO2fsw1Oa9e26ZCImq6fZt8oM1/gmv2B26gj/THcfhnUKSlO7vq82tze1tPXEDCPP/k5T4BjyykrRh39iV6RYc0S92hnzYq9ks8mN3FPbBB23AH+f3WT8/HquPPXEedlrMoBm2hiu6wH6xI9qClhWjwzV03sR+aBADwI813uiduGN8jg8OHO5bzIwWSVbc64l6VPCJnAxu0BXXwYPpFPnRO3+DMXyCuekY+gyYqcQh6CM//KF3lh30GdC0Wup1u3pAbH3yxMUrkmtwLctospa32BS2gbz0MSSr2Crx2nTB1n5zLfjBDwOVCc9PxHOXqNIWPozrG57wS9vdbsfpnf3IzHnYMdWKXQMu8A5W6BpMsAE7znY+GGiyu6tJcceHhPney5fa/OIL1zZtcC32i06xOWTAj6DN31R8E+xNLvprJiRI2EwezkeHyI0eiXH0ziF9JPyTD/AVSBJ+ZnHnc2dn2A7YYgPQgifkxX+gS5tUs3fiHrwiKzSRE97Yh39QOd/pLAj0LAzdMoQPeDfuO/RNyA/2tEM/TL8GRlRoGm9gwXnwY3zzNzyjiw5vMinuZhLnebsPukLv7muUs3yAQG5jNmgyQoN2sW1oUpHJ/N/6eM6jgjc8mP3hZ9CK6QP29kRk4BjvseaLnMR8K+ANjtA+q9A+usHmkY120Be+jv/AE/zTDsfgmbo6HGqNO4sMSu/d0xF3Sft9xwv2Rpv4OphxPvIiB78p7Kc9ZEc25IcugyHyDK7l2IkZVYyBk2mEg4DAhVSCmgMhio4DBefRORNUOBchIMwWQGAKZjFGDJVZKpigHSu0gTAEIGYUyZ7hw8ApAwuAnIOzM8pDGAB8HwW+kBnl47Twi6wW4JA96xdP2xcMBkH+EAmdH7ep//qv/9rhYcrACVEibYORGS0YmXL5TaV9zkMvnEdApboZBYIFAYeHl1gnyfsfuRWKwZcSHnRNu7RFRZfmgNBArxgnOJOUWGKCvHUXwwB8wQKnRU46BYrZEA6GvYAhHVTIshECpksOi6cPGchc4olb9Ao97JgtcqMb8KVjpOOCP3gBH3CkE2JtzT/90z/pR9wO5xiBpOjYwmJu0/gmyJnd0x54IwfYkgxg1/gN51A4hm8hJx0IAQT+8BvrgMajkWLWZ+7uqr2+rg6zhqyH5T3BrN3d2nI8E5iR610LtOGDW3TYC9fTFh2YJStgRswgMXLvUBwMFDx4oODRI7WKt1YgO3GAzsWdm6ZuMGY2bXaN3UHH5Lbj5gPwDj7Ib+egg3Q+V2tvT639ffcgV+fRI6V0xCwTKR5WhD46e5dC+8gH7mAA38QeKvTAnXiE/saHh7rfbusJy5W+8x1NucNBsnjGrV5sFv0/f/6683H22+sd31IlTlpMBTfszfyV31R0z/pgfJbzH/b7esZX1Sy5L9bKQw+7ZZAPz2APPT5xbXZubYILx82moYF8tM8MMrZJBQvrZLi22+noMXd3Ct6YVWRWjQoW+A56Jc7YFr1CB/5MfvwIW0MmSxqgBRYcYx8dGPaPPTLTO+P5iCdPtMmDjsUrEp/wae5vf9t9whgZDcOL9I5dkAAjL7N50GIpFbYGfSrxyGISctMP8ZAmHzZhucFgOnWxZnU1f2iEc6zQ3i9+8Uu9evXSxRPkxt+xSewL3NlSwQacwIX4CwZ2587iNddT52B7dKQpiRwJ1WKhHncai7bhHzytr+YaaCAPuNgW/6JiF8ykgbHNmnNOudg1vOmB+kax5ymiyPWN9FPwjVzQBxe2ZhcW22iXSryFZ/jhb7DA17BH4g82iL7QLe/r3ijef/2uvm38cj1y0idjd+iovCUfgW/4hQ/4pHIOPnUfm+Ed8wmY5oNIa9u2nIefwhvXEldoj3bRCW1ZjGNggH1jh5YrcQw8LFHnenhxPtPt6mhnR7tffulm9Hk1WI8lE0yiFM8PwQd9J9dQzyrYHrGBB6jAnD4Gu+NOK3xA0/iGd2hzTcTsfDH7/sNHjxQzQ0qCXFqagY1R0TcVn6dSzJfM9vBx5LS+CjrQc5G+7BwYBx0kTNEIwGJkMAt47EOpKBjBGCnQuIFHo7QHQxgXiicoAxAOwzEUx9/8hhaBAYOgcj7HoAGTnGPGTTvQhEf4gC/44xwKtN8o1lGwtfrGSVfbATW+77tOAnX/vvaYIdvZ0YhOuhhdMcrid6fNBwp62iAopdv61gcf6Iff/75LHPjMKzKgLHCj2PUcwyDcOqRTiuYc1oN1ul1nyBgzZuiUysibJQAMCvjkLZ1GsYaR60jkaBd6R8Wrt1hXOyK5KZLkdZKb4hYHRkuFnjN2w/Us6OyY4W1/n3XuBfvADj7hh/Wu/bclV9ApZiDLzTqrMNt4B144n5Ex1WgyQ45+WJP16MEDt5QDZ8IP2I8d02kSTLeZXWFZTPH+Ofh3mMNUlicCB9zGxDcOD13lxcn4C/bDPoIaiSc6RUdUt0i/3Xb2NS8+ooA/EOzwjeHRES+H5MlGN8JtMRPDzBUfU1hZcZ0ifjw4OnJP5zufLQaX+JObDSAI2kASzAq7hN+vvvzS+aWzBR6CKl7ndgJf7JcH0kgGqQwkS+8JJaGhni7YNzISwJj1xzYdXPg/A6ligEYs4HrwwTecjRR2naH7Fy9c7T17pu6zZ1qwvoyBTfEAFDK6Qcw72AE4oP8OPkjnzwJ/3lbQ7bp16PDCByWYvXTJA+/mpPOdz13SMo/nbs3w67hDDJKSOJ9FnU7zJQ+T8di13V9Zca9Y429iG8uF4LfL+yi7XWcfrtMs4gPJ1M8//lhHg4G2eFcpd0C4A0HSs7KiRRQpLuIns+Gff/aZWxaEnaFvcMXnsWFqq+gA0QM2vfPqlQ6Z9Y1j1/4PeIqaBydPL5tg8MtXf9B3aZCoe/ekrS3XgdIeCRRtIwOdEfbtlsYwC1Mso6HT5knyDrcOw9DxsVromjtFYPPk8WN9+8MP3dP9xCNmM3kt0reePtXWxobr5B49e6aHH3zgbPm17529PtRs0T3BzrpE7iatrrp3AvNeYPzRCjaBXpCDil0Qy3m7wQgfxh5cR95xfUM+UIFu5nz0008+0ddf5TN02M16kUxi7/QBFpPZUrFz9MT2S57C//JLZwe82YCCbDPW5JLssH63YJTZ3QMSPT5pzSCHGSziEb7AMxA85FzcLcPubDCAvdOXfciafpbIMOC1ddsln7HYTJuucKxUWSPvsKIfZBmHvY/aknF8liS7mCWkT6EvxQbZYqODgj9kxFbAC38giYI/lvOQU/SY2eShV3s2osRnAce5G9pjyRg2jU3yisPdvT0Xh5+/eOFojpChmPkGC+IO9oxdRHGsvltJd7XfAAAgAElEQVQymYjJCGb0wdstFC7yIJbjDQdHx36MfMhErCN3Qjaeazn+XSyvtESVPsAqMYechxhoWB189ZV2PvnE9e993rrCQJ28oIhd+Dq5G5VYQtx3+Qbxq1hmhz1hW8QIBidPGQw8fer8CpzPLcVkAXbTZRJpddXFWjdQLe7sOOsvbIPfFuuJw4YF9gim2DqxHr/m9Wbwjh0dJ6qAxuiGEQtrsQCJSuFkZpVYlA7AjAABjtlD1nfw2wW6YimAC6bFrSmn/OHQBVqMkWSU7BqgcHToMTImQcUxaR96tMdvmKeSnBLE4JN2rHKOXcfvMwsgFbfC3K2JM0+62k4+GUbHRYAkSeT1PMwqsW5nrb/iFEEQX+2vaJuZpdYD9XuP3fkERo7RBk7ulFvIYAGFr/vg9AQGAiRBMGVbBA+XbPAUNQ7OWl3OpT0SeBICRlCs5yPpZxBB+yTPxSwda8m6rZb6vGZkY0MfPn3q8LbOiy3GTWfRIzEAJsPyPMjorOwcfhejp/NOr3R/mXaFeke3zE5v8MRiMSImcSFYgF9S4OM6BQLQZKKN+Vxr6AMBHS9Sli7ca5NeFn72ve9+V3/4e7/nghUPwTGI2+U1YPO5SwqYISJoU/k8KW9u+OzTT/X5//3f8WwIjk+yQsDjCUwqCQgdUcDdjk7Hdbq//vRTN3B59PixC0b4MUEIP2d2mEEUgZ8giI/iT/go699IoL/+8kuXqD3gox4MJMEBvMvF9G7Yv6P+XccGxszwFAM312xhnyu8KaIYsLlOrbgFZT5PPMmwdXzAki7e5lC8wxI/cHMJRWddZvltv/En/DniIdBeT894wLGYCSQu0RHt7exouL/vHmjhAa5DEjEGGdg+vm05krtrNdfeLi+WH+cPvWEetEfnt7+vj3/60zypKx7c3GamcmvL6dd12GDLYGg8dnGRePv8q69E+s8q2gfEiC+/1OJnP3P2wjtNGWiRcBLjGdjQGfDOWxJdkiVm9khYeuBXLMlyg7PZTA+ZrS0qsYCY5Oy5DFzZ74oY42JAcauyjV6JP9xy5Y4FSXQpebF4vrm6qodbW+49rNg8sZ+CjT999Eg//N733O3ox9vbGj99qt/50Y9cfPnNjz7Sh48eOZt0Axnjs8zjW347e15d1Q+++13XDsm9TbSAofkh/sBkxOHRke5vbemrL75QeO+eZqOR41Np2efpe3J9kQTNpyO121Ge0PDcxf9v78yf40iOe//tuXGfJHhzubsUd1dHhB227PDzzy/Cf7kdjueQZVuWtJJWWpF7kcQNDGYwwMyLT3Un2Jwd8OwqApisiEL3NGYqM7+ZVfXtqurqYss+6lkg8kVcUQ/DwFCtpu+/+Sb0I8THDdaBFiQZcsBIWe/wUNs//BDW6a6x1nN2VkeQvUZDt+/cCUQa0yE5/Ja6Qr/MIBOxwKAQGWKAXG4E2C1hia2EqFOvar/xe9n3pXof6qbd9FK3qaOFDziGkTaW5jCyWwzohCPLDmlb5uZyPNlph2UKTO/zitsiXiFsgcjwe8pF9hu2NxYKxHp4k1KtFuo2bflspxNi8O7t2zp89CjEYNC10BPdvymeZKf9o+09ORoFrObbbZ0wHT8qBpcGA/2wt6veUb5/rxEzfID/IMncFHGzgX+fMGP85EnoVyDRxAQkkrYPe+lz2JuW/hhiC8Fliyim/rnZW9reDoMU6EScGo+7d/9+mBGhHaHdh0cxuBJuBo6PQ9vyV2TzdD6DMTwMyY4tb+J/4yhFuxR2O8K/5m+u4x7aBa7RJhvPoZ/hu9yUc4MH/ozKMnBi3Mim/gENsofykE4AoOHCORAhgoFKw3YDBDp3+/ZdAh4yg/FUGuvcUIwy+T3/546Nu8LQqBb7U1IGo6lMSdEgweRttDY0nMVm2PwGndCT/1MWxzCqUtwdWIdlAXh2BCQqGneUjLgUdwBn/3/PE5wxA4kEXEYveIjn9FQE7HynHRxCBznHKxjri5prrWplbkOr3Aky+llqBF4siCiUokOgghcfQ0dbnIeRUs6LhoJOKjQqfC4CI3zHOg2ONBqlhsOKonOao8EopvTxOz7Hdy8l9CnWlrx0ffwDnQt2kcF8wgja+E8q+Yzd6EdGB9OjAh3wDRlMwOosIZORH8g+pLXY0eCgGCFFB5YihMp7msciU9T7vNLxyRP9/NEj/c0XX4SHkP40N6cvh0PtPXsW1p3NXrumDTbVZlkHjVZx08ZILISWRENEg3dK/WCjbbYBmplRj3WwRadEXHb7fe0+exY6KI7f09gvL4e1m9yE7vKENo0TDw+W1vNR3+mgmV5iHWL95CRsdcbOCoGwgG05ESPgzvEt/E+MhwarXJad01iSX5UsvsvfLepG+C36kN8hoVfYn3d2Nkz1qbQGjs6fNpDZFG4gaOhp3HfYsWBvP2zVNTxhOQ+jWaPQNpz0eQECO0hsBzKwzMgBN+ijkZ5vbYVp583iCXlia+369fBwDPvC8opaSBttITe6jPCS6HAYUTsYjfQDRJU1a+wjWkwbhptp1q4z+lPc9Pf39vTsyZMwTbjIzgzFSzjoNMCKTpGOdIMlIzw0ayPjk9oAq3fWnuEPYoMdHoxIGPa0QefNjiCj0JPOmT6C+KMPOClIGn0No7e9lRU9evAg4Pbw1i1tsA8yPsfPyEcnjm+YWGsZRux4NqDYQ5vBGAgrMxZhsGRvLzzN3gVHbhS2tvT8u+80W7w6mqVXENOM1UentIEDiSOjhywf2u2p1axrtejHWLYQbCumQ6lv2Mz2eu1r1zTDlk4s6Sle/7m4shL6WPo7cGBWhyn/56zJ7vd1l5GzpSXtsh68Xg/TyEwn056XEwScaV6WsYR6v7oayqJf5buUH/pUq0PlH5fP+T8+tzaXz5zje0jIGP7neoN2lFzUUdraQJKKes9a80VuwNfXA2kPo6emB78JuBf903ibZN8753jWtjOD0m5rkYGdYk/t8Z8YT+JBWXzPdnj7PNjcr6uV5bM87B/O/qnU1+7hgXZ3trW3s33WfyCP+svI/S3WW7MDD/0Fu/Qww8Yyjl4v3FgQG5zTJ+MbMtyov7CgH3jBCg/2styE50i48WO0tl7XY3Zm2d4Os6CMjo54wJQZweKml3aLwRLigAdgkbHLszUMKnKzy0OEjL6C66vwxNcs92LJovW5/KbgGef624At/H3Wupfbb2tLbJbYCCkAsHYSwsidFZnKQOfMkTVKAAxBxGHsrcZ6Cv5PpsMDSJuOZ4rwl7/8ZVjzQvBbtv9TBo28jaZSLqSWsvgO6z6Z8jL9eHqT8qnI/M+ILf8frxCGQ6hE3W5YrxkA57ziVGfqisaFkWVGEFhPKKlzeqo66+aafc1l9fBgR2NhUY2lDW0wwsODGFXrg+PJrFFlKpiAsU7Dzsfsh3CwYTOjqwQWWIKpBdvY11//EbuQT6BBUqlIqRJTYpbBFh0glpF14AULC6enusEoBCSRJ9e3t8N2RTpYkrrzyvo1NXt9zfT7YjKFPegW2GT68FDzxDBLbD75RA+L9VyQB+og8U6m7kE0uJmEmJC4OaRzZfslHmRaZAq2IM59CAL1jrv8YvcERnr7jMwycgMRYIP2v/5VTx8/zt8iU2w5FJ7aLkbyGQkZHB7q840N3WVbFkZqaVDGOqGgELFH3IE3Om5tRcf+LLTw9c5OeCtW2BoN/eh08H/RcJ59t6IT6v4MD4wcH4sNqRgdGrB+bW9PWz9s6uD5c9Vri5pb6IVRo9NeTxlTtEy/DwZ6sLqqn378cSCFtHv49fm9e4EM0QHyINJusXXL3bU13V5fDyOTqM/0GFOzjEId8rAleDNNfXgYOtqMDfbBgDa7eFkF59zoIMdGMaHvQ2avmPJnWzge4GFNL+9A59XGDAzQIRU3RxOho5NCPnXO4oIOi+vvgn0xM8QaONrUZjFFSZ/RJv7omHs93WMpEg+h0Jnie+vcOKLzOyTK4yGZRdYmsk/k6qqOGfVi2UwxivV4YUF/nZkJsxDsMNKn7cT+Xp/1H9JRXWodSg3e0tYNnX242Vla1Mbqij5l/9D19Zfrdmnqn9Ft+mP6Q3xGm8yNA/2i9XX0jfyf1X43rl8Pa8MhFzM8W8IuHPicXQKog2M+oA26xfMVxY0uD+B1jo7CYAuzGibjtfBR3/Ezft/fz8+RBf7EgcXCawt6/RdsdjHoVrYHv4M9CVvRJ1IKM5ZgyoOqLE2AWO7sqDXsaLnVVKeZ49E/7YWBgcdP/6K1uVl9fO261pcWtcba0eJBwvnZWW0UuyfdmZnRNtymWGLGwB1tPjMfZNp+G/CjzjP79WxzM2T2jz6hD2E0/M6dMOX/w927YekH3yOOWJK0yevuGf1nNoMbwG43yAsDMLWabvK62Y8/1gPW8bN8DC4Azq/yIX097T31j+8RB+f1De/hkzA0hONpJDGIPClN+h9k8VUJ4glZfd9EhcQJEFO2y3irZJUIEOk8AbLCBLELDqVx4x21kFOCioaFdTqBqPJUKuvMGlqaW9Ty3KnWIPdUsPLoXBV6GVGFrFF5sZs7VWw/J+jsjrIK8aEMOktk00kRtMV6qsrKP68g7LS7eewlowMYRNYB8gHp5GEa1kqyXpS77RN83N2Tuiuq9ZvhqXCIzUKWaZWZCG5out2wpIB1hp/wIoxPPw1TZIGgEk/FYvSw/MOekCwaY+otMchaL+6S64eHIQ9Z7M4UOOuUGP0sHnZiCvNbRlSfPdMztoPb2tKT58/1mO14ILk8sc8+wcU6UXaRmGu19JM7d/Q5Wzuxno3XUJ7XGRB/dFj4AcJExxEZ+7NwQCcaTeQS68QDI0nEYLljO/vB+59Q9xnTrIE/U9uNhr7d3tYz1iBv7elga0+znWtqtPphJKjfJy6PVOv3Avn6aHVV/+ezzwIxxJd0SiwZYOkAb3j65tkz/frLL/WHx491f2VF//jFF2HNID5fZP9jRsC4USnWKR48eaJDnlJnHTVr0lj7ycjr7GwYcSGG2DKImx1IHyN424wSsjZvZ0ebPKXLtnfttjYWFkI8r7NPNfWo2F5oImoQE9pWG32hznGNz++AfbhhtlmMcYGUy40hN3nsz8tyMOQg3+KS+KP+o8dbJmsPGYMMo2vFVmiQBeoPN4XX2Uu31Qo3gNykMjIKRtnxQFkPoppJDTrtgzz++8eaadR0g8Gg27f1y88/16Ni4Idyz+p2QVaDb3hQJTzfMGF2q2wTfQgZm6l/JEameZiGz8XOFOWfMGp2q1gSdnbd2syzC29wYv0Nv6XemXx0Aft3wH+SVIuHSf8L7Y0RVQZGiI9IKegBUWVHim5XA7b02tzUXH1ea0uL6jTy5V280nVv87kes+bzJw/18cZ1fXrnTthCa4V1v6wzPXuDVU3d5eWwXIy6zPIAYoLBBQilLdnAJNpxlmTQTjNiSqaf6e3shPp9+9698IIT6vM+z6zQd9Tr+p8//lH/xYuL0JctyhhcK5bgsKximW0i19b0OevQjajiw9cl2luw57u0t8TUOTzjdUW96v+lOcxXfe0S/48KTIVlvS2V16avKjaJOy2eMmYrHojKHA9ZNdbVbC2oNjOv5vyCmgszWlxb0trq9TBlx9ZBVVXkM3Os4YAsEDBkHmoAgwgBdCa3fAIxoMNgNKDYcaD876jnkCIynRYkBR3W1/MHeyIKZlH99V5Pnzeb+urLL0PmFbaMxKi5lMs/bqi+vKT2xobusM6I9WOffKImbx2DTFLRScUaYkZ2WDLAjeRLmRug4rt0ZHyfkT225sp2d8PdPvtXDtk3krXexVplYpSXILD2qMGDJ92ubnW7urO3p093d8MIK40ka5u4W2dKiJEaMo3YrfX1QI54LWkgf5PwRC/wh6DzvQTYn6lhHRSkiqk74p6GkzioqMM8kzV2wk4HTN1zo0r979N58KBL8VIDsGB0O8vmVcvmNdMGwhPN3ryp5s2bYekQ9ZOpNvaBpeFvMkPD0ipeL7u9rfs3b2rj5s3QkSE+PHTENl10OMfHYZ0kL7rgIb7anTvK7t4N65PxaXgIhCdo4TCDQXgIhM6QkfMWI/H9vtYhu4yqMSIHsZ2bC5k9mF87w4LOtDl2UwLe+J9MuxMhEc+hHhD3EFU6S9odYtBkVyyXpVrgd41X7K6thdFpnp0AN9bwZ6O6RjNM/9elOewvHixkGVhHmuEFKbxljTdkFQM9+MHqN20APuJI/Sdu8e8r4xfbIYmQReoA2BP/5ww6VQoJOoI57S19LecrK/kDlUXbVKm8SYVRv63u08+fM20/6afvdI1BqW5X89QV1lHzimUGEBjtnp1RrbWoWrOu3kjaOThQc2FRdx49CqOdy3CEYrsx6hm+DTcj6M8OB8WgBDHBLGebWS9mE0rtPSPrtOmzPOTEPs5bWxpsboab0hlesLG4qHlea8uUPOWxO8XSUmhHHn/7rf76zTdhZo6H5lh+QD1nlJZ137wOl/LpN14ZcwYcPifRztLewmki8IyrT1Sp5JAFQMSxnMdIBBZBeP16eCvUImsZsxU1hwvK2nNqrKyosb6sxVtDrd/MN4UOJKNqXWgoyFReghv7IYvYTgBF6jReMgO5NJo8BWyyX/pCxA/c3dFoYz+2J9IBonidjmptLYyoff+rX2mJUTbkzyxpNDcr9euqLS2rc+NYtxsN3eMhxbU1tdjGid+OwcJonXXx5f9xzT7bMVRk/A4ppYPA38Q8RBUsmM5jHTNro0YjLTGaVjycxAgRHS0ElSmn52xv9dVXYa3UJ48eheVAPETGCB6Na5gOGtP17CMdFySVhgsdUvofskSDT6dJZ4VsGlwwiRz3Yc/i4mYB+1ns0mcvabZloQODqILJaE712ryatZY6MzXN0rHcuhUeIANDfM5MDJu1L/I0O0+VE0c8nd9qhYce+R6+NHKDvyFsbab/eOgO4nLvnvTwYe770o0Ovw3TvEXHx60RcugYQzwUD5vRgYZOk98WsXPm40knkETiDLJqBAUfkKmHERIYhJKRXSZqyIKkkdGlokRJjLKy5vv6tWuau3s3PAi8zQPFbJHEDQGV84T1lg2N5ubCbiuhz4Gozjc1u7YefN68cUP1GzeCZvigrGVxu5q338VN6ytN4OaAGCfujahC2IqHoV/52/f9J20OMml3wZpz5EJWLQ7eV8brfk/dthskZFPvIyYGD5g9ZblJk3WdTKWrpmETojqr+uyislY9LAfZ3T9Qa3FBtx59pht374SHIpnlMH9Th0m0y7aK2P5XjgM7539W72eZUeBm8/nzEGcsx6qzBIQ3eXKzWWrzZu7dC+3I8h/+oNF//VeYsXvw0Udhi0EeTmNpJw8JM6JL+W/MTcznNihlA2Il2VW44uoTVYAENBpRMhU6RuLVYTdv6hF39zzUwgM03ZYGe7M6ZeOKRlNZq6k6Iyn58w8xtMhJqhFV7nawnSO202FUHEATjTBZyIuJ+bhwOl/kYS8Z+WZ7LL8XOrB+ag5iyLqv4v32PL3O9lDD02ZY08n+cjwMcf1WvqabJxvDg0tU8nM6c2u0xk0dvx4+G1Et24zdYFL4ne/RuZPpcEls1tyenw8kleUGHda9sh3S0VFoyFbX1wNJ4po1rOP6nH1GB4uz1P6nrk/yu8XjmZLVn9B5sSUMy51ITK2zHAOEecoVTHiV63p7Q6MR+zKySf9IC+wrDYFFbyOg4Sz/AwHFT0wFM6oJeTwvMQUe2jfspUxGNzifkMbjh68wInzWIRYd6ISfTr5ELGEDmd+SkU38nRPbkwt6h6tW742k2Wdkv60drxEPbmSeSJ5l6pY337Fn5MmJ9gYDNU9GGpx2VGs1VWs2lNH583T+/IKWV+tav7GhtWvX1GHEt2iTxn0x/vk1KuXk0LDH9jL2r/3xe36B+m7yzM/ogu+5/op4fU/JL36OLGSbHgWuL75Q8RnrphcWtLS6Gpb6bPKEvU50Z+2k6G/zun7/wQMdn/5SP/nsM12/dVMLKyvhlc6sER1PFlfl66+LA5uBC5vt04dwQ4nt3Bgjw/zBgCc7JLA//c2b+oRBJCksy+RhSR5OZ/0r5PS17XtZQc4Ne/O5fa7Y7z9GbFyRq/CZALZKUzGABg9Bxb6SPEmdHR6GhdYHzwbaHAy132MkEx1qGtHPnN/XWHHvfqShImPnefndS3+zX47jHQnzicqYzYl1YNSJDZZZDwpRhYAyhQIZPVW+sXaz1Qx31DdvFa+SLYjHa6f2Jho64aJ1UuVYNzwm+MAaQjpd9LQHqNiyil0+WMcU9vC07aomlDFBizzuxvGf+MWKL6KfyS1jQIP9prq/o0p0PoyUsN6LKWm2Bjvuv3ivOvI7szx8c0udmaZGw6Mw9c8bs8KDaefoh49Ck2G+fZV+59n/qt+M/c9iYuzy6z8i2zLftnM7vr6Ed/+G+RdZxXT5mXziIEJiHTe3ABxZFcq2cawLrB+fqt+uq9FuqtYg7rKwbRBbgK2udUIfwbvQuRkMOlahm2Fcjn2L/yrKf1UZ430N+Jf14Tx2GpcXWSZkjn2pIaq89e6HrS0t1ObUZ4eHop9nJ51Hn32m+x8d6Wc//7muXb8ebmJ5gDG0UVVhUuAfZrmwm/LL9aGQw/+56V1dWwsPU0FKaefD/rnFOtZ3qikWZ+aDCbKrMPXqE1VrqMaPVaA3VgbBSQ53GaxZ2T/UTr14BSb34Wc6jP2wyo/IsGzl2mc72vVYR+RYSiUTedaZm0zTwz6bThGOWMzDMGTW+rCvIw8Sskh95zDfl5QRsVa7pZnZSKP6Zue43Xb9HLvDNA8NWfF/FvrbyOA5Pzn/sskaP57/i2r/U7adkst6VCvppdLovBjtZOqMDIatYaYmg7yMrPFQTKutldUVrazw5DbvDT8JNzWhkzG9Xyo1/xBq0yv+f/YTs5ULdv4mvzsr4D1OynLsPKUOZVnj7cB7mHXeT0PHX7yMgf1Hd3mtJktn9ruqXVvV/AJvpspnINjOsdO5r42NjjY2bgSfc1Nz1h+cJ+RNr5dtHz9/0zLe53vIJJlsK2v8s12v+mjyJ+lQtayiPPYs5QFzbuR52yPLZqj/jXpDJ9yctFphv9/Fxbru378XHvpjMCBKMpxfgYO1IfATHuQmoSP91Xslk2k6UFj5/L0Kf/Hj99TyRUF+5gg4AjkCd65d0z/+9KdaXF8PG0f3TjpnD8A4RlcbgTDa0umEvaYHjb4GvRM1m/mNChu9sxbs2jXeA887zIdhyo3feLpcCIQbE/ZOpuNfW9Pu06fa/Ppr7ewfaONGvk9qls2EGxT+v7z8hdbW2MJxLexgM76v6eWyfrq1xffcaDDwwMwZ+1jPqK1Osx320R5ktfDgJK96vX9/UfPz+etLLwJqjOiiPzk8IHkRlHoDHZyovgFI/hVH4G0QWFtcVOvuXbVYAjA/rx92mpeqUXgbW/27LyNAB8DDCbfZyWH3UKe7h2HtKh1ErVZXp1PPn63p5MtIX/61f7osCOBnEqNSbJ3Ikp+DwUBb3UNtNBph8/x+v6N+Pwsjb3fu1LW6WtPcHNsUtvLXUF8WY13PHyHASCR1mjWen9y/r86godWlxbBHao+tAHmL4eKibtxYjDHA+CN93vQC5PQyEVSzy4mqIeFHR6AiBFi4zuv/WOTONDANg3VsFYnwYi4oAnRevKI2YxnQd880/Paphln+0pQLqrKr9R4I2MgUL1Y45C1l/X7YEow3Ru3uzuj4OJ8Gnp/PwgYkrVZOcLw9eA/QL8hP8eGDO3f0f//5n5UdDnW9c11ZfUYHw4bG3td3QTS+vGo4Ub28vnPNLygCbPPRYq0yT2AW231cUFVdrYoR4KaE19ourK/rtDWrbtbU4dGKhsNI69Mq1t+LezsEICvcnDBs1hsM1OXJ/1Y7vEGx35/R7m7+Mp3Z2UbYhKH46tsJ8W9fOATsRuP2jRta/tu/1WC7p9PdkXYO22oc152oVuwxJ6oVA+rFOQKOwPQiYMSF7WF4pbRmF/V0c0FPn+bbVk0vMlfTcm5MWG/KVHCYOanV1e60w6uNWRbgy4+vpt/NKmbM5mZm1OuO1Ku/wZuc7Id+fCsEnKi+FVz+ZUfAEXAEXo0AI2z1VkvX55a0emdWncf1sB/6q3/l/72MCEBOIamQ1fCWoXpN7XYnX7da/TaulxGiK60zfufNbVlnqEHt9Erb+iGNc6L6IdF32Y6AI+AIOAKXFgGICg9T3dnY0N//5CfaWlzV3fW4b0a6tGC54o7AOyLgRPUdgfOfOQKOgCPgCEw3AhBVthyDqLYfPlR3ZV2ra+vTDYpb7whUjIAT1YoB9eIcAUfAEXAEpgMBpv5Zi7rALh8rK+oPMzVmOtNhvFvpCCRCwIlqIqBdjCPgCDgCjsDVQiA8QJVlmu101J6f1wmvUG21dHS1zHRrHIEPioAT1Q8Kvwt3BBwBR8ARuKwIsMsDmQepeKiK12SesgeVJ0fAEagMgVplJXlBjoAj4Ag4Ao6AI+AIOAKOQIUIOFGtEEwvyhFwBBwBR8ARcAQcAUegOgScqFaHpZfkCDgCjoAj4Ag4Ao6AI1AhAk5UKwTTi3IEHAFHwBFwBBwBR8ARqA4BJ6rVYeklOQKOgCPgCDgCjoAj4AhUiIAT1QrB9KIcAUfAEXAEHAFHwBFwBKpDwIlqdVh6SY6AI+AIOAKOgCPgCDgCFSLgRLVCML0oR8ARcAQcAUfAEXAEHIHqEHCiWh2WXpIj4Ag4Ao6AI+AIOAKOQIUIOFGtEEwvyhFwBBwBR8ARcAQcAUegOgScqFaHpZfkCDgCjoAj4Ag4Ao6AI1AhAk5UKwTTi3IEHAFHwBFwBBwBR8ARqA6BRnVFXdCShkPp5ETq96VWS2o24yuKLPJgkMs+yZQNjvNr/ZHUi6jC6alENvm1mtTr5bZzXq9HFF4UbbKx32THlyqNRgXGfen4OMefY0odsLNsP+fHTelE0gn6DaXeMA4aZb+b3UIsV7YAACAASURBVEgi/lP4HVnogGyOqf2PXDL2cgR7Yh5dYttvsjlaGtYkcr8hHWdSRmxQ/0f5N4qDff29j8Q5mJex5zxFCnFe4J9ha5bXO3SKjT2ykcMRe2kH+Nxu53qksN+wt9jrUe+zIqPPUGpJovmtenjIbCf28D/YGyaxbcdesvnfztGJumexEFMPZKe22+zBTqv7JwNlJ5l0gg9of0p1nbpPrjIR5yTDnnpmfm804tc7kw32YIBsdCDj+wrT1SeqNFyHh9L2dg4k57HT0ZHU7Up7x1J3KHWbUnNfqo+UtU+lBqwlUoKYY/PBgbS7+6KxoEIRQDQcsRNYI59Gi5sD8EiVDHvw55xKRKVNqcPWlrS3l1de7N46lg4XpG5D2jmSfoh0p4LvwR7Z1oHQWWN/Cr9jKzoQd8Tb/r60uZkOe2y22OOGFJux385jxiCyiXnaF7shroN9R9psSbvoI402B1LrVGqPpFbFTBXM8T0dBj54+jT3fUy7rWzqGf6m3pHAnnaIDqziTstEnh3BnvqN3UZU0YfPqRK2kw+70s6OdDIrbTek/Ya0fSI9Q5+hVBtVT1iwk7gDA+y3BC6xE/LIob/by+s//gZ/I6qxdQBvsCfmaG9S2G02UeewfbcnHdDOMzizLzVq0tZAox8GedMbq9uFrFLnJ/X1sesdGFh/Y3VtZiaK36eDqFKBcSaVh8CKnXAaMg9P89HTfk6Ws8ZImhlI7dKoS9W6QBTIVB4aL2ssrMNIQVjAGvk0YHTaFsRV2zqpPPxLRiZHdICoYX+qFDqsw7zBBP/9TDpqaNRr5Q3q9kEcTWi0TLbFAfinukHBKnQg7sCbOkADmsr/+BqyiN85EuvYn4KoW2dtsYfMGthDHjvSYSf3+V6vaANGUrPikXVwpt6BPT6gA8f3KRLkAJnYb20MMWiEJaYOYI9cZHFODHLkc6oE7uQQe4fS6a6035IO29I+Nw5FW8RAU1bxDYrVNY74AfzJ4B87IcPwx/98ps3jmukRWwfaPLAn0feksNtssn7mYCB1T/KRc9q9rCFR13d6wttWJexnlR2JdbtBBncycZCqzQdv/E5dw0jiHx0qNvjqE1UAY0SFkRUyjD92QiaVpXUiQU7ptFpNjeg02zVpJmLnQQNhjQcBS9B0Onm2QI5tPxUVmw33FJhjE5XWjtZZgTn2p9IB+diP3ODv9guyVK/nMRBLF/xOQwHuZjdHGi18nyKhA/KRSQykqnPYRieNveP2B9IY2X5kU/fIyEdmoy3VOzkG6EViJLVTjzOiam0d2KMDcY8eKRIdFRjgfxK64Ht0QJ+YCdnUd2SCP8lkcy1FMr83icGivzmLRfSR1DnNp/2rDkXqtuHOuWEfq50p44nd+B388QN6lLFHl9g+oJ8j3kkp2xvkYRu2t+AZWahvGbpwk8rKk072wvyqQxG5JHAn1vC9Yc957HqHbIg69iK/LBv5FaZErViFGr9tUQAGkAYiDWfsRACFhovAHYbgHRXOHLXrUici7DQU1njY3Y3ZDhYVB9BEKJGHvWXcJ36x4ovgTgYDshEXs79icecWZ/Zb5W23NQrEpV4QyIpHVEwR6ySKWAskAR1osFL4HT3QwRrN1P7H3+PYowt6xLYf2UbWkEdm2r/JTWJbofMCn0BYIKqqfuqf2DdbsTslUQVf7KftIRlZSkFUiW9sRyZ+IFmdj02Scmm57cHnBWnoMDBCHDBIkUl0O51hvka1asKCjeAOBhbnZr/pF+tofQ2yIYzUf3wOSUavFPjbzTk2WtzHsndSuaHNk9RkUAqft5TVW8ramTQDYYuw3AM9wJxkZBHfm99TtfnIA3OyyUYPi8Ncw/f+G5Exvbdu1RQAYIA4N/ciV1Py+aXYKAYjp21GGhjdmMnlLwylxUhEBY1oOKyzsBFVbF9YyIOn4gCaCAINB9Mxs7O53Pn5iV+r/CIVF+zNRhoQGkzkY3+qhP1Mh2A/sufmlFGJ2w1ptiYtwlIiJPyOz5GPz5GN3DImEcS+VKRhTqdNh5USe4gSU4DUd/O7NaQWEy8pW+EHZFvHgXzsb87kea6p0Ww9PEuRzbUk2gBGVqsOA/wM5sjGfmKe8xSJzhL7yUZQ8P3iYvyRHWKejpm4pw6gA7aTUxAl8EUm2PdPinq/kNd1+oC5U2mhnbf78JZqB5vyGRzD3Yi6YR/b9+BN7IM/svls/Q3Yx6532Id8sEdeKrsNV+occnuQRG6QWhqprVFzRqNQ11kCwY2b/aDCIz4ngTmzePgA+8mck2Mn6h5tLvhT3+jz8HnFfp8OokpnZaQBMGMnnBTuLFkjx0hD0XEE8iBpMaICBC0Z+QQvuhC42M15iuCFpBG4RhborFIkKq5VEM7BwTrsVDpgJ/Yj1+zH7x2mR2oKRCXWjQr20lnTcFi84wfIiuES2w+GOWTNGq9U2NNocoOEbLMfH2B/7LhHttU75AeCjOxZaa4uzWRhrZrmIVGMrhWjq1X6AxvNXo7gnpKomv103GXSEBt7SLK1behA3TfCgh4pEnKJ995AmuEGnRtURtQkzUpaGOXtfgyiClmivcdWSBtH2pwU9Q5ySgZ//AAORlS5lqLdQS7Yl2Muhc+RYbHN88KMmPd4aJJRRgZICp/HJqr4nD4HrK2vJyZMt5hY0N+wRrbc1yG3Yr9ffaJK8JIBz3JMx1nwmrNMPo4L8ostSlLogMwzuXG2jZhohtlelj3xixVfpIMyH5vtqXXApHH70SHLlAVdIvt/XHYZj4rhnlic1TWOqbEv245sk0+jzXnMVJZ9hnmpzTHxDHKUc5U6mQ4fGntr8wwHjjFTWQ5tQLkdQJcUqYx9vWjrjZSW/c151SqZ/Rbz2GzXYttueFtd47Odmz6xdXgJ+0QjiWaTycbWrKZRlh8DBvjf/F21z02+xbphbdin8r/JNXl25HqFqdrSKlTMi3IEHAFHwBFwBBwBR8ARmG4EnKhOt//dekfAEXAEHAFHwBFwBC4sAk5UL6xrXDFHwBFwBBwBR8ARcASmGwEnqtPtf7feEXAEHAFHwBFwBByBC4uAE9UL6xpXzBFwBBwBR8ARcAQcgelGwInqdPvfrXcEHAFHwBFwBBwBR+DCIuBE9cK6xhVzBBwBR8ARcAQcAUdguhFwojrd/nfrHQFHwBFwBBwBR8ARuLAIOFG9sK5xxRwBR8ARcAQcAUfAEZhuBJyoTrf/3XpHwBFwBBwBR8ARcAQuLAJOVC+sa1wxR8ARcAQcAUfAEXAEphsBJ6rT7X+33hFwBBwBR8ARcAQcgQuLgBPVC+saV8wRcAQcAUfAEXAEHIHpRsCJ6nT73613BBwBR8ARcAQcAUfgwiLgRPXCusYVcwQcAUfAEXAEHAFHYLoRcKI63f536x0BR8ARcAQcAUfAEbiwCDhRvbCuccUcAUfAEXAEHAFHwBGYbgScqE63/916R8ARcAQcAUfAEXAELiwCTlQvrGtcMUfAEXAEHAFHwBFwBKYbASeq0+1/t94RcAQcAUfAEXAEHIELi4AT1QvrGlfMEXAEHAFHwBFwBByB6UbAiep0+9+tdwQcAUfAEXAEHAFH4MIi4ET1wrrGFXMEHAFHwBFwBBwBR2C6EXCiOt3+d+sdAUfAEXAEHAFHwBG4sAg4Ub2wrnHFHAFHwBFwBBwBR8ARmG4EGlfe/OFQGgykXk9qNKR6Pb7JR0cS+fg4l30iZcf9XIejkdQdxdPh9FQiI7/fz+3l3GyvJbg3AWswx36THc/iFyWPRrk85GM78rE7pQ5og3xkE2vBD3Vp0JYGI6l3InWHL3Su8gy/m2zsRzaY4IsUfscW6huyT07S+9/qOUd0AAsSusS232QjF8zB4VTSaSb1GlI/y3Wh/h8NJUKA/1eZut0cc+IAPfjcbFYp4fyyDG+OWZZn4q/Vit/mWjuDv/E1CdnYji4pEvLQY3CSY89nfN6vSb1h3uY3RxLdT9UqIQvbwZ44xGY+4//YiVgrxz74Ixud0CN2vcM+wx55nKew23BF1hn2x8oGkgbHkmh/6OuHub+r9jnyaWdI2Izv6W/QhbjnPAXXQV65r8PflnPtKvl79YkqlWhnJ3fqzIzU6VQC3CsLwXkE8PMTZbtS1m1pNMykkyNlw5O8Yr+ygPf4Jx0k+fBQ2t9/0WjNzuYBlKLhBu+trVwHGjJwT5XAnoprR3AgBrA/VdrelsjEGg3Id4vSzrK015S+P5D+chhHE/y+uyvt7eXYHxy8IAop/I5V6PDsWS6fGHjyJJ3/6SSRCfboQQxAlLhZid1hIptYI/boKEJn0Zbqbem7tvSsHXw+mjuWhgOpNZRaFd+wEmubm0Xb81xqIz/BjTmWUcfMfj4Tb8QfbUEK7PE1HSZ+pwOnDszNBcyT/MF2Ym//SNJT6SCTvmtq9LwldY6lub60M5Rqo+qJKnYjH//T3pLAAwxiJ/BGJnGPvzlHH2QTAynaHWQR9yaPfi9VAnNs3+lLWwNpry31mlLtVFrsadQ+VpZF8HnZPuylnmE/+tDfRiCLZZFn5/Q3yKatIeY4Irtiv199okoHQgWiIQVEOq7YiYqK03YkHTCi15aGI2Wn3GUy4tKPp4E11MiHLBM06IPtVpHjSc9LBm8ynTX4IztFooPCVnzN0RoR830KHZBh9hthfj7I4+CwLW1tSt8TGBESvsfnRhiQbySt4objXO3RgYbLOkpiIJX/6STptGi4Ocf/qWYSkIfNxB3kELkZHVZLejYrbRekaY6blL7UOq2eqCKbjiN0nDvpRlUIBuq52c9n4o1YxBexiaqRI3Qg/kjUASNL+ZW4f8E8YH8snW7nRHVzRtrpSDM9af5QOmRkPwJpoX0j1jmCBYnPYBA7gTeZ2AMDztGDNjBVf1P2NX1ACrsNV+wm759K+0PpYKCsS383lJ4fSrOH4nY0NL+xRlXBHZsRgi7W18eud2CAXDLtHTFHex/B71efqALc8nKeGVVLMbpH4NBINwcaHTNy0pIWlzVanpdunEgbxfSUBXuVR2s4aChoOAnWpaV8dIHzUGOqFDihLEYWuMOlwqyvpx3NBHvL+IBRzbW1tDpgPxn7ib3horS8KKkp3ahL95cmgFbBJXwPSSQzmjQ/n+sAcUrhd0xAB+RBWlZXpTt30mEPUXn+PG80iXmwxwdG1iuA+NwikE2dC/W+GFFtdKSQW1K3lY+k3V7K24D2qHqiCuYkiMK1azn22J4iIRNSSt0jEW/EHzl2hwn2yKWThqhBVpCbckQV3xP3+11p+bo0d0MaNaVBI/f3vWNpIdKIqpFS/A8WYE/8L9LmRE7UdzC3mxLOqXcLC7keKdod+jkjSNevp7HbYAVzbJ/pSzVuUtsadVal+pJ0a0nZ/UHe9DKqGitxQ0Z/Qz0De5s9jV3vsIe+hhks2llijv42As9I1IrF8tAblGtE9ebNPIBpwGInGi2CZ8R0SF+jRlOjtXXp2opGd0bS7YgK0FCQCSAIMkFDp0WjRUOaIngJVjoLKszt2+kaDmSCPXd4dJpkOivzfUTYXyoa+2mgsR/sB/PSclMa1qWNBemjSI0Wfkcm5AR/r6zkDQd1IIXfAYGOi46ThtOIaooOE9mQJWyns6bDAntuTK0evOSkij9AkqhzxBzyaLhbs1JrRsoa0m4uL7s1ku5KYtCl6okG4p5Ok7aHG8T79/MOvGJTJxaHz+mwsJ/YJ9Npkml3Yiawp95DVqkDtAN0muQURAnbsB0Mas089lbuSINMGbz9pqS76KQ4a1TxOWSNI3UAm/E/N+ixE3gjE/wZnOAz9Y62hzYnRbvDUiPkYvetW7ntse228q2vaR1Kw8Pc/8erUms17+dp6xlJjTGaig7EOrhb317u62PXO+Q/fZr7mH6HmLMb04r9fvWJKsFLNkemcB4ygrxCNvJxXJ2KWzRWFuixjmZvkFvoY9diybRykXlmc6JF3cim0pqN6GCZa+RUyeRyNH0CHsQhOaIi47LNdq6nSOZ3O5r8FLLprMr2G/7mg5g6mIxxmbXi5tDgx/fWBlQdB6bDh8DeZGM/8slcsxwT+zLmtAHWDiAbPVIks7+MPX62jK8tV62SYQwOhr9hEtt2w9rk8dnOOZJjpzL2hkVsmVa+ycbOrKZRlh/zdqh0Y1K1z01+GX/Dm2MqHMZlmmyOFaZqS6tQMS/KEXAEHAFHwBFwBBwBR2C6EXCiOt3+d+sdAUfAEXAEHAFHwBG4sAg4Ub2wrnHFHAFHwBFwBBwBR8ARmG4EnKhOg/9Zx+LJEXAEHAFHwBFwBByBS4aAE9VL5jBX1xFwBBwBR8ARcAQcgWlBwInqtHja7XQEHAFHwBFwBBwBR+CSIeBE9ZI5zNV1BBwBR8ARcAQcAUdgWhBwojotnnY7HQFHwBFwBBwBR8ARuGQIOFG9ZA5zdR0BR8ARcAQcAUfAEZgWBJyoToun3U5HwBFwBBwBR8ARcAQuGQJOVC+Zw1xdR8ARcAQcAUfAEXAEpgUBJ6rT4mm30xFwBBwBR8ARcAQcgUuGgBPVS+YwV9cRcAQcAUfAEXAEHIFpQcCJ6rR42u10BBwBR8ARcAQcAUfgkiHgRPWSOczVdQQcAUfAEXAEHAFHYFoQcKI6LZ52Ox0BR8ARcAQcAUfAEbhkCDhRvWQOc3UdAUfAEXAEHAFHwBGYFgScqE6Lp91OR8ARcAQcAUfAEXAELhkCTlQvmcNcXUfAEXAEHAFHwBFwBKYFASeq0+Jpt9MRcAQcAUfAEXAEHIFLhoAT1UvmMFfXEXAEHAFHwBFwBByBaUHAieq0eNrtdAQcAUfAEXAEHAFH4JIh4ET1kjnM1XUEHAFHwBFwBBwBR2BaEGhMi6EajXJT7RjTcGSMRspqUqMhtVrSsDVSozlSnVuDQpUoKhSyz+wtC7H/la/FOC9jnEpm2Y6yfK5/SB1GIzUaI83PSf3BSK1mIv+b3XYcx6SMV5Xn41iPf65S1qSyzM7yMaUOJov6LynLpEZ9pHY7V7ZRl2qZwv8qbwdMNqLsnGOKNElOSh1Mltlq+tjRrsc6luRkGqlWy+t6pyM1m3kcBNEx3DFuu9lY0skuRTmaHDuWhUy6Vv5/FedlGZyXP1dR/qvKKMmqFf19O5NO2iNR1yuv4+O6mL0lPcJX7Pr492N9Hpc3rs97yr36RLUM2DiY7wneK38+GqmejdRqjdQZjTTqSHWCF8RjNFamjNlox0nX7VrMY1k+56mSyS3LtGspdUBWIbfdHGllZaSsMdJMJ6L/zWazd/yYwv7zdPgQsofDMx9E77zGsQ44QFZHajZHmpvNAYC0RCWqFnd2NH/Exr9sv8madM3+V+WxbON551XKm1SW2SopEJbaSJ22tDAnzbQVBigymsGYTeG47eXPk3Su4prZXZY16VoVss4rw+Tx//L5ed+v8nphdy0bqV5XGIiYbY2UdYpBiaBTlQInlFXocGZ7+fOEr1d6yfAuy7TzCgVNB1EdDKReLx/epBWJnbrdIK9+2tdM/VhZa6hR40i1WkutgaRuRAVOTyU6aOw9Ps5bzaOj/LYe2xniiZ1MNqwcLKjBqRK29vt5xn504Fq4Q0ikhNmP3UdHmlGm28tNLXVqWqTGxfI/fsdW7EYHzmk0sD1F3AMvOoD/yUmuR0rsrZ5zRAcwIKFLbPuRia3ILRrvbJSpNpJmhjWtFiOqsyOp3peyU0m0BVUm8z1tAHrwGb1SJIs55NLGkME/Rf1HNrYiD9vBn2ks4j5Fewe+yD4+VnYyUH3QU+ukq4W6tD6ncGwcK8yw5cPsFTvEbAd7Yr2MfcWiflQceCMT+5HPZ/N76v4mpd0GRIF9bdBXc9jXbH2o5eaRZmfamuGmxNr6WN0usW7YF/1NiHvOU/S72I/f8TXn+AC5Fde7q09UqUSHh9L2dg4oDWfshMO6XTW7PS2MBpqtN5gMUjY4VvtA0nFEBSAKNBbYvLeXBxBBZMFUcQBNtGRrSzo4yBswOgwqUqoE9pbxNR01HVZKHYi1/f1cdpZpcdTVw5WGBqc1rdJ4PYsEBr432ZyTwZ+GIzZRM5OQubub400MbG6mw566jmz8HoYuawpz7imIOrLxuclutZS1uqq12po/rukWSz4kzfal5nZBWqq+ZybG0YG6zvHZs3Q3aNQz/G3tK+0M7RAkMnbsIds6a2SS7FqK9g554H1woKx7qObBjrJOW2tDaa4jdaiGO1IWizfjb9p7MCAOzWbOYyfqO5jjdzDgHH+DP0fTJaYeOzt57CGLvsdiIKZMKxvMj45UPzxS+7inmupqN+satgahrmfPIkMAUaWft74eDIiHVG2+9TfUc2QTh05ULTre4khFsjtunJoiiAmUbleNwbEatROpTj7MF6ZBUmMTVWym4aAS0Vhwju0EEjl2giiCAclkx5Zp5VuHZUeuU3nAJFXCZrO/2dRs+1SzyyWyyM1KjISNhj1+tw4jQsNxrvroAPZ0kkU9CLF37g8q/Ad1G/up7+iAH9AjRaONHOQhn/OTE2UhDzRbq2mWJR8kwjDWfRt4k5GP/dZpFKKjHiAm2I9cEu0M8UeyY/6p+r/Yi934vdy+W5tXvcQfl1jYzmBEfXCk+uBA7bq0NFd8leawaBJ//OP3vGL9m/me4lLcnCGH+m51Ht+DP1hYX5Oiv0EetiOLc+p7qoTcXk+1475aw55a9brmOl2pk+V1/TCiIsQ3qYi9l/p6a/8jij+TDQboQnuD/5Fdsd+v/ogqQcuK9vl5aXY2z7GdR2eFXCouDTiNxuKitLAQW3IeKDQcBIsFDXLn5qIE0ESDkAsGMzO53chOkagsjCAi2zpHfA/2qXTATuyn80A22INDio4Dv4MBHTf2IpuneFIQNfMvOjCqiR9S+x+7rdMu22+jq6ZjjKONIIE18sj4n2yxGENuuUzintElsKetW1pKN6IK7thOJtFR0eaS7VpZ1yrPwR7b6TCtDiCXGKi4wzxXbWxkRJH6h+zl5XO/Wvk/sBv5tDHUARJtHv6PnWjryMgGezLtDjkCYTnXHPyPr5GbEnv6eOo69uMDMjqAf+xErJFJ1D/wRjZxjx4p2h38Tf2jn8Fm2nzkViz76hNVAKOzsEYTJ8ZOBC6VhmAhgAhiAihlw4GNBJBVHOSDRYqGm4aTaUAjKmCfKoG1VRIqkREW7E+VsJ+7XOy3hqOsVyw9rNFAPnbTcNCApJBtNqEDJIk6kNr/xDu4Mw2GDmCPDuhiMWF6Vn1ENon6BVE0oo782LLNFsOc44cgqqaHtTHgT5sX235rY7Eb0kRCdgqyYDZzBHPk096laOtNNmTJ+huLQ8PevhPriL2QY/oZzsnIhiyik8VCLPmUi0xuEkip7M6l5fWc+CZjKzFI3KXwvxFV2lxioNzXcx673oEB8YZsOBZ2UwcMD8OoguPVJ6pWgQkgOg/bJ6YC8M4tgoqLPI4EEUQhlWxrOJCPXAKWc3Kq4DVZyOc8BeY4g4oLzlQeyBryU2JvAYHNZjv6kPkM/jETvi/L5hzZHFM0WthmOmCrYZDK/9ZRWMwb9tgfG3uTjSzLJj+2bIspIwz42uIeXVIlZCEXLAwPMEhhP3We2MN2aweQjR4pErZjJxkMUsU8tmE3MsnYbtin0IGYA3O7WTDZ4MF1cuxk2CMbn6ew22yyvt7w54g+KXQwoorNyCX2kE22z6ZnrKPJMrlW3yv2+3QRVcAEyNiJSossazwteFPIptEiYMeDN1IATYSyHLzITWE3ilgHZfiDOzmlDuiB/dZhmewUDUeZJFqsI5/zihuOiX7not2YIc/iMJX/6agM57LfkZ/CfuQg17C3IzikSLQ3yMdWsx8dUiTqHrJMHjqABzm2/ci2tpYYIBn29jk2BuZ7bDXZsWVa+WWyBBbYnEoH/ExGHjFHMtn2P9Mz1tFkp7TbbCHuTD72k81++07Mo/V5yCy3t+gRu95hV9n2cn3H9xWm6SCqAEYQW64QwIlFjcuxzxxjp7Kssrzy9RQ6mAyTa59jH03epGNs2Va+yeazndvRvhPjaDI4ksqf7VoMueUyx2Xa5/J3Yp6bPLN3/HMs2ZPkpZJtNpk8Ptu56WXfiXUsy7HzVDqU5XBuZM2ux7K5XC6yLKWUi0yTN+loOsU6niezfD2WbCsXWZZMrn2OfTTZJrd8jC3byjeZ459NN7se42gyTIfysUJ51dLeChXzohwBR8ARcAQcAUfAEXAEphsBJ6rT7X+33hFwBBwBR8ARcAQcgQuLgBPVC+saV8wRcAQcAUfAEXAEHIHpRuClNaoj3kk/Gmk4HOr09FQnLNIOz6iMlGWZarWa6vV6yJxz7U0S5VEW2WTwO35PeY1GI5TNZyuT7w0Gg4m/QTa/4bfl37yJLv4dR8ARcAQcAUfAEXAEHIHLgcCPiCrk8Pj4WIeHhyFDMskQw1arpZmZGc3NzaldbL9gxPI8c41w7u3t6eDg4IwE831+S3kLCwvqdDpn5NNk8v3d3d1Amrlmv0H24uKiZmdnz4jzefL9uiPgCDgCjoAj4Ag4Ao7A5UTgJaLKKCoEFYIIsSSTIJQ2mgqpJNnIKsfzEuQS4tvtdvX8+fOQrRz+hzxIb7/fD8STspHFb3q9njY3N/XDDz+cyTMCC6lldJbPEF2yJ0fAEXAEHAFHwBFwBByBq4XAS0QVcvj48WM9efLkjJzOz8+LDGn9/vvvw8jnxx9/HP7PiOarSCIEdGdnJ5DNP/3pT/rmm2907969kCHEjJY+ffo0kM719XU9evRI165dC9e4/t1334V8/fp13bx5M3wPwguRhcCurKzo/v37unPnztXyilvjCDgCjoAj4Ag4Ao6AI6CJRPU3v/lNIIHLy8theh1C+uzZM/3lL38J0/OQU5t2fx1RZVT066+/1u9+97vwe0ZQHz58qP39/UB+IaOQzhs3bgiyurS0FIjql19+eUZUGbW9e/fu2Sjr1tZWGOFFP8pzouqR7Ag4Ao6AI+AIz7peggAAECFJREFUOAKOwNVDIBBVptEZ/YRUMqIKIWUN6O3bt7W2tiYIIaOfq6urYWkAI6NM2zMCyv/Gkz2QxSjsV199pT//+c9hfetnn30WCCdlQnCRcXR0pF//+tfa3t4Oo6NM5//nf/6nIMt875NPPgkjsJwzgsq0P/r97//+bxjhZaT1o48+CtdZu/q6NbPjun6oz+xJXU5v+Fxa+Sd+7gg4ApcQAa/7l9BpFajsfq8AxEtYhPv9/Z0WtqeCqLKOlJFKI6oQRogq0+6QUTJkkTWmENXf//734fumQvlpfs4hskZUIas8iAWxZWQUwsvxiy++COWypOC3v/2t/vjHP4b8q1/9Sv/+7/8edPr0008DUWW0lZHTX/ziF3rw4EEYkWWUFl0g0SxbQO5FT6hoao6fX3TdXb9qETD/27Ha0r20i4iA1X10s3P3/0X0VLU6TfK1XatWkpd2URAo1+uyr8vnF0XXi65HGFFlNJWpfabhWTtKgljycBMjn/bEP9PsnPOwFcSQ79pvWTvKCCmjnvaAFeSXkVKm+SkH4svUPmVAeEksIUAO5VEG11kKAMltNptnRBl9+ExmVJUjCfnow7WLmkLADqXjnvT8eZ67XQmoeQ6M59NWVqTVVWl+PoIVPlwbAdS3L5Ld3vD5wcGLOKAa8Dwi/r92LY8FNtSw12a/vRT/xUVDwDos6vz2trSzI/GcKnFAfZ+bk9bXc//zumyvrhfNg++mj/kdn29tSbu70v5+foOC3xcXc5+vrb1b+f6ri4dAua/f3Mz9js+p6+W+nvpOvff0ZggEosr0O6Oa3377bSCMkD4y5BJCyHQ65NJIK99nxBUiyjlT8f/93/8dpu4ZAYXQQlb5PySV7/DbjY2NQErL0/NcZ7SU7/DgFUeWILBFFlP5/I+HuYz8YhZk1vRDDwgzBPgij6ienkpHR9Jf/iL9z/9IbGbw/fd5B3X3rvTpp9Lnn0ciqm8WC/6tiAgw1j8Y5ETlm2/yGCAOIKSQk5/8RPrFLyRiAfLqRDWiMxIXTefF7np0WF99Jf3xj9LXX+f1/+ZN6cYN6Wc/y29SiAVPVwMBfE67//Sp9Lvf5W3/48d5LNy6Jd2/L/3855IT1avh72BFUdfp66njv/2tRHv/7be5n3nu++HDvM13ovrmfg9ElafobUsqlgFACiGmNvIJsYQcGlmETPIbyCTJ1rhyjSl/MqSR/zPiyXXKgnAyMlpOlAkhpXx0IENwKYPfMOLKb8rklnPLfA8Z6HBREw3WcV/aO8o7qX/913xE7dmzfBSVQIbE0GmRPV0tBCCpkJV+P++0ICqQ1P/3/3JCyuQAVWlpiRkGiRFV33Ht6sRAqP/H+ejKl19Kv/rVC6J6/bq0sZGPrtCBFbv/+ajqJXc/9Z0uiTpP+/7rX0v4nnPIKz5nlJVZlC++uOTGuvpnCFhdt77+3/4tvyFlUIpZsydPcv8zIOF9/Rlsrz0JRJVRSUglGeIHabRcJoiUxv8hqvZdiCZT9zy1bw87cY0yyXyfI+WVia9pBqElQzQp14gn15DNbyivrAf/43tGlo0gc/0iJhtN3TqU/vAHCaLa6+UjrN99J/31r/kd1t/8zUXU3nV6bwSKdcn4HH/TYf3pT9Kf/5yXzAgqBPX27fyumwaN7OlqIABhYYSFG1NGWP7jPySmBVkCwDVmWR48yNsEmjCf+r8afufmk6U+jKJyc8INKj6nP6AdYISdWRRPVweB02Fej7cP8r4eosq0PxmySiwwkvrLX14dm1NYEoiqEUXIopE9G7EsE0QU4v9GQPkMkeRBKx50gqgyAspvILL2Xb5PgqyOlxf+UZQL+UQHvm96TPoN/yvn8vetvIt0pPMhgLm7poOCmAIJDRajaaxXY3oIIuPpiiJQjLDQcTGSYtmIiREX/n+BJweuqHPimoWPqe+sUWWNOtOAtkYVf0NeWMfofo/rh9SlWxuPryGmZGKAdh+Sys0pBMbT1UEg9PWnL/f13LAwY8pyLtYpc3Pqff3b+TwQVX5ixNR+bkTQPtsR4mhT9fZwE+tIy+taIak2FV8u97wyKZtyKY/RU7Il+02Z4HJu34Mo20it/eaiHRkxazXz6VymdHnui06JzGfusMi+LvGiea5CfbL8oSmm9fE1MVA8DxjWpPKZzMoY4sXT1UEAf+Jr8zFHOiquUf+tTXC/Xx2fYwntOfXd/M65ERZIKg9Uja2Eu1oATKE1VtfLfrcZEmv7va9/+8AIRNVIIkSRcxuhHCeJfDaiCjnk+xx5kIlcTqwb5btkiCVlQl75TDll4mmfIbsk1qTa92yE1crh//zWyKrpMb48oKzLhz4PwdvK76CZ0mVtCqOrZBortqJlrVJh/odW1+VXjUAmZUXHhb95eILMk58k7sv4bGtU/Yalagd82PKs84KcsLMH6xMhqZAU1qSSaQPc7x/WT1VLN6JKvWYtMiOrtPGMuvHEPw/RQVo8XR0EapnUHOvrmTVhJB1fEwu09ZBWT2+OQCCqjJCyRyqvL2WLKvZTZVQUskmCDBrRhFTyfRJEdVKCVPI/iCdLATiyjpSn+tnCqvxAFUTUHp6y7bDYKou9UfkN21RBQtkdwEZa0YFlAmRkoY/9b5I+H/oad1R0Sisz0t//fb4GjSkAshGXR4/yxuxD6+ryq0cAkgpTZeSMJ31JkBYICwkiw64PP/2pxNPA3nnluFyVv9yIUP+5Qf2nf8o7Kqb/WP4BYaHzYq0ifrfRl6ti+7TagR/xO10lO3r8y7/k6xNZ+sGSAG5MqOusTfZ0dRDIitlTBqRYh8rNCst6yNRvrrO7jw1SXB3L41ryI6IKibSHlCCrEEBymahCPLl2HlG1/0Eg2aqKI2WxpyrlQ0htRBWiykNUHG0fVl46QNnoYXuwlskouowTVcj0RU0QkUBUF3OiCilheyrWpUJUudvmLovRFk9XEwE6LojqvXu5ryGpH3+cExP+RwzwJCgd2Dn3f1cTmCmwivpPZgSNG5TPPsvXqUJW6bjIzKgYUXWyejWCgi6JzG4O1Hfae9apsuSLtp42H797ujoIhLrelFYWpb/7u9z3+JwHqZg5weeQVCeqb+fzl4gqryPlTVRsvA+RhCTa6Cgb8ttIK6OvkEq2m4KAcp3MNR6sgqhCHPl869atQDj5Pa9ShYCyppVRVDKjrJBUCC0vBLh3716QCxGlDEgr5fF/G2FFP0ZVIbwsOUAmI65Gft8OgnTfNrKCRBowRlLK61acoKTzxYeQRCOGjyErEFNuXkjEBTcsEBXiwonKh/BOfJmMsOF7EueQFVujiv/d9/F98CEkUM/xLwl/8zAVcUB957Onq4cAbb35lnNmTujrze/e17+dz8+IKq81hTgy/Q/xg6BCVG1UFKLJiCjLASCqkFojqrwsgNef8uQ/5JLr/A6iCvmEzPJ7XqUKSYVkMopqU/wQVZYI8Htes8p0P3IgqE+ePDkjvJTDW6v4HaOqZaLKSO1FJ6oWvKxTgqQyBQQp4bod3859/u3LhAA+hozYlCB315aIAa7zHbKnq4cA/qXzKtf/ct3n3NPVQwCiSr2HmNpIWtnvV89itwj/Us8hp5BU6+utn/e6/nYxEogqBI+RTojf3bt3A2GF+LFeFYLJm58Y+eR7kE9IKiOlNsrJm6R4OxUkFZLLkfL4P+VBTBkZ5XtPnz7V119/HdagMjIKGf3Zz34WRkYZTYXIPnz4MFyHOLNWFXLKyCnk9Ztvvgn6QYAfPHgQiLAtC7joRBXXWIDSaXmaPgSMiBIHdF6epgcB8z0We/2fLr+bv73OT4/fva+vztdnRJUimT6HLEIeGU1lNBOiyLQ+I6CQT5vOh6zy2daeQkQZSeU1qYyOkiGqlMf3ILqQTEjn73//+zPyi8x/+Id/CL+D1EJIIaoQ1t/85jeB2EKYGeFFFkQX/T755JNAUnnRAMT4MpDU6tzmJTkCjoAj4Ag4Ao6AI3D1ETgb04HoMTLJ1D/Ej+l1yKFNqUM6IZWMmEIiGX1lpJTMRv9M27MkAIIKMbW1rRBbpukhoYyIQkQhmjyQRVn2W8q0JQNcQxYkmWUAnFMmOrJEARkQYEZ1OUfWuYkxdzav49Uw3M6+6rvnFvKW/2AvCuTZHlQsSuKaLUp8y+Le6uvIMnnIx15km+0p7Md2djlGJrJtOOGtDHmHL7Pvi2HPRpXYn1oH1DbfYzf6MJRm+L+DWW/8E/xusrEf2cR/CtmmJPKQzRMjxEBK/1PPkY1cjmBBTHA9dtxbG4NcMMAXyCanin+wJubBniP74qRaDIc8bOdIIubRB/mx7bc4Q77hjmziHj1SJOShh8UB2KdKxDkZ+/E9ic8pdABvZJp8a4PAA+xj1zuzFewt5lLYnaOcxzi4W+yb/Sl0oG0hgTXyqWf4gbjnPHa9QzbyqPP4mXPzecV+PyOqyISgQiwhrBBRHqyCiEI0IYqQS0ijkVF+A0lkXSkkld9APo1Y2v8hoJ9//nkglpRHgnSS+S6/o2wjo0ZkmdqnPOTzO2SRTT/0QOdXJgscNrGjQuHQ2AmHEag4kAqEjmR0iZ2sk7T3thEwyMZ2zlM03Oy7hf3Yy0IdMEiVwJ6KS+YcPLhBSKlD2X4aC+KAY8WV90eQYiuy8b01YtieQrYpgw7Ix2ZigH1ZUmFPjFPP8Ts6EPcsEuMYG3tk87oh4g5yRqatQZfYsg17ZIE5eGM/+19he4oEQTP7kUc7QwzSBsS2H9llooB84hCfpErYDvb4gBjkVXOpEnUNf4MBNoM9dd7agJh6GM5W5/A3MYds9EjR3/BqN7BHFu1fygTm1tdwju20uSn6euwEZ2vzqWfIpz6kavOtryPukA0G6FGx319qxSCBEEdIIyQQksiT9mRGVhlVHSeGkErbLcCIpJFQcOSc8piiZ1kASwhY90o5lMmRMvieJSsH8ssIKiOx9nCVEVor235z7pGKhOOozMhIUXlxFpkOA9kELRWZ4ImdsBd5yMdmgoZzbI8QQBPNMduRh90l3078fpUXkWe2gz+yU+tg9iObc2IuRcOB7002jQZ204CkkG0+RAfiDrngnxJ7ZCLb6jtYoE8K+5GNPDL1j4xsMvUgRTLfGw50oMRBigTmyAd/ErGP7JTYW1tLfQPzVLhjL3Fu7T0YgH2qhDzDHt9bu5NiNJ34Lvc3fEYXfI8e5NjJ4h5Z+CGF3WYTsg17/AAW6EDcp0jEuskv97ep4t+wx1bsRp8Ifp/YikEajTxCJO1hJQjkpGTXjaCWSef49yGnRkTtOP4d+2zl2VICvo9epFfJsN8XX3wBHPqnCCALEnOYyU0h24w3HeyIbPThc+yEDLMduansLhNC04FjSh3Atiy7LJ/zmMn8a8eUss0u87sdU2JvBMVkGw7oEBt7k40cy2Z7bNmGPfLMdmSafPt/zKMRcrM1JfbIxlYjaSYbXThPkSZhn0IuMpCNrZbNfq6nSOXYR57pkQp/k4Pd2JzKbmw17A1zsz2FDuBext5kczS9YvvfsC/LtmsVyv7/walDKqx9mYQAAAAASUVORK5CYII=;" parent="WWeYNiVOzWscjV635nap-30" vertex="1">
          <mxGeometry x="12.156456276253323" y="8.400000000000006" width="188.53308602913097" height="71.87823904860619" as="geometry" />
        </mxCell>
        <mxCell id="WWeYNiVOzWscjV635nap-4" value="ECG Signals" style="text;html=1;strokeColor=none;fillColor=none;align=center;verticalAlign=middle;whiteSpace=wrap;rounded=0;shadow=0;glass=0;dashed=1;sketch=0;fontSize=9;" parent="WWeYNiVOzWscjV635nap-30" vertex="1">
          <mxGeometry x="214.9277180732093" y="35" width="77.57350935573618" height="20" as="geometry" />
        </mxCell>
        <mxCell id="eN-WV_VvRqyreEzH0uXg-81" value="256x1" style="text;html=1;strokeColor=none;fillColor=none;align=center;verticalAlign=middle;whiteSpace=wrap;rounded=0;shadow=0;glass=0;dashed=1;sketch=0;fontSize=9;" parent="1" vertex="1">
          <mxGeometry x="244.43" y="410" width="70" height="20" as="geometry" />
        </mxCell>
        <mxCell id="WWeYNiVOzWscjV635nap-40" style="edgeStyle=orthogonalEdgeStyle;rounded=0;orthogonalLoop=1;jettySize=auto;html=1;exitX=1;exitY=0.5;exitDx=0;exitDy=0;sourcePerimeterSpacing=0;targetPerimeterSpacing=0;strokeColor=#000000;strokeWidth=1;" parent="1" source="WWeYNiVOzWscjV635nap-38" edge="1">
          <mxGeometry relative="1" as="geometry">
            <mxPoint x="350" y="491" as="targetPoint" />
            <Array as="points">
              <mxPoint x="425" y="545" />
              <mxPoint x="425" y="491" />
            </Array>
          </mxGeometry>
        </mxCell>
        <mxCell id="WWeYNiVOzWscjV635nap-44" style="edgeStyle=orthogonalEdgeStyle;rounded=0;orthogonalLoop=1;jettySize=auto;html=1;exitX=0.5;exitY=1;exitDx=0;exitDy=0;entryX=0.5;entryY=0;entryDx=0;entryDy=0;sourcePerimeterSpacing=3;targetPerimeterSpacing=3;strokeWidth=1;shape=flexArrow;strokeColor=#8C8C8C;" parent="1" target="eN-WV_VvRqyreEzH0uXg-95" edge="1">
          <mxGeometry relative="1" as="geometry">
            <mxPoint x="330.615" y="580" as="sourcePoint" />
          </mxGeometry>
        </mxCell>
        <mxCell id="WWeYNiVOzWscjV635nap-38" value="IACM" style="rhombus;whiteSpace=wrap;html=1;shadow=0;strokeColor=#6c8ebf;fillColor=#dae8fc;fontSize=12;" parent="1" vertex="1">
          <mxGeometry x="256.45000000000005" y="515" width="148.33" height="60" as="geometry" />
        </mxCell>
        <mxCell id="WWeYNiVOzWscjV635nap-41" value="Train&amp;amp;Validation" style="rounded=1;whiteSpace=wrap;html=1;shadow=0;strokeColor=#d6b656;fillColor=#fff2cc;" parent="1" vertex="1">
          <mxGeometry x="431.28" y="501" width="97.37" height="30" as="geometry" />
        </mxCell>
        <mxCell id="WWeYNiVOzWscjV635nap-45" value="NOR" style="rounded=1;whiteSpace=wrap;html=1;shadow=0;strokeColor=#8C8C8C;fillColor=none;" parent="1" vertex="1">
          <mxGeometry x="150.10999999999999" y="678" width="34.58" height="20" as="geometry" />
        </mxCell>
        <mxCell id="WWeYNiVOzWscjV635nap-46" value="LBB" style="rounded=1;whiteSpace=wrap;html=1;shadow=0;strokeColor=#8C8C8C;fillColor=none;" parent="1" vertex="1">
          <mxGeometry x="200.73000000000002" y="678" width="34.58" height="20" as="geometry" />
        </mxCell>
        <mxCell id="WWeYNiVOzWscjV635nap-48" value="RBB" style="rounded=1;whiteSpace=wrap;html=1;shadow=0;strokeColor=#8C8C8C;fillColor=none;" parent="1" vertex="1">
          <mxGeometry x="248.50000000000003" y="678" width="34.58" height="20" as="geometry" />
        </mxCell>
        <mxCell id="WWeYNiVOzWscjV635nap-50" value="PVC" style="rounded=1;whiteSpace=wrap;html=1;shadow=0;strokeColor=#8C8C8C;fillColor=none;" parent="1" vertex="1">
          <mxGeometry x="292.3999999999999" y="678" width="34.58" height="20" as="geometry" />
        </mxCell>
        <mxCell id="WWeYNiVOzWscjV635nap-52" value="PAB" style="rounded=1;whiteSpace=wrap;html=1;shadow=0;strokeColor=#8C8C8C;fillColor=none;" parent="1" vertex="1">
          <mxGeometry x="338.8499999999999" y="678" width="34.58" height="20" as="geometry" />
        </mxCell>
        <mxCell id="WWeYNiVOzWscjV635nap-53" value="APB" style="rounded=1;whiteSpace=wrap;html=1;shadow=0;strokeColor=#8C8C8C;fillColor=none;" parent="1" vertex="1">
          <mxGeometry x="383.6499999999999" y="678" width="34.58" height="20" as="geometry" />
        </mxCell>
        <mxCell id="WWeYNiVOzWscjV635nap-54" value="VEB" style="rounded=1;whiteSpace=wrap;html=1;shadow=0;strokeColor=#8C8C8C;fillColor=none;" parent="1" vertex="1">
          <mxGeometry x="431.2799999999999" y="678" width="34.58" height="20" as="geometry" />
        </mxCell>
        <mxCell id="WWeYNiVOzWscjV635nap-55" value="VFW" style="rounded=1;whiteSpace=wrap;html=1;shadow=0;strokeColor=#8C8C8C;fillColor=none;" parent="1" vertex="1">
          <mxGeometry x="478.6499999999999" y="678" width="34.58" height="20" as="geometry" />
        </mxCell>
        <mxCell id="eN-WV_VvRqyreEzH0uXg-128" value="&lt;b&gt;Preprocessing&lt;/b&gt;" style="text;html=1;strokeColor=none;fillColor=none;align=center;verticalAlign=middle;whiteSpace=wrap;rounded=0;shadow=0;glass=0;dashed=1;sketch=0;fontSize=9;" parent="1" vertex="1">
          <mxGeometry x="213.4" y="295" width="79" height="20" as="geometry" />
        </mxCell>
      </root>
    </mxGraphModel>
  </diagram>
  <diagram id="z4kC-6VMRsCxVH7KARrV" name="中文">
    <mxGraphModel dx="1185" dy="634" grid="1" gridSize="10" guides="1" tooltips="1" connect="1" arrows="1" fold="1" page="1" pageScale="1" pageWidth="827" pageHeight="1169" math="0" shadow="0">
      <root>
        <mxCell id="JzI5cQmfPr15dhNoTTF8-0" />
        <mxCell id="JzI5cQmfPr15dhNoTTF8-1" parent="JzI5cQmfPr15dhNoTTF8-0" />
        <mxCell id="jJ7y8H1RoMSDKaFRN04o-0" style="edgeStyle=orthogonalEdgeStyle;rounded=0;orthogonalLoop=1;jettySize=auto;html=1;exitX=0.5;exitY=1;exitDx=0;exitDy=0;entryX=0.5;entryY=0;entryDx=0;entryDy=0;sourcePerimeterSpacing=0;targetPerimeterSpacing=0;strokeColor=#000000;strokeWidth=1;" edge="1" parent="JzI5cQmfPr15dhNoTTF8-1" source="jJ7y8H1RoMSDKaFRN04o-8" target="jJ7y8H1RoMSDKaFRN04o-27">
          <mxGeometry relative="1" as="geometry" />
        </mxCell>
        <mxCell id="jJ7y8H1RoMSDKaFRN04o-1" style="edgeStyle=orthogonalEdgeStyle;rounded=0;orthogonalLoop=1;jettySize=auto;html=1;exitX=0.5;exitY=1;exitDx=0;exitDy=0;entryX=0.5;entryY=0;entryDx=0;entryDy=0;sourcePerimeterSpacing=0;targetPerimeterSpacing=0;strokeColor=#000000;strokeWidth=1;" edge="1" parent="JzI5cQmfPr15dhNoTTF8-1" source="jJ7y8H1RoMSDKaFRN04o-8" target="jJ7y8H1RoMSDKaFRN04o-28">
          <mxGeometry relative="1" as="geometry" />
        </mxCell>
        <mxCell id="jJ7y8H1RoMSDKaFRN04o-2" style="edgeStyle=orthogonalEdgeStyle;rounded=0;orthogonalLoop=1;jettySize=auto;html=1;entryX=0.5;entryY=0;entryDx=0;entryDy=0;sourcePerimeterSpacing=0;targetPerimeterSpacing=0;strokeColor=#000000;strokeWidth=1;" edge="1" parent="JzI5cQmfPr15dhNoTTF8-1" source="jJ7y8H1RoMSDKaFRN04o-8" target="jJ7y8H1RoMSDKaFRN04o-29">
          <mxGeometry relative="1" as="geometry" />
        </mxCell>
        <mxCell id="jJ7y8H1RoMSDKaFRN04o-3" style="edgeStyle=orthogonalEdgeStyle;rounded=0;orthogonalLoop=1;jettySize=auto;html=1;exitX=0.5;exitY=1;exitDx=0;exitDy=0;entryX=0.5;entryY=0;entryDx=0;entryDy=0;sourcePerimeterSpacing=0;targetPerimeterSpacing=0;strokeColor=#000000;strokeWidth=1;" edge="1" parent="JzI5cQmfPr15dhNoTTF8-1" source="jJ7y8H1RoMSDKaFRN04o-8" target="jJ7y8H1RoMSDKaFRN04o-30">
          <mxGeometry relative="1" as="geometry" />
        </mxCell>
        <mxCell id="jJ7y8H1RoMSDKaFRN04o-4" style="edgeStyle=orthogonalEdgeStyle;rounded=0;orthogonalLoop=1;jettySize=auto;html=1;exitX=0.5;exitY=1;exitDx=0;exitDy=0;entryX=0.5;entryY=0;entryDx=0;entryDy=0;sourcePerimeterSpacing=0;targetPerimeterSpacing=0;strokeColor=#000000;strokeWidth=1;" edge="1" parent="JzI5cQmfPr15dhNoTTF8-1" source="jJ7y8H1RoMSDKaFRN04o-8" target="jJ7y8H1RoMSDKaFRN04o-31">
          <mxGeometry relative="1" as="geometry" />
        </mxCell>
        <mxCell id="jJ7y8H1RoMSDKaFRN04o-5" style="edgeStyle=orthogonalEdgeStyle;rounded=0;orthogonalLoop=1;jettySize=auto;html=1;exitX=0.5;exitY=1;exitDx=0;exitDy=0;entryX=0.5;entryY=0;entryDx=0;entryDy=0;sourcePerimeterSpacing=0;targetPerimeterSpacing=0;strokeColor=#000000;strokeWidth=1;" edge="1" parent="JzI5cQmfPr15dhNoTTF8-1" source="jJ7y8H1RoMSDKaFRN04o-8" target="jJ7y8H1RoMSDKaFRN04o-32">
          <mxGeometry relative="1" as="geometry" />
        </mxCell>
        <mxCell id="jJ7y8H1RoMSDKaFRN04o-6" style="edgeStyle=orthogonalEdgeStyle;rounded=0;orthogonalLoop=1;jettySize=auto;html=1;exitX=0.5;exitY=1;exitDx=0;exitDy=0;entryX=0.5;entryY=0;entryDx=0;entryDy=0;sourcePerimeterSpacing=0;targetPerimeterSpacing=0;strokeColor=#000000;strokeWidth=1;" edge="1" parent="JzI5cQmfPr15dhNoTTF8-1" source="jJ7y8H1RoMSDKaFRN04o-8" target="jJ7y8H1RoMSDKaFRN04o-33">
          <mxGeometry relative="1" as="geometry" />
        </mxCell>
        <mxCell id="jJ7y8H1RoMSDKaFRN04o-7" style="edgeStyle=orthogonalEdgeStyle;rounded=0;orthogonalLoop=1;jettySize=auto;html=1;exitX=0.5;exitY=1;exitDx=0;exitDy=0;entryX=0.5;entryY=0;entryDx=0;entryDy=0;sourcePerimeterSpacing=0;targetPerimeterSpacing=0;strokeColor=#000000;strokeWidth=1;" edge="1" parent="JzI5cQmfPr15dhNoTTF8-1" source="jJ7y8H1RoMSDKaFRN04o-8" target="jJ7y8H1RoMSDKaFRN04o-34">
          <mxGeometry relative="1" as="geometry" />
        </mxCell>
        <mxCell id="jJ7y8H1RoMSDKaFRN04o-8" value="分类结果" style="rounded=1;whiteSpace=wrap;html=1;fillColor=#f8cecc;strokeColor=#b85450;" vertex="1" parent="JzI5cQmfPr15dhNoTTF8-1">
          <mxGeometry x="185.42" y="618" width="290" height="16" as="geometry" />
        </mxCell>
        <mxCell id="jJ7y8H1RoMSDKaFRN04o-9" value="" style="rounded=0;whiteSpace=wrap;html=1;strokeColor=#8C8C8C;" vertex="1" parent="JzI5cQmfPr15dhNoTTF8-1">
          <mxGeometry x="185.62" y="280" width="290" height="180" as="geometry" />
        </mxCell>
        <mxCell id="jJ7y8H1RoMSDKaFRN04o-10" value="" style="edgeStyle=orthogonalEdgeStyle;rounded=0;orthogonalLoop=1;jettySize=auto;html=1;shape=flexArrow;endSize=5;targetPerimeterSpacing=3;sourcePerimeterSpacing=3;strokeWidth=1;startSize=5;strokeColor=#8C8C8C;" edge="1" parent="JzI5cQmfPr15dhNoTTF8-1" source="jJ7y8H1RoMSDKaFRN04o-19" target="jJ7y8H1RoMSDKaFRN04o-9">
          <mxGeometry relative="1" as="geometry" />
        </mxCell>
        <mxCell id="jJ7y8H1RoMSDKaFRN04o-11" style="edgeStyle=orthogonalEdgeStyle;rounded=0;orthogonalLoop=1;jettySize=auto;html=1;exitX=0.5;exitY=1;exitDx=0;exitDy=0;" edge="1" parent="JzI5cQmfPr15dhNoTTF8-1" source="jJ7y8H1RoMSDKaFRN04o-12" target="jJ7y8H1RoMSDKaFRN04o-15">
          <mxGeometry relative="1" as="geometry" />
        </mxCell>
        <mxCell id="jJ7y8H1RoMSDKaFRN04o-12" value="编码" style="rounded=0;whiteSpace=wrap;html=1;fillColor=#dae8fc;strokeColor=#6c8ebf;" vertex="1" parent="JzI5cQmfPr15dhNoTTF8-1">
          <mxGeometry x="382.63" y="295" width="80" height="30" as="geometry" />
        </mxCell>
        <mxCell id="jJ7y8H1RoMSDKaFRN04o-13" value="分段" style="rounded=0;whiteSpace=wrap;html=1;fillColor=#dae8fc;strokeColor=#6c8ebf;" vertex="1" parent="JzI5cQmfPr15dhNoTTF8-1">
          <mxGeometry x="382.63" y="414" width="80" height="30" as="geometry" />
        </mxCell>
        <mxCell id="jJ7y8H1RoMSDKaFRN04o-14" value="" style="edgeStyle=orthogonalEdgeStyle;rounded=0;orthogonalLoop=1;jettySize=auto;html=1;sourcePerimeterSpacing=0;targetPerimeterSpacing=0;strokeWidth=1;" edge="1" parent="JzI5cQmfPr15dhNoTTF8-1" source="jJ7y8H1RoMSDKaFRN04o-15" target="jJ7y8H1RoMSDKaFRN04o-13">
          <mxGeometry relative="1" as="geometry" />
        </mxCell>
        <mxCell id="jJ7y8H1RoMSDKaFRN04o-15" value="去噪" style="rounded=0;whiteSpace=wrap;html=1;fillColor=#dae8fc;strokeColor=#6c8ebf;" vertex="1" parent="JzI5cQmfPr15dhNoTTF8-1">
          <mxGeometry x="382.63" y="353" width="80" height="30" as="geometry" />
        </mxCell>
        <mxCell id="jJ7y8H1RoMSDKaFRN04o-16" value="" style="edgeStyle=orthogonalEdgeStyle;rounded=0;orthogonalLoop=1;jettySize=auto;html=1;sourcePerimeterSpacing=3;targetPerimeterSpacing=3;strokeWidth=1;shape=flexArrow;strokeColor=#8C8C8C;endSize=5;startSize=5;" edge="1" parent="JzI5cQmfPr15dhNoTTF8-1" target="jJ7y8H1RoMSDKaFRN04o-25">
          <mxGeometry relative="1" as="geometry">
            <mxPoint x="330.29999999999995" y="464" as="sourcePoint" />
          </mxGeometry>
        </mxCell>
        <mxCell id="jJ7y8H1RoMSDKaFRN04o-17" value="" style="shape=image;verticalLabelPosition=bottom;labelBackgroundColor=#ffffff;verticalAlign=top;aspect=fixed;imageAspect=0;image=data:image/png,iVBORw0KGgoAAAANSUhEUgAAAfQAAACnCAYAAADnu65nAAAgAElEQVR4Ae2dCZRUxdXH78x0T88+zMIyM+yM7KjsIAiMIgguEREVNdGoUTHuIcbw+WGiuIB+RkVNYtC44BoOYsSFqCgIiIAoiwoosgwwC8y+r/2df5E39kwv08vrnn7d/5rzznS/rlev6veq3q1761ZVhNVqtQoDCZAACQQ5Abyq5syZI/v37xd8LioqkpkzZ8qjjz4qSUlJQZ57Zo8E/E8gggLd/5B5BxIgAX0I5OXlyeHDh6Wurk4J8QEDBkhsbKw+iTMVEjA4AQp0gz9AZp8ESIAESIAEQCCSGEiABEiABEiABIxPwNRRRXj55Zdl06ZNYjabOyoLvC8JkAAJhD2B5ubmsGdgJAANDQ2Sk5Mjc+fOtct2h5ncL7nkEuncubOMHj1ampqa7DLGEyRAAiRAAv4nEBER4f+b8A66EDCZTLJ+/XolM1966SW7NDtMQ9c8Vs866yy7TPEECZAACZAACZCAPYGUlBRZsWKF/Q8dPYYOT1UGEiABEiABEiAB9wjU19c7jUinOKdo+AMJkAAJkAAJGIcABbpxnhVzSgIkQAIkQAJOCVCgO0XDH0jANwINTQ3y7r53ZUf+Dt8S4tUkQAIk4AYBCnQ3IDEKCXhDoKqhSu75+B55Z+873lzOa0iABEjAIwIU6B7hYmQScJ/AsYpjUl5XLsU1xZJfme/+hYxJAiRAAl4QoED3AhovIQF3CHx68FO5aeRNEmeOk61Ht7pzCeOQAAmQgNcEKNC9RscLScA1gU8PfCpzh8yV7NRs2Vm4U5qauYCSa2L8lQRIwBcCFOi+0OO1JOCEQH5FvjK1903rKyMzRkpBZYEUVhc6ic3TJEACJOA7AQp03xkyBRKwI7Ahd4OMzRqrzndL6CY1DTXqsIvIEyRAAiSgEwEKdJ1AMhkSsCVwoPSAMrXjXOf4zgKP95rGGtso/EwCJEACuhKgQNcVJxMjgZMEjpYflczETPUlMiJSjZ9XN1QTDwmQAAn4jQAFut/QMuFwJnCk4ojA1K6FtLg0Kaou0r7yPwmQAAnoToACXXekTJAEREprSgVCXAtZiVlSWEWnOI0H/5MACehPgAJdf6ZMMcwJYDGZJEuSWKIsLSRgfj9edVyarc0t5/iBBEiABPQkQIGuJ02mRQIialW4lNgUMUeZW3hAoBdUFVCgtxDhBxIgAb0JUKDrTZTphT0BzDlPiUmR6KjoFhYZiRnU0Fto8AMJkIA/CFCg+4Mq0wxrAli3HQKdGnpYVwMWngQCToACPeDIecNQJwDTeqeYTmKO/Nnknh6XLiW1JYItVRlIgARIwB8EKND9QZVphjWBvMo8wRg65p/bhmRLspyoPmF7ip9JgARIQDcCrd84uiXLhEggfAlgyhqEd9vQPbm7HK042vY0v5MACZCALgQo0HXByERI4CQBNS0tQiQhOsEOSfeE7oIFZxhIgARIwB8EKND9QZVphi2BkpoSMUeYJdGSaMcgMylTjpUfszvPEyRAAiSgB4F2BbrVanXrPu7GcysxRiIBgxKA41tUZJQkRtsL9M5xneV49XGDlozZJgESCHYCJkcZhHD+6quv5OOPP5a8vDy54oorZOzYk1tBto1fW1srK1askC+++EKys7Pl8ssvl4yMjLbR+J0EwoIAVomDQI+Pjrcrb2psqtoj3e4HniABEiABHQg41NAbGxtlx44dcvz4cXnvvfdky5YtTm+1dOlSWbZsmRLmmzZtkgULFkh1NXeVcgqMP4Q0gYq6CjFFmCTWHGtXztS4VIFJnoEESIAE/EHAoYZuMpnkyiuvlJiYGNm7d680Nztef/qnn36S1atXy/z58+WCCy6QmTNnynXXXSfr1q2TGTNmuMxvVFSUy9/5IwkYkUBlQ6VERkZKnCnOLvvQ0ItquOOaHRieIAES0IWAQ4EeERGhhHl7d8jNzRWz2SwDBgxQUXv06CGZmZny448/2l166NAh2bx5s0D7t1gssn//fkHHgYEEQolAZV2lMrlbTD9vzKKVL9GcKNwTXaPB/yRAAnoT8Emi1tXVCcbbockjQLjjc01NjV0+CwoK5NNPPxVcA0GOsXkKdDtMPGFwAtDQoyIcW58iIiMEQr2mocahSd7gRWf2SYAEOpiATwI9OjpaoM3X19erYjQ0NCiBrQl427KNGTNGcGjhsssuEzjUMZBAKBGobaiVGNPJDm7bcmHluKSYJDWO7miMvW18ficBEiABTwg4dIprmwDGBLWA8XRNgMO8DiGOsXSE/Px8gSbep08fLbrT/zC9M5BAqBGoa6qT5Bj7VeJQTgh0TGfD1DYGEiABEtCbgFMNfdeuXcrT/ciRI/L5559LSkqK5OTkKI/3V155RZYvXy79+/eXqVOnypIlS5QJ/ZNPPpGuXbvK5MmT9c4n0yOBoCdQ31QvEOiZlkyHeVUauiWJAt0hHZ4kARLwlYBTgQ6ntX/9618ybNgwpYWvWbNG+vXrJ1lZWTJixAjlyYub33XXXZKeni4ffPCBco6Dl3tSUpKv+eL1JGA4AkqgN9Q5XMcdhWnR0Dl1zXDPlhkmASMQcCrQL7roIsHhKNiOhcfHx8u8efPU4Sguz5FAuBCoa6wTHI42ZgEDCHSY42lyD5cawXKSQGAJ/Dw4Htj78m4kEHIEYG6vba5Vjm+OCqc0dEuilNaWOvqZ50iABEjAJwIU6D7h48Uk8DMBCHRXGnqEREgSx9B/BsZPJEACuhKgQNcVJxMLZwLK5N5U51RDBxsl0DmGHs7VhGUnAb8RoED3G1omHG4ElMm9odbpGDp4cNpauNUKlpcEAkeAAj1wrHmnECcADb3R6np9BSwoA294BhIgARLQmwAFut5EmV7YEqisr5SE6ASX5Y+OihYcWDKZgQRIgAT0JECBridNphXWBOC9nh6X7pKBJcoi0ZHRUl5f7jIefyQBEiABTwlQoHtKjPFJwAmBstoySYtNc/LrydPRpmjBgX3TGUiABEhATwIU6HrSZFphS6DZ2qzml7cn0DUNnQI9bKsKC04CfiNAge43tEw4nAhoAj01LtVlsbUx9Ip6auguQfFHEiABjwlQoHuMjBeQgD0BCPTyunJJi2nH5B4VLeYos1Cg2zPkGRIgAd8IUKD7xo9Xk4AiAK91CPSU2BSXRDQNHR7xDCRAAiSgJwEKdD1pMq2wJQANvayuTFJj2ze5Q0Ovqq8KW1YsOAmQgH8IUKD7hytTDTMCzeKeQDdFmsQcaRZq6GFWQVhcEggAAQr0AEDmLUKfQHNzsxLSWAmuvQANnQK9PUr8nQRIwFMCFOieEmN8EnBAAE5ucaY4B7/Yn8LCMrUNtfY/8AwJkAAJ+ECAAt0HeLyUBDQCRTVFkhbn2sNdixtjjpEmadK+8j8JkAAJ6EKAAl0XjEwk3AlAoLfnEKcxijfHS1MzBbrGg/9JgAT0IUCBrg9HphLmBIprittd9lVDhHF2jLljdzYGEiABEtCLAAW6XiSZTlgTKK4ulvZWidMAaRp6bSPH0TUm/E8CJOA7AQp03xkyBRIQTzT0OHOcGkOva6KGzqpDAiSgHwEKdP1YMqUwJgCB7u4YuhLozU00uYdxfWHRScAfBCjQ/UGVaYYdAeXl3s7WqRoUCHSsLEcNXSPC/yRAAnoQoEDXgyLTCHsCGEN3d9pai0CnU1zY1xsCIAE9CVCg60mTaYUtgRM1JzwzuVubqKGHbW1hwUnAPwQo0P3DlamGGYH6pnqB5u1O0MbQ6eXuDi3GIQEScJcABbq7pBiPBJwQwLapyZZkiYxwrzlhC9UmauhOaPI0CZCAtwTcewN5mzqvI4EwIFBSUyJJMUkSERHhdmmVUxzH0N3mxYgkQALtE6BAb58RY5CASwKYsuaJho7EsFocTe4usfJHEiABDwlQoHsIjNFJoC2BktoSSY5OlkhxvzklRSdJdUN126T4nQRIgAS8JuD+G8jrW/BCEghtAtDQkyxJbo+hgwZM9DUNNaENhqUjARIIKAEK9IDi5s1CkYAyuce47xQHBugAVDVUKee4UGTCMpEACQSeAAV64JnzjiFGAKvEdYrp5JFTnDK511dzG9UQqwssDgl0JAGTq5vX19fLt99+K/n5+dKzZ08ZMmSIXfSamhoVp6CgQP3W2NgoI0eOlO7du9vF5QkSCEUC0NAHpQ/yqGiJlkSpaqSG7hE0RiYBEnBJwKVAf/755+XNN9+U5ORkKS0tlVtuuUXmzJnTKsGDBw/KVVddJb169ZLU1FSBgEd8CvRWmPglhAmcqD6hNHRPigiTO8bQsS86AwmQAAnoQcCpQN+9e7csX75c5s+fL7NmzZIXXnhBnnjiCZk4caJkZGS03DsyMlJiYmLkmWeekezs7Jbz/EAC4UKgur5a4qPjPSouprlhDL3R2ujRdYxMAiRAAs4IOB1D37Nnj8TGxsqUKVPUtTk5OWKxWGTnzp12aVmtVvnVr34lM2fOlKefflpp6W0j1dbWCszyMN9D28d3TxbiaJsev5NAMBBA3TdFmsQSZfEoO8kxyWraWlNzk0fXMTIJkAAJOCPgVEMvLi6WpKQkSUhIUNfGxcVJfHy8Esa2iaWkpMiDDz4oXbp0kcLCQrn//vsF1y5cuNA2mnz22WfqHEzy0OrRYbj77rtbxeEXEjAaASz7GmOK8VygQ0Ov5xi60Z4380sCwUzAqUA3m83S1NSkDnzGWJ/SRkytL4EgP//881vKCEe6v/71r3LkyJFW4+jTp08XHJpWfvHFF0t1NRfWaAHHD4YkUFZXJhaTRR2eFAAaupq2Rg3dE2yMSwIk4IKAU5M7xsnLysrk+PHj6vKSkhLBYTt+7ihdk8nU0hGw/R2CXBPmOG/72TYeP5OAkQhAoMdExQg2XPEkYCOXusY6aWzmGLon3BiXBEjAOQGnAv20005Tzm7Lli0TeLJjbLxbt24yfvx4efHFF9WBZLdv3y4ffPCBHD16VL766it56qmnZNiwYZKVleX8rvyFBEKEQFltmUSboj02uaP42Ea1sr4yREiwGCRAAh1NoLX93CY30MQXLVqkDji7jRgxQhYvXqw0azjGQRNHqKysVEIcAj0xMVGmTp0qt912W8vvNknyIwmEHIGWMXSTZ05xAJEamyqlNaUhx4QFIgES6BgCTgU6sjNq1ChZtWqVXc4ef/zxlnOTJk0SHAwkEI4EINDh4e6pyR2slECvo0APx3rDMpOAPwg4Nbn742ZMkwRCjQBM7nCK80agY7lY7NTGQAIkQAJ6EKBA14Mi0whbAppTnDcAoKGjQ8BAAiRAAnoQoEDXgyLTCFsCWL7VYvZ8/BzAUmJSpKSGGnrYVh4WnAR0JkCBrjNQJhdeBJqsTRJv9mzZV41QSmyKlNZyDF3jwf8kQAK+EaBA940frw5jAnVNddJsbZaE6JOrKXqKAho6Bbqn1BifBEjAGQEKdGdkeJ4E2iGg7ZaWGJ3YTkzHPysNnV7ujuHwLAmQgMcEKNA9RsYLSOAkgeqGaoHJ3VsNXU1bo8md1YkESEAnAhToOoFkMuFHoKaxxieBjmlrNLmHX71hiUnAXwQo0P1FlumGPAHsgw4NPcmS5FVZMXc9QiKkvqneq+t5EQmQAAnYEqBAt6XBzyTgAYHKhkrBfubeCnQIc2rpHgBnVBIgAZcEKNBd4uGPJOCcgNrPvLlJ4qO9m7YmEaIEenFNsfOb8BcSIAEScJMABbqboBiNBNoSwH7mvmwDDA0d+6JzcZm2ZPmdBEjAGwIU6N5Q4zUkgJ0G6yrVBiu+wOhk4XruvvDjtSRAAj8ToED/mQU/kYDbBKxWq2Ad9/S4dLevcRQRGjo93R2R4TkSIAFPCVCge0qM8UlARBqaG6SirkI6x3X2iUeyhSZ3nwDyYhIggRYCFOgtKPiBBNwn0NDUoHZKS4/3TUPHanFFNUXu35gxSYAESMAJAQp0J2B4mgRcEYCGXl5fLumxvgl0mOwLqwpd3Yq/kQAJkIBbBCjQ3cLESCTQmkBjc6OU15X7PIaODkFBZUHrxPmNBEiABLwgQIHuBTReQgIwuZfXlkvneB/H0GOSBQvUMJAACZCArwQo0H0lyOvDkkB9c71gHnqMKcan8pujzBITFcPlX32iyItJgARAgAKd9YAEvCCAqWZJMd6t4W57O6znnmhJlKJqOsbZcuFnEiABzwlQoHvOjFeQgBRWFkq3hG4+kzBHmtX2q8W1XP7VZ5hMgATCnAAFephXABbfOwLwTO8a39W7i22ugskd+6kXV1Og22DhRxIgAS8IUKB7AY2XkAAEekZChs8glIZuTuBcdJ9JMgESIAEKdNYBEvCCAKaa6WJyh4ZuSRDuuObFQ+AlJEACrQhQoLfCwS8k4B6BIxVHpEdyD/ciu4hlijRJYnQiNXQXjPgTCZCAewQo0N3jFLSxrGJV85hhAq5prBF8Z/A/gSPlR6RXci9dboT91OnlrgtKJkICYU3AFNalN3DhIbi3Ht0q7+x9R6obqiUqIkqarc1iibLIiMwRMr7HeMlKzBLsue1pQNpIq6y2TE2pwjgvw88EquqrpNHaKFiHXY8AgY5nyEACJEACvhCgQPeFXgdde6L6hCzZuETyK/NlSq8pkp2WLXHmOKmor5AjZUdkV+EuWfn9SsHypEM6D5FTUk+R7kndJSs5S7ondheLyaJy3lbYI/7WY1vljd1vyKGyQ2KJtEiTtUkuHnyxzB40W3UWOqjIQXXb3PJcyUzM1C1P8eZ4iYyIFGzJGhHheQdMt4wwIRIgAUMToEA30OOD1rz+0Hp5bNNjktM7R+6ecLfDtcRrGmqkpLZEjlYclb1Fe+Vg6UHZfGSzHKs8JnkVeYLFTPqm9pWBqQMlM+mkYDpUekg25m4U7M89e+BsuX3M7RJjjlHrjD/15VOyM3+nLJy8UHUcDITML1k9WHZQeiT6Pn6uZQ4aOgQ6OmRJFt8Xq9HS5X8SIIHwIkCBbpDnfaDkgCzfuVy+PPql3HvmvTKuxzinOY81xwoOaJGjM0ereDCjQwPEX2lNqRL0e07skcNlh6WpuUl6JveUJ6c/Kaekn9IqXaTxt/P/Jvd+eq/c/dHd8n/T/y/sNfXc0lxl8WgFyocv0NChmVOg+wCRl5IACQgFehBXAgjf749/Lx/t/0iZwgemD5Q3Zr+hpjl5mm2Y1zVzblpcmpwRd4ac0eMMt5KBiX7J1CVyx5o7ZPHGxbJw0kK3rgvVSOgEDes6TLfiKQ1dIqWirkIkUbdkmRAJkECYEaBAD4IHDsGNAM9paOIYv8b/H4t/VJt/9OrUS+aPny+ndTutRSgHOtvoDPx5yp/ljg/vkGVfL5Prh18f6CwEzf0whDHzlJm65SfBnHBSQ4dAZyABEiABLwm0K9AbGhqksbFRzGazmEzOo9fX10tTU1O78bzMZ0heVt1YLVuObJG397wtO/J3CDTnHkk9JCMxQ3p36i1n9T5LzXXOSsoSzFfu6NApppMsOHOB/M/a/5GeST1lWr9pHZ2lDrl/YXWhdE3wfdlXLfMYN4cFBX4PDCRAAiTgLQGXUmLdunXy0EMPSW5urgwYMEDuv/9+GTbM3tS4evVqeeyxx6SwsFBGjhwp9913n2RnZ3ubJ8Nch7FnCGVMY8JWmvVN9cq5Kc4UJ8mxyZIUbe/gBE9yOKetO7BOVu5ZKbGmWLl08KXyxwl/lMSYRDFFmJTwjoqMCkoO/dP6y62jb5XHNz+uHOjGZo0Nynz6K1OV9ZVq7XVft021zR/8HTDtELMXGEggXAnUNdZJaV2pep/iPQlHUUyZxX4HUGhgycQ7F7/BQRgB5+Hkq+KZzOr92dDcIA1NDYL/jU0n40ZGRirfH7xv4eyL9uYqIH1MJcW7HW0e7/fyunJBHtH24TyMjjiUHOyW2HbGkKu0/fmbU4EOIf7AAw/IOeecI9dee60sXrxYFixYIG+99ZbExsa25Gnfvn3ypz/9SW6++WaZMWOG3HPPPfLII4/IM888IxbLyelRLZED9EEzYeN27oLG/tb5FflyrOKYYOer6vpqqWuqU0K6uflk5VHp/XdaEYQ3HjYeckldiZTXlqtKFBEZITChpsemK027e3J3tYkHKghe2HBE21m4U9Ji0+SBKQ/I0K5DA0RFv9tM6j1JKhoq5IF1D8jvJ/xeJvearF/iQZ4S6kdqTKrujoGdYjupef9BXnxmjwS8JgCn3LK6MuX8iZk4tY216h2aV5kn+VX5aoMiLIGM9S8wXRYCHetq4IDgbpZmJcwhqPE7RiohzFUc08l4UIQgxPHurmuuk4bGBiX8cR5xsRESnFDRiUaauAcOvJ9xoMOA/7gePi14v2t51joDEPR4/6dYUqRzXGdJi09T7/PU2FSVvopnilH3gH9Ml7guqlPiNTgPLnQq0Hfu3KlM7b/85S+lc+fOcv3118tvfvMb2bZtm5x55pktt1i7dq306NFDZs+eLcnJyXLdddfJvffeKwcOHJCBAwe2xPP3BzwECMtNuZtkX9E+QYVBzw7e26d1PU2GZw6XZEtyq2ygQm05ukU2525W49d46OjpqQcdefJBR1gjxBRljwmVKD0+XQZ1HqQ8njHPGz02pYFXHFN52VWwSzYe2ohehRojRYXGYi8Lz1wo/dP7t8qL0b6cd8p5qjf8t61/U1Pirj796la7j+F5oAODqXNHy48KOkUZSRkyrMsw1cN1t6MVbFwg0LGgTLQpWtesof7A2Q4vCrx4GEggFAhAQH6d/7X8Z/9/lLKEdzIEKHxyIiVSKVz4DosmrH/9UvqpFRihReNdCu0Ysz+gYOG9DO0YTrrRkdEqDWjOELyIA+GL9gOBiuWUsUcCBCqug2aNjsLx6uPqwGcIZqXFNzeqOMgb0kX8lJgUGZg2UKCQoW2mx6W3ehzIG3yeMC0Y8gYH3nlQJtVsIqtVLT4FmXPd8OsEw6aBCPaS6r93LSgokE6dOklaWpo6g88Q2DhvG44ePSrp6ekSFxenTmdmZqqOQEVFawcfjK/X1dWphwDNHd81r2vb9Lz9jAcJ4YxNM4Z3Gy5x0XHq4eL7ez+8J0u3LFWVoW9KXwUdjk3QqlGBIFzPH3C+ErZd4rsocwoEtjcBlQH3wAHHKZh+0MNDWVG5YqJivEk2KK+Znj1d+qT0kRXfrZDfvvdb1UBhfkIjxAHBlxaTpv6j0X7y0ydyoPSAwMnvksGXKC97d4UXGgoaIJwFscRtJ0sn1dDQ8B0F9ODRoUAHDeYxmNj06ERA6ML6ovdzRINHBxBWn+hYCnRHz5TnjEVg7YG1smz7MqVBj8kaIyMzRypBiUWwlGCOsqh1LWCdcmYCh0k7GAPe8/BzwjG933SVRQh5vKPQeYCGD4URQj41LjVgRXAq0DWBqwld7b+t+Rm5xHf8pv2OsQr0UNrGW7Nmjfzv//6vVFdXS1RUlMBUf+edd+pWUAjgS4dcqrRyvMS1AKB4SUKoHi49LDDvQDicn32+6jWhZ4jeHASOPwJ6fW17d/64T0eliV41zO7Hq46rIQv4FMCHAJUYPWkIPjwbDEWggqM3vT1vu7z0zUuyaP0imdpnqkzpM0V1DCDcYSWB4EXjQMOAAN9ybIvqrGHxG/SWYTLD84S2jHvAkVBbuQ0mO2ycgv/wYUA66Oyd3u10mT14tozOGq2GRLzlhZkH2SnZupvQYLlBmfBC0GtJWW/LyOtIwFsCaG/bjm2Tp7c8rdre9SOul1GZo5T10l/vWG/zqvd1EPJqYSjvdEFdsuNUoEPrLi8vF2ja0NIrKyulqqpKUlNb9zYQb//+/VJbWysJCQlSVFSkvOHj4+NbZXDatGkyefJkJfihoc+aNUtqampaxfHlCzoU6Pm1DahE0BpxQBgw6E8AHSgIVE2oOrsDTGEwZWEY5KKBF6llalf/sFo52MGkhv3FNQeT8vpy1UHAmBfWpb9r3F1yapdTxWw62VlTfhJWkZKaEjXND8uxog5gHAse+NjaFJ0pBHQiPjv0mWB44NWdr8oNI28QaAzehBM1J2RCzwneXOryGtTN0tpStdGOy4j8kQSClABWo4S17qeSn+Ta4dcKhuU0RS9Isxxy2XIq0AcNGiSYivbhhx/K3Llz5f3331da94gRI9Q4OjTwMWPGyIQJE+TVV1+VzZs3S05OjqxatUq6deumxtVtaWHKm+20N0yDgybPEL4EMD5106ib1AHNFBo4hJoyU8Wmqg4YBLyjoMznEaIsAbAGDM8Y7iiaOoc0Luh/gTpWfrdSFm9YrEz+lw+93KMXDqwQ6LzAEUbvABMktBt0PhhIwEgE0Jl+4esX5IeiH9SS1PdNvk91zI1UhlDJq1OBDoe2G2+8UZ577jlZtmyZKi882KGhz58/X803h0DHcfXVV6spbYsWLZKYmBhZuHChGm8PFUgsh/8JwLoCB0N/B2w0A58JmPutEVa5YugVbt8SDn7mCP8IdGQC4+gYRmgvwDqxv2S/fJH7hZyoOqGc6GCZgP8HHDXhPxIlUS0ORcppqK5C+R7ASgJLCmZXaPPf27sffsc96xvr5ceSH9WLu7ahVvmEDEgfIP1S+zkdA3Unbb3iKKuNTWJQGNpqiOgI2saDUxU6kth+GD4uXeO7Kj4wn7oKevhjuErfKL99ceQLWfrlUhnaZagsnro4YM5fRuET6Hy6rLWXX365nHHGGVJcXCxdu3Zt0boxnc02zJs3T6ZPn67M83CKy8jIsP2Zn0kgqAjg5fOnKX9Sa9NnJmTKlN5T3MofBDpmPHSO119DRwbgoJlblusyL3A2xPK78EMY3328EuLw1IWz4Vd5X6nFaTDDA8IMU3Pgb6BN1bGYLcqP4bODn8nez/aqcszoN0Mm954s3RK7KaGMISoIPDgVYvoPPHmxf8CGwxuUJy/G+uEIhHSRl+W7lqu93JHGzOyZMrDzQOUHgUIgD3AKxa6AMMPCCgOfB+z41yO5hxoig88EhKcrAYmtamG9wAHBi1kT8IIbSkgAABTwSURBVGjGlCT1m7VRymrK1IwK+Mjgd8xnhjUFbGKjTnZisGAThDZ8M6BVgjXujTKhQwQfDwypwJEWzJBHOGvBB0PNR26oVNOa0HHCszq126lqBg3qA7ih82BbDnyHJ7fmF+LywRrtR6vIa7tfk9d2vSa3jb1Nzul7jl3nyWhFCoX8uhToMJH37dtXHbaFzcpq7YKPeP37G3salm35+Dn0CWBd/N+N/508/sXjamzeHU9UrFMA0zgOfwQISuymB2HqyOsX2vv8/8yXvp36qjX9oYkrRyOrqGGKJmlSw2LaUJYSMBAqmGuLKUIREUrIIn0IKXjVv//j+0ooYybAgNQBylSqCc59xftUMcdljZM5g+Yox0IMX2gCCoIfcTGH+JP9n8jDGx9WPg3wB4CgxPBJYWWhmmUALR7OpxCaEKToHMHPITs1WzlEwn8CHs3ohEAoQlDDsoAyHy45LAfKDqhOCxwn4YOB6UCYOghLBPKDa+FjcW6/c9UOghDQWudEpVN+TDnEolOBNGYNnKXSUQ6x/52iqjoy/124BMMryCOGfzCVSXWKsCteZKQS+JimhGf17JZnVacBQh1WJnQi8OyQJ/wHV5QTR5eELsoqgng40CmCA6nm6+GPOuWPNDF7BLOGvjv+nSydsVQ9P3/ch2l6TsClQPc8OV5BAsYhAK0SmueSTUvkkamPuMw4hCQWHPLnfFIIpL9u+6sSkpgJYhugDT+04SEZnTFa7hh/R2ttKEJOChGJEmlvsgbiyslFNuBsiANCGRr0nuN7BM6IWK1wYs+JaggE2qirAMHdO7m3XDfiOnVAeGo7+EGoQpA5WscBaWIGA4QChCOsBhAUELgImpCGgyPM+r8Y+As1T9nZNEVXeYTQbs9hs+X6/2LHcAQ6IY5Cn059ZFz3n3c7hNkeWj2ekWbZQIcE1omimiJl5YDDGDoIqEewEmDxKXQS0CmDYEdHBveE0yg6TUrYm+PUZ3Bsz4rhKJ96n0PnBut8PL/9eWXRefmil1W+9b4P0/OeAAW69+x4ZQgQuH3c7XLNqmtk3aF1Lle8w5SykuoStcaBv4rds1NPtSjG7oLdas6udh8IgRe+eUEJ7RtH3dhamGuRfPgPYYHphzh8DRBGQ7oMcSsZrGGA4zw5z634wRoJwhfrTrgTIPCLqoqUVQPDBziKqoskryKvpSMEwQmnY21lNFhTYIHA+hqYdol1HBBszfvu3NuXOFi0C9s3Y+MozFC5aMBFqtPlS5q8Vn8CFOj6M2WKBiIALenGkTfK37f9XSb0mKA0IUfZx/S4gqoCXYSeo/S1c/DGx2Y9WIRDC5iH/58f/6P2pYdGx2BcAjDDw/SOo22AyR/+Dxivx9AEDmj/WFMBfgHfHv9WVu1ZpYYy+qT2kX6d+qk1LmDuV0uQxqUpvwiY8xF8FfhYwOnzQ5/LG7vfUJabnF45akYKp/+2fXLB850CPXieBXPSQQTG9RinVhPEHFpMZXMUoJlgvX+M3/ozTO03VV7a8ZJyTMMLGc5fD3/+sNwy+hauo+BP8EGQNp63Nr7uKDu1TbVSWVep1jzHAkdHK08uq7yzYKcU1RapGQ9w6oNFB74JA9IGqGVUsYujNmYfGx2rrECwyqBzgeEQDLHAvwJDLxg2+CbvG7VuA3wsMNyBVR3Hdh+r9jBAPIbgJUCBHrzPhjkLEAGMsV444EJlUszpk9NqTXpkASZQTBGb1GuS33OEZWVhvn1r91syLXua2qp2VMYoOfeUc/1+b94guAlg1cWYuBillbvaCwJ+CDCRf3/ie+VIuD1/u9L6oe1D+8d/dB7g3KmN10NQ4zds4Ys1zLEozKKcRcqpL7ipMHe2BCjQbWnwc9gSyOmdI6v3rZY1P66RX532q1YcMIa5MXejPDvz2Vbn/fEF07rmDp2rOhcwr0LLumfiPf64FdMMUQLQxkdkjFCHqyJiWiKc9uAfgk4rPPLhBAnNncGYBCjQjfncmGudCUBDuXLYlcqT/Nzsc9WLTbsFtB2YKOG0FohwVp+z1FxvLB4DU6czL/FA5IX3CF0CqFddE7qqI3RLGV4la2+SS3jRYGnDmgAc0QZ3HizPbm2tia/4fkXLjkqBAITOBaZMTes3zW7L30Dcn/cgARIwJgEKdGM+N+baTwQWTFwgcDKCZy/CRz99JDvydigzuJ9uyWRJgARIQBcCNLnrgpGJhAoBLPCBRWb++PEfBZ7EXx75UhacuUCwZzMDCZAACQQzAWrowfx0mLcOIYAFVpacs0StLnbX+Lu83mq1QzLPm5IACYQtAWroYfvoWXBXBDCG7WzpT1fX8TcSIAES6CgC1NA7ijzvSwIkQAIkQAI6EqBA1xEmkyIBEiABEiCBjiLQoQKdywh21GPnfUmABEiABIxIwJXc7NAx9IaGBrXucGNjo25cUVisZRzqIVzKqT3HcCpvOJVVe77h8D/cniv2jseuceEQAlVWs9ksruRlhwn0uLg4ueGGG6Rz5866CWCtgxAdHR3ydaiurk6wZ7bJ1GGPMGCM0UGrqamR2NhY3bcODVgh3LwRXoC1tbWC9hEOIZzaLJ4r2muwtVl/KEBIE+WNiYkJizaL9zHeT/4O6BQWFhbKrFmzHN4qwuqPp+nwVq1PlpaWChozhJIeARXniSeekGPHjsmjjz6qBIAe6QZbGnigKOtNN90ko0ePll//+teCyhSqAeVF+aZMmSLvv/++pKSk6NYBDDZmKGtubq5ceeWV8tlnnwl6/R3UPAOCxmKxyOOPPy5FRUXy8MMPh3SbRVmhwEycOFF++ctfhnybRQf8rLPOkg8//FCSk5NDth6jjR44cECuueYa1WbRcPzdZqGhoz6Ba9vQYepdp076L9SRkJCgNBv0lALRW2oLM5DfUb7ExESJj49XRyDvHeh7oeMHrSY1NVX8UW8CXR5X96uurlZlTUtLcxUtZH5Dm0WZQ73N4iUfTm0WFiYoa6jHeE+FcsB7Ce8nKBsdHTrUKc4fhfd378gfefYmTZQz3MoaDuUNhzJ6U99D4ZpwerZaWbX/ofD8nJUhmMrYYRq6Mzi+nB88eLBkZGT4koRhrp0wYYL069fPMPn1JaMwa11yySUSDr4R0GwuuugiX3AZ6tohQ4ZIr169DJVnbzKL4RSY28OlzUJjDZc2CwuEszFtb+qKL9d02Bi6L5l2dq3mUQkBEOoBZcVLAkc4hKamJt38LYKdVziVlW022Guj9/kLp3ocLGUNKYHufdXjlSRAAiRAAiRgbAKhr8oa+/kw9yRAAiRAAiTgFgHDjqFrjgjtmZzdjecWrQ6K5E4Z3InTQdn36LZaOXCRs2drG8dVPI9u3AGRbcsR6mUFXq28zspq+wg8iWt7XbB8dif/Whwtz+5w0eLyPwk4ImBIDf0f//iHwCls7Nix8txzzzlcOQdz9Z588kkVB84oy5cvd1T+oD6H6VoPPvigjBkzRiZPniyrVq1ymF/MWZ4zZ470799fzedt+6JweFEQnvzhhx/k6quvltNOO03mzp0re/futcvlTz/9JLfffrt6/uPHj5d77rlHLbRgFzHIT3zxxRfK+Q1lvfXWWyUvL88ux+CBuct4/jh+97vfOYxnd2GQnUB9/Pvf/y5nnHGGjBs3Tp5//nmHbVbLNp7xueeeK1dddZXhVhqrr6+XRYsWqTUi0GbfffddrVgt/+E3sHjxYundu7eq63DmRfs1YkAbxXM69dRT5YorrhDUWUehqqpKlRl1YPjw4eq9hnNGChs3bpQLLrhAlfW2226TgoICu+y//PLL6pnC2RNM4AR53nnnCdZdCUjAwjJGCqtWrbIOGjTI+vHHH6tjyJAh1rffftuuCMuXL7cOHTrUumHDBuvq1aut/fr1s65bt84uXjCfWLp0qXXkyJHWrVu3Wt966y1r3759rTt27GiV5ebmZuv69eutr776qvXCCy+03nnnndampqZWcYzwpbS01DpnzhzrDTfcYN27d68qx9lnn22trq5ulf3NmzdbH3vsMes333xj/fbbb1WZb775Zis4GCUcPHjQOmnSJOuiRYus3333nSr39ddfb1eGQ4cOWT/66CPrvn37rHv27LHOmjXLeuutt1rr6+uNUlSVz5UrV6o2u3btWuuaNWusgwcPtr777rsOy1BZWWm9++67raeffrr14osvtjY0NDiMF6wnn3zySeuoUaOs27Zts77++uuqze7atatVdlEmPMd58+ap8yUlJdbi4uJWcYzwBXmePXu29be//a2qo7fffrt1+vTp1pqaGrvs47drrrlGxcvNzVXvsaqqKrt4wXpi//791okTJ1oXL16s3jsot/b8bPOM+puXl2fNz8+3FhQUWC+99FLrbbfdZm1sbLSN5rfPhtPQX3/9dbn00kvl7LPPVgem+KxcudKux494WL0Hmjx6SDNmzJDXXnstIJ0kvW6C/EJ7GzVqlOrBwyLx5ptvtkoeZrozzzxT9Y7R4zdq2L9/vxw6dEjuuOMOZWmYP3++oAf/+eeftyoSGEBThWYLzQarbkFLKC4ubhUvmL9s2rRJLYAE7XvQoEGqzHv27JFvv/22VbZ79uwpU6dOlVNOOUUxGTlypFpVDZYbowRo56+++qqyuOTk5Mi0adPkwgsvlBUrVgg8g20D4qJ+4z+0PqOZoJHvN954Q6C94VldfvnlSlN31GYxE2f37t2KDaw1WGDHaGHfvn1y9OhR9Y5CHb3rrrukrKxMoMnahi+//FLVbVhd0J6//vprQd020vLGGzZskKSkJLn22mvVewfvZTy/77//3raoapGvbt26SdeuXeX48eNqFTnUd71WRG11MwdfDCfQjxw5IjBnaAEvdSz32nbB+oMHD7aKB/OHM3OQllYw/cfqWSdOnFCVR8sXhJiRyqDl253/MDljOcOsrCwVHSvgZWZmKiHv7HqYNz/66CMZOnSoWpHKWbxgO486jD0MtJWlunTpolYRwxrNbQOWvcXLA51YvBix5K+RXoQoD176tm0Wn8GgrUD/5ptv1LASBCLm9rb9vS2bYPuODihe4rZldfbewXnE27lzp1qqGp3Utu+wYCtf2/ygzWL1O63N4plBmB0+fLhVVLyLIfzRsUPne9myZfLnP/9ZKioqWsUL5i+oryib1mbxGe8rPG9nYf369Wp1yxEjRjiLovt5QznFoYHjsF1gBLvPONJY8LLHb1rAZ5wzSkBe0eNvW1YjlcET1igXFqPAgQANBr1aR89WSxdr9+NF8dJLL2mnDPEfZUV91NZL0Hrvjl7o+A1jsXihvPfeewJNHhYZowS0V4wZ27ZFPGOUFfVbC1j7e+HChcriAgGB77gOz1+rE1rcYP2vtc22bbZtHcZzv+yyy9Sa/YiLZzp79mz55JNPZPr06cFaPLt8obyon1r9hUUFZWtbXnyH8IfvEyw027dvVx1T/EfdNkJw1GZRf511OsvLy9XeE7Aka52AQJTTUBo6Kg40N1tnBHzGIvXay1GDhjWEbePl5+crrUj7Pdj/Y81yvARttTZYIqDZuQpGM1NqZcHzglUCDQEBmik+O2oMaEh/+ctf5N///rfq7cN8Z6SAtZ/hJAOhhVBZWakEnKM1ryHMsOIWhiLgDAjnTtQDowS0WVgUbNsiPqN+27ZZ1HNYn+677z4ZNmyYPPLII8r6cvHFFys+RigvyoTnpZUV9RSCrG2bRRvFewwaHj5nZ2erA4LdSAFtFlYJTdNGm8Xntm0WwwkDBgyQvn37quLBPA9WsEAaJaDNYlgPO8ghoJwQ5s6GSqBowLlz5syZAS2ioQQ6yEyaNEneeecdNVYDuB988IHynEXjQY9PG0tFz+/tt99WWjnGdVavXq3GIwNK18ebwSMU42/QZlD5P/74Y1UGCACUVfMSRdltj7baj4/ZCMjlEMrQVmBCR1m2bt2qXobwioYJ77vvvlP5QNmeeuop1fuFR6kRl9LEEAFe9F999ZUq66effqq0HMxSgEkS/gQIEAww6WnPFi8JBKNorMgrBBbaItosXoLoxGhtFho46nFJSYkaU123bp3SUvEfwwzYYQ8e8RB+RggoK2ZeoM2ibOikQOuGloayo6zotOI3vOyh9eHZYkwZY7HwpzBSgM8O6uLatWtVtjEkhPcUdoGEP4w2vozhBZjmUd8RMMyAzjqG1IwSUAZYyfCsENBmseslOmPoiGHHNdsA/ycMkdoOv9j+7q/PhlspDpr2zTffrBoCTDmA+vTTTyszD8xWGJuBAxwA46UAIYGeIxwann32Wbveo7/A6pEuGgTGE9HjRaeke/fuymwFx5I//OEPSjuFcEBDwpaxEIJ4QUAIYhqM0abCvPjii4ID6/Fj3BVT1+bNmye///3vVWOCoyO2Y8RzxrgU/CcgIAYOHKhMeOhFGyGgU4LtQjHdMD09XQluOBTBeQbPrE+fPrJkyRI1ngznMdRhXAMBAaccjKcbKaDzgjaLgDaLlzvaIjqkKAumecEUaxswnLJmzRo17ctIHRg4NsKSollhsE49ptZC6N17773yz3/+U2mqt9xyi6q7eLYYY0bnHdYJI5UVzwsdrldeeUU5geE5w5kRzp533nmn6oxq04XRrjE0huEUKF2YSgy/AVgpjBDQ/lBP8e7F+xhb/sJxFw7XWMcdnbGHHnpIFQWdcDjvwor4i1/8IqDFM5xABx1oLhBeCOgNwqMQL3Y41aDHpJm4IBTQK4bZD0LOKC982xqAxo5y4SWI3j86JqhM0NYgzGGmRc8RXpjQZCDQ0fNHBQt079A23958Rr7Re0fvvkePHsq7H2ZZ9IBhjTn99NNVWXfs2KEEA4QDzF543mBjJGcxCDPUTQhpmCPxLBFwDuVAJwUvhl27dikNFi9+xEP9tjVVe8O5I67By37btm1KY8ecejgCQlvFs4QJFh0b24A6gBc/njk0XyMFaN+ox3iOqJdoo2izGFLAc0Y7RZtGGRHQgcVMFm0s2khl1dosrGhos/Du19osfoNmi6BZIvA+g0MZtFejWF6056G1WVghYE3T3q/Q2lEWnEOABRXyCTIH7+1ABkMK9EAC4r1IgARIgARIwAgEDDeGbgSozCMJkAAJkAAJBJoABXqgifN+JEACJEACJOAHAhTofoDKJEmABEiABEgg0AQo0ANNnPcjARIgARIgAT8Q+H+6FG50XC8j/QAAAABJRU5ErkJggg==;" vertex="1" parent="JzI5cQmfPr15dhNoTTF8-1">
          <mxGeometry x="189.62" y="340" width="179.63" height="60" as="geometry" />
        </mxCell>
        <mxCell id="jJ7y8H1RoMSDKaFRN04o-18" value="" style="group;rounded=1;" vertex="1" connectable="0" parent="JzI5cQmfPr15dhNoTTF8-1">
          <mxGeometry x="185.41705307948286" y="150" width="292.50122742894547" height="90" as="geometry" />
        </mxCell>
        <mxCell id="jJ7y8H1RoMSDKaFRN04o-19" value="" style="rounded=0;whiteSpace=wrap;html=1;strokeColor=#8C8C8C;glass=0;" vertex="1" parent="jJ7y8H1RoMSDKaFRN04o-18">
          <mxGeometry width="290" height="90" as="geometry" />
        </mxCell>
        <mxCell id="jJ7y8H1RoMSDKaFRN04o-21" value="&lt;b&gt;ECG 信号&lt;/b&gt;" style="text;html=1;strokeColor=none;fillColor=none;align=center;verticalAlign=middle;whiteSpace=wrap;rounded=0;shadow=0;glass=0;dashed=1;sketch=0;fontSize=9;" vertex="1" parent="jJ7y8H1RoMSDKaFRN04o-18">
          <mxGeometry x="214.9277180732093" y="35" width="77.57350935573618" height="20" as="geometry" />
        </mxCell>
        <mxCell id="qC_dsWtTY4M3iLXnOH0--0" value="" style="shape=image;verticalLabelPosition=bottom;labelBackgroundColor=#ffffff;verticalAlign=top;aspect=fixed;imageAspect=0;image=data:image/png,iVBORw0KGgoAAAANSUhEUgAAAfIAAAC0CAYAAABv564VAAAgAElEQVR4Ae29eXhVRZ4+7h8z852eeX7d/Z3pfXramW7btlttu9u2td3aBVQWEQQhsomIyCo7QQHZFw37kkRCCAlJIIQEyEICBAiBJOx72MMadk1kkU3h/T1vXSrfw+WeWxdu3RDi5zzPzdnqfOqct6o+7+etqnNyH2QRBAQBQUAQEAQEgXsWgfvu2TuXGxcEBAFBQBAQBAQB1Awi/+Yb4OpV+QkGUgekDkgdkDrwnasD9z6Rs9IePgwcPCg/wUDqgNQBqQNSB75zdeDeJ/KKCmD6dCAqKqS/i5OmI7HTahwanRzSfEL9HDXF/sp+i1D4cZaURYjrvam+nB4bjw2fLMTy8Bx8O/VzKY+7UB4bP1mg2sLRT5ME/7uAP9sIfdHaARk4ETHrrpTBvU/kX3wBjBgBJCcDy5YBhYV2f3l5QFoazkYno0vd/dgUu8mufd5vejowezaQk2PftsYjLk49h3V8aD8/H1i4EEhIABYvDs0zLFoEJCYCmZlAQQGm9dqN+I922c0rJQWYNcuuTY2/XtM+89H7NtfLlwMzZwLz5wPctmlb28rOBqKjgZUrlf2DqRuQPrwE0T134+rKIjt5pqUBrK86T9trtjO2N7Y727Zpb8UKjzNnnQ2FfdrMzQWmTFE+b8GIEiR8vAvb4y36piVLgNRUj19dvTo0z0H7bAt8llDgxPuOiQEyMkJjn22MbW3mTCT02ISUQSXYk7zBbl70d0lJQFYWsGqVq+2aQ+RFRcDZs/anPVDx79iB8gUr0azhJRQX288CJSXA2rVAWVkIjN8wSYLdsSM09i9eBPbu9RD6qVOhyYPYFBQABw4Aly9jzBiPH7Oa2caNHoKyatTLGAmQ+YRiOXcOWLoU2LkT4HYoFg5jzZsHXLmirLPYGV9FRFQeCj5XtgfW11AtrEtsb8wnFMvXXwNz5wLHjoXCusfmyZMeB3/2rNIwkZGWqxUF0tatUA7v2rXQPMeWLcCGDcCJE6Gx/+23wIIFQGlpaOyfPw/s2gXk5SFyVAVmzAhBlaK/Y5DDdse5YC6LELkLMJWHhcgroXDdECJ3heaWE0Lkt0ByywEh8lsgueWAEPktkNxyQIj8Fkiq7wHdtS6K3H8ZiSL3jw/PiiI3YySK3IyRKHIzRkwhityMkyhyM0YBpRBFboZJFLkZI51CFLlGwn0titwdG31GFLlGwn0titwdm2p3RhR5YEUiityMkyhyM0aiyM0YiSI3Y8QUosjNOIkiN2MUUApR5GaYRJGbMdIpRJFrJNzXosjdsdFnRJFrJNzXosjdsal2Z0SRB1YkosjNOIkiN2MkityMkShyM0ZMIYrcjJMocjNGAaUQRW6GSRS5GSOdQhS5RsJ9LYrcHRt9RhS5RsJ9LYrcHZtqd0YUeWBFIorcjJMocjNGosjNGIkiN2PEFKLIzTiJIjdjFFAKUeRmmESRmzHSKUSRayTc16LI3bHRZ0SRayTc16LI3bGpdmdEkQdWJKLIzTiJIjdjJIrcjJEocjNGTCGK3IyTKHIzRgGlEEVuhkkUuRkjnUIUuUbCfS2K3B0bfUYUuUbCfS2K3B2bandGFHlgRSKK3IyTKHIzRqLIzRiJIjdjxBSiyM04iSI3YxRQClHkZphEkZsx0ilEkWsk3NeiyN2x0WdEkWsk3NeiyN2xqXZnRJEHViSiyM04iSI3YySK3IyRKHIzRkwhityMkyhyM0YBpRBFboZJFLkZI51CFLlGwn0titwdG31GFLlGwn0titwdm2p3RhR5YEUiityMkyhyM0aiyM0YiSI3Y8QUosjNOIkiN2MUUApR5GaYRJGbMdIpRJFrJNzXosjdsdFnRJFrJNzXosjdsal2Z0SRB1YkosjNOIkiN2MkityMkShyM0ZMIYrcjJMocjNGAaUQRW6GSRS5GSOdQhS5RsJ9LYrcHRt9RhS5RsJ9LYrcHZtqd0YUeWBFIorcjJMocjNGosjNGIkiN2PEFKLIzTh95xR5QQHAKPXSJbu/EyeATZtQnrYczRp8jeL8y3bt8343bwZWrwZKS+3b1nhkZ3vy0fs21+XlAFXU0qXAkSOheQZis3w5sGsXcPYsxoy6iinjr9rNa80aIC/Prk1vnGmf+Xgft7F/+jSQm+txkKdOhSaPvXuBlBTgq6+U/X3bLyMx7ioiRn2DK2cv2smT7YH11QYmvmywLrG9MR9f54M99uWXwOzZoW3PDKhmzQJOnULSzCuInHgVG4ss+qZjx4D16wH6VQYmwWLi6/p164DiYoDP4ut8sMcuXADS04GdO0Nj/8wZYOtW1eYih53BjOgrKNlosQz4/PR37MVjuzt/3vU57jOHBNU8hVbkmZkeUPftA2z+GDXm5aEiPgNhr5SjOPWoXfu8VxIUHdfatfZtayzmzPGQlN63uSaJs7Kx0WzYEJpnIPktWACsWqUqd0S/M5gy6LTdvHJyPM9gExtvW8SI+Xgft7G/bRswb56nPnHbhk1vG4WFwMyZHue4bx/25R1G4thTiOj3Ba7s3G8nz2XLANZX77xt7bOdsb2x3dmy6bSzYwcQG+sJ2JzHbW6TZGNiVNCWNP4kooaewaaFFn3Tpk2ewJx+lSRi8961LfYSMvDks+hjNtd79gAJCZ5gxKZdbWv7dmDFCtXmIsMPIm70KZTkHLb7LAw4MzKAoiJg925X2zWHyBMTAVYMAmvzx4o2dy7KpyQh7PljKJ66ya593mtqKpCUBLDR2Lx3py06lrlzQ2OfSpwERQeflRWaPFiZ4+OB+fOBZcsQ0XE/Jnfbazev5GTPMzhxs71NjJiPbbu0t2QJMGOGh8xD0RaYB4OpyEhVBnyGfYlrkThgFyI6luLK0pV2nov1lPU1FBjRJtsZ2xvbXSjyYDlMnepxwKGwT5tsZ5MmKSJMHrgLUT33YlPMRnvPs2iRp+eFqj9Uz8BgjT0XofIZvO/oaI9vCsUzsJwZOMfGIrLjNsSF70bJzHV28aK/YzCycKEn8HR5jppD5CST/fs93evsYrf1o83CQlTMzkFYvXMozi63Z1vfI6MtqhBGePqY7TUrBPOxbZf22J3OqJoNkl1BociD2FDJchy7rAwRg85jyqhzdvPKz/cotVDcv7ZJJch89L7N9cGDngbP7kp2H9u0rW2xh4okWFam7O8t/gKJU8+q8rhSdtpOnqynrK86T9tr1iW2t1C1h0OHPM6XvSK2713bYzuLi1PlnBx9FpGfnsPGpV/ay49qlr1fJCsOL+p8ba7Zi0diYte3Tbva1vHjnp4d+gx9zOaa7Y09hQsXInLAMcRNPIeSVRbLgPfKe2dQznbH53G5/5pD5GyUZ8/aHweQWetmTGXWuhkjnUJmrWsk3Ncya90dG32GDp0B1dmzqoOHnST0+dYWDlly/JdB4bVr1szeZEgmu90Eh8+d79xkNyFyn/Wg8iCjOo7dhWK5C0Q+cuQVjOdkN5sLPSGJNpRLDSTyuLirGDz4Aq5csQScELkZSCFyM0by+pkZo2qTQk92EyL3XyQ1jMjDw09j8OAz/p/5ds8KkZsR8/H62cSJX6B16224dMmSchMiN5eDELkZIyFyM0bVJoUQeWBFUcOIvFOnUvTufTCwZw80lRC5GSkfRD5w4G488shMXLhgqYdEiNxcDkLkZoyEyM0YVZsUQuSBFUUNI/J27XbhnXfWoYyTrmwtQuRmJH0Qef/+O/Hgg9OEyDV6d+GDMJMmfYPiYltjGwBkjFyXpvua73Vz0mFeHiJHVagXRhiDWl1kjNwSnDLZzQxkFY6RXy8txemjRxEWth6NGy/HVk7IsbUIkZuR9CLyjRvPoVOnQiFyJ3J3gcgHDjyOxMSdzrsIbluI3IyfELkZo4BTiCIPDKoaoshJ5NvWr0f9+ivQsOFSrOdrb7YWIXIzkl5Enp9/DC1aLMJvfhOFQ4eO4+pVC93r0rVuLgdH13pc3GW0a7cRw4cvMl8XaAohcjNSDiL/9OMjiIq6rD5wab7wNlKIIr8NsPwldSjyN+udQ2GhpQk9zjzpuPi1KZvdxE773K5BRL5m5Uq89tpSReRriZutRYjcjKQLkf/ylxOQmbkYFWwvwS5C5GYEHUQ+YcIpNG26AsOGZZuvCzSFELkZKQeRd265GiNGHMf27Zb5QYjcXA4BpbhB5KfnLcNjD23G4sUheFddiNxcFAxyCgpARU4if/31fDRosBgr+EEJW4sQuRlJIXIzRlXctT569GHUq5eFAQPSzfcWaAohcjNSDiJv32wFwsN3o7jYMj8IkZvLIaAUN4j8VGoe7v/ZCmRlfRHQZbeVSIjcDJcXkTdpUoxateYjnp9ttbUIkZuRFCI3Y1TFRD5o0G4880wiPvxwpvneAk0hRG5GyovI27cvRna25TdphMjN5RBQiooKfL1hA4onzcJP/28uMjJOB3TZbSUSIjfD5SDyjNRUNGiwEi+/nI5IftLK1iJEbkZSiNyMURUT+YABJXjiiRno0GGa+d4CTSFEbkbKQeTvNMxFo0YZSEjYYL7udlIIkd8OWn7SVlTgi8JCpH4yDj/5YS4yMy1/hIRZC5H7KYAbpxxEPm3yZLzyymLUrr1AiNyJ3Llznv9YxW9XczsUixC5GdW7QOR//vM0tG07xXxvgaYQIjcj5SDyZq8twEsvzUJUlOUvQwqRm8shoBQOIv/ZfyyRrnVfoFXx62cTP/sML76YJUTuXRZC5N6I+N5nUMhJkgygQ7HcBSJ/6KGJaNJkpL2nESI3Y+kg8sa15uGFF+KFyM2ouaRghRsxwvOfjEL0T1O0Iv/xD3Kka91XMQiR+0LF97Ea9q11/fqZzFp3FPddIPL77x+N2rXDHTcR5KYQuRlAIXIzRgGnqEIi/9H3FwmR+yoYIXJfqPg+JkTuGxfnUSplvi4ZqqUGKvJf/WoUatXqaw8xIXIzll5E/sQTkRgzxuK7/LwD6Vo3l0NAKSoqcHj5coxu1wc/+PcMIXJfoAmR+0LF97EaSOTvvpuHhx+OQ1bWEnmPnKV+FxS5ELmP5laF31pn1/of/zgew4al+biRIA4JkQcBnvPSigrsyclBl4bv4v/73kIhcic2eluIXCNhXtdAIm/ffiUef3w2YmNn4dSpU2YMTClEkZsQAhwfhOGsdSFyH5BVMZH/4Q8RGDx4ro8bCeKQEHkQ4DkvFSJ3ouF7W4jcNy6+jtZQIn/00Xj06vURDh608B6tELmvmnPzMSHym/HwtSdE7guVanqsCsbIRZEbyl6I3ACQ47QQuQMMl00hchdgHIeFyB1guGwKkbsAUx0PC5EHVio16Fvr8vqZS5HfpdfP2LUuitxRJjJG7gDDz+aWLcCGDcCJE34SBXFKiDwI8Kr60ioi8q6N2uJHP8xFdvaX9p+QCkT+aYp/XB0fhBEid4FKiNwFGK/DNXDW+m9/Ow4NGgz2etAgdmXWuhk8r1nrMkZuhsw9hSby3Fxg717g2DG7v927sSclBR/Wb4X/+Xk+Zkdvxbn9++3msXo1sGQJwAjV9v1re+npwKpVobHPCRlr1gAZGcD27aHJY/NmICsL19etw4SBA/HiM+mo/fxcRI0aZS+/ZcuAzEx79jT2zjXtMx/nMVvb+/YB8+cDhYUAt23ZddrhZ2wTE4FDh5T9/LSt6NAqF395ZCZ6dfgQB1gPnOnvZJv1lPX1Tq4N5Bq2M7Y3trtA0t9umtJSgP8DIJTtme1sxgxgzx7061qEx/4wCe3CPrX3PPw6YH4+QL/KwOd2MQgkPe3n5YXOZxw9CiQnA+vWheb+yQNFRcCCBWj8/Gz84cFRGNwr1m5evPecHE/PBZ/HBdf73BnyHjmjiTwpydM4OQZp87dkCXZNnowPXmiEh/67EGM7z8KBOXPs5jFvnqfCZWXZtevEITYWSE0NjX0SEwmEzouVzpmvrW0SYEICri9YgImdO+PFvySh9hMzEdmzp738WK58Blv37MsO7duuPzqfpUuBuDggLc3zqVZ93OaawVpUFLB8ucIpb3wmPmiQgmcfS0DPZq1wICUlePzYHlhfbd630xbbGR0883Eet7VNcpo6VQWeIbHP+1y0CJg8Wfm8Hk3n4+8PT0H/VuPx9eLFuE6CDPZZSOAsS/rVYG25XU/7bAt8Frc0wRwnDp9/rog2JPZZzgw44+LQ+MmZ+OMDIzC8/QS7z7JggSdwZrvzU641h8jZOBmlMhq2+du6FetjYvDio8/jgfsLMa5/JkoJqM08+K84SYCMvmzaddpio6HzdR6ztb1rl0ftk8yp2GzZddrh0MPChbi2ejUmfPQRXvz7PNR+bjaihg2zlx+dF5/Bma/tbdpnPrbt0t6OHR4SZ/0MRVtgHsXFnmBn9271DPOmLkHTusl44al5aP/2O9hno47RButrKDCiTa1y2O5CkQeHyqiWWWdDYZ82ObYcEwNs24au7+Timcdj0Lf959iSnY3LbI/B5sseMAaG9KtUnsHa83U97bMt8Fl8nQ/2GHul2HvEnpdgbfm6nu2NgUZaGpo8n4wXnvwcUcPS7ebF3jWWAXu6+Dy+7qO0FDWHyNkdd+YMcPmy3d+pU1iXkoIXHnsBv/nfNRjz6UocoBOzmc/WrZ4uGnZX2rTrtMWol119zmO2tvmvXtkVxwiV3T+27DrtsPt+xQpc370bE0eNwosvZKI2//vZpEn28qPjZe+CM1/b27TPfGzbpb0vv/R8EW3bNoA9VaHIg06dPTscj798GckJRXjj9RS89GI2unTqjlKSSLD5sp6yvgZrx+16tjN2ibLduaUJ5jjbw+zZAF/FC8aOv2vZzmbNUj6va6dVePrv8ejVPQGrli3DJX6q2t+1gZw7ftxDsPSrly4Fb89XniRwEtSRI6Gxz7dpqJht+2v9LGxvDJgXL0bjl1Lxx0fHYcSQVLvPsmcPUFDgCaY4iVLn7bWuOUTOhhmib62vmzcPL/7pRTzw67UYM2Y1ShkV2VxkspsZTZnsZsboLkx2S0pahzfemItXX12Knj374QADrmAXef3MjKDj9bOuXYvw1FPx6NYtHkuWLMFFEliwi0x2MyPomOzG/372yCNj5YMwZtRcUugxciFyF4BuHJbXz/zjw7Py/8jNGHn9G1MSecOGqahTZxn69OkvH4QhglX8+pkQuUu1rcLXz4TIXcog4MNC5IFBVcOIvFatHLz6aob8P3Jn6d8lRU4ir1t3uRC5Lou7QORPPz0LPXsmIj8/H5fYFR7sIorcjKBDkfNb6/L6mRky9xRC5O7YOM/UICKf8OmnqF9/BRo2XCpE7izju0Tkb76ZhgYNCoTIdVkIkWsk/K85F0I+COMfI/nWun98Aj5bUQEZIzegVYWfaL22fz+6deiA2rVzERa2SojcWTR3icibNctA8+ab0LfvAOlaZ3kIkTtrpfu2ELk7NvqMELlGIsh1RQV2ZGWh9SvN8NBvN8hkN19wVjGRf9CmDdi1Xr9+Dj755BNfd3Rnx2SM3IybjzHysLBMvP32Rrz77gfYy48yBbvIZDczgo7Jbt27r8VzzyVL17o3alU4Ri5d697g3+5+FXStb8vMRMvab+GRP2zFuHFFMmvdu4zuEpHXqjUf3bp1876bO98XIjdj54PI3347SxF5gwZNUEISDnYRIjcj6CDy3r034oUXUoTIvVETIvdGpBrvVwGRs2v9pT+/hD8/thOjR+djF9+VtbnQcfHdYr5iFaqlhoyRs2tdK3Ihcq/Kche61mfNWoMWLRbh3XdLULt2PWzjO+zBLkLkZgQdRN6nzyYhcl+ICZH7QqWaHqsiIn/5Ly/jr3/Zgw8/TMZqfinI5iJEbkbzxnvkQuR+oLoLRB4bWwAq8m7djuKVV+oLkbN4ZIzcTyV1nJIxcgcYLpsyRu4CzO0evjHZTRN5u3bTsYxf57K5CJGb0RQiN2N0F4h80iTOVZgtRO4sHSFyJxru20Lk7tjoM0LkGokg115E3rbtNOTxU6Q2FyFyM5pC5GaM7gKRT5iQjbp1k4TInaVzF4i8du10DB++SN4jd5ZDFXat84Mwjz46Tr7s5sT/traruGtdiNxH6chkNx+guBziP1ngpLpQLELkgaHKoJBzUhhAh2K5C0TeoEEOxo3Lx8KFC/E18w92oV/lt+j5T3KuXQvWmu/ra4Aiv7ZzJ85mZKDF69l45pnpiIjI9v2sd3pUFPmdIud1nShyL0B87FYxkffs3Bl16uRBJrt5lYUQuRcgLrs1kMgbNVqCMWOWIzo6Gmdt/M8JIXKXyuM4fP48Lm/fjl1xcWj5Ri7q1k3FlCnLcZn/0MTWIkRuCcmKCqxPT8fLj3smu4ki94FrFRL59dJSjBs1Ck2brhUi9y4KIXJvRHzv11AiHzEiB0OGDEF5ebnv576do0LkZrTOn8eFLVuwYuxYNK2XqYj8s8+ycJivaNpahMgtIVlRgU0LFqDRs6/jb4/vgxC5D1yrkMg5a71r+/Z45ZXFQuTeRSFE7o2I730hct+4OI8KkTvR8L3tg8gHDUrB+vXrfae/k6NC5HeC2q3XXDh+HEWzZ+OD11vjqSf2C5HfChFQxUSu3yOXL7t5FYYQuRcgLrtC5C7AOA4LkTvAcNn0QeSffDIHa/g/1m0tQuR2kDyxdy+yo6PRvcn7ePpvB4TIfcF6l4j89ddzMWjQIF93dGfH5MtuZty8vuwms9Z9QFaFk90unz6NHj3WoVmzfEjXuldZVMGsde+udSFyrzIIeJeR44gRQIj+H/nB7duRMm6cELm/ArlLRP7aa5no27evvzu7vXNC5Ga8vIg8MnIpGjWaJ6+fOZGrIiK/npiIoyUlishbty4WIneWAbeFyL0Rqcb7VUTkPd5qrxT5e+/FyHvk3tXhLhG5zFr3Koi70LXOT7S2abNUiNxZFFVE5N8mJKAwJwfvv78cQuTOArixLUTuA5TqeqgKifzF547h/fdjhci964IQuTci7vs17D1y+bKbj6IWIvcBio9DNeA9cula91Gud3Soioi8Z9MP8OrLZ9C6dSQWLVp0R7fqepF82c0VmsoTnKBUUAD51nolIrdu3AVFrsfIe/U6gVat3sPu3btvva/bPcL2wH/yE6qlhkx281bkQ4dmITw8HF9++WXwyNGvygdh/OPomOz2TpM8vPHGAsgYuX/I3M9qIp83zzNOvnkzYPF3IC0Nc/r1Q6/6LVH36cNoVGsAUseMsZoHsrOBtDRg+XK7dp04JCYCWVmhsc+vZOXmArNnA1ScznxtbfP79ikpuJabiwGtWuGN5zNQ+6lZ6N6ihb38FiwA5syxZ8/Xs9M+8/F1Lthj/ApXUhJUfeKckWDt+bqenyeePh3gKzabN2Ni32mo+2wUer+zDe0bv429CxcGny/bA+urr/xtHGM7Y3tjPjbsedtge5g2LbTteeVKfDt1Koqio9HuzVS0qJeJTz74HH3btMGX+fnBP9eqVUBGBpCaCmzaFLw9b4y4z7oyfz5g43592eecl7g4YMmS0Nx/cTHOpqUhqWtXvFc3E2/VSsIn7SdiTUICrtvCjPfOMmC74/P4es7Nm3GfO0PeI2c0kSckeMhkxQrA4u9AfDzmdO+OXq+9jbp/K0Xtv3ZBwkcfWc0Dc+d6HBcbjsV7v8kWnS/zCYV9VjY6RjYaBguhyGPhQnwzfTpOxcRgbPv2CHspG7X/GofuTZrYyy85GYiPt2fPFw60z3x8nQv2GFVsbKyn4TOwCtaer+sZhERGehzLihWY2GUi6j45Gb2arkOLl17Dbhv4sZ6yvvrK38YxtjMGCqFsD1OneojQxv36spGVhW8nTEDR2LF4v34SmtdOw6A2k9C/VSuU2/AjDHIYdNKvMvDxdQ/BHmPgz7aQmRka+7zv6GggPT009hcvxpm4OIxq3Bhta6cj7KVZ+KT1aKxh+7CFGQMdlgHbHcWMC+Y1h8hDPGudXet1XylHrVoDkEBgbS7StW5Gs6wMZxctQt6sWRg+eDDCwtbLB2G8UbuLXevyb0wdhVHFY+Tt26+QyW4O+Cs3q2Cy26k1a1QPYZuwlQgLWyxd65Xg3+6GVuRC5P6Ro1rbscN/mjs9W0WT3YTIDQUkRG4A6MbpGjZG3qnTKrRtu15eP/MufSFyb0Sq8b4QeWCFUwOJvE6dLHzEYQ5bi7xHbkbSx3vkDRumyutnTuSqSJF/Ex+PpKgodOxYgAEDjiEubqt8a91ZDkLkTjSq+bYQeWAFVAOJvHHj5Rg5cqT6JxHfstEGuwiRmxF0EPmZM2fA189atFgkRO5EroqI/OrMmZg0fLh6j3zkyAokJOzABx98AJZL0Av9qsxa9w/j+fOQrnX/EAV+Vog8MKxqEJGPHj4czZtvRPPmhRgzZgy2b99u518HCpGb65KDyEtKShARsQDvvbdciNyJXBUR+ZW4OEQMHIj33ssDiTwmZiMaNWqEkydPOu/mzraFyM24CZGbMQo4hYPI+Q9OLly4cMul169fx7Vr1245HsgB/YlWmezmB60qGiOvyMpCxrRpiJw4Ee++u0MR+ahRo7Bs2TKf5e7njn2fEiL3jYvzqIPIN27ciJEjU4XInfhwW4jcGxHf+zXggzBU5B81b462LVajefOlMtnNd0kHcNRB5MsXLEAuX7vxWq5cuYJznAh0B4sQeQCgVRGRl82di/6dOyNt7lz06FEmRO5dNFU82U2I3LsAbuwLkbsA43W4BhD5iaIidGnYEL26lOD994uEyL2KOODdb06fxvF+/bAtIQFd2rRBs2bNsGLFikoFzm4mKraUlJSAbToTCpE70XDZrkIi79exI9JTU9Gz5zEhcu/iECL3RsT3fg2ZtS5d676Lt/JoFUx2O7pqFd58/nl07bhViLwS+DvYuHTyJDZ07oyE/v0R3q0bWrVqhfbt22PhwoVITU1V73x//PHH6NKlyx1YB7YWFyNu+HBM7TYYDeqcRaNGn2IevyJnc5H3yM1olpWBilyI3A9UQuR+wHGcqtZtNcIAACAASURBVGFE3qVLIcaOvShj5I4iVptVQOSHV65E3aeeQucPtgiRe+N/O/uXT53Czu7dkfnpp1iakaGUd7du3fDOO++gadOmeOONN/DSSy+hRYsWOH/+fKVSDzSPVUuXYlJ4OBYOn4JG9c6jWbPxWMCv7NhcvoNEzp6Ss2fPBo6iDyJv2bIYERERMkauUaxiImfP16hR/Bem62Symy4Drquoa/3yjBno37UrPvywGFOmXBMid5YBt4XIvRGBIsCLFy/ixIkT2LFjB44dOwbuey90zgcPHlT/PIGvQXzzzTfqWpLo0aNH1bVHjhxRY9berwxVVFTgwIED6lrmc/XqVXCiGq89fPgwdu7cibKyMpUvj6vFMUaOG8TAtCTxt956C4899hj+9Kc/oVevXti2bRsuXbrkfct+95fn5OCznj0ribxBg5F33E3vmlEIiJzYcW5A5XIXZq1zgiHLlPWBZcJtHuOExDlz5mA9v9cd6FJWhiMpKejx3nvIycpC376n8P77WxAdHY2MjIw7ngNxU/bfgclubDesGywDPQH08uXLat+7Pd6Ejd5xTHZLTk7G6NFpGDbsALp3L0OdOm+oNwh00jtesz2wvoZqqSGK/FJsLNq8+aZ6/YxfBZVZ614VxovIWd/p/yu5wyv5be+SlwoK0ODpp9HlXlHkJG063r59++Lf//3fVVf1Jn4Y3muZP38+6tWrh1//+tcYO3aseqfx66+/Vv/6s3Xr1vi3f/s3NG/eXP0HMe//0pOUlIQXX3wRv/nNb1Q+JHw6naVLlypS/o//+A+0bdtW3UclIfsgcgYPp0+fVoXG7vU+ffrgk08+QUxMDL5g+ttYvIn8XvlEKwMtBkWVy10gcpY7y7ROnTp488031TbLbeXKlXjiiSeUmq68P9NGWRlKExMRVr8+Duzfj4iI6+jb97AaPhk4cKAqb5MJ4/nvAJGTtNmu8vPzwfLhsmfPHixfvhxfffVVJbm7YuUgcranIUOSFZH37HkcTZu2VMG267WBnhAiNyN18iSEyA0weRE5BeGWLVvsvKrKrClOV61Cy1q10L3T9nuja53RzP79+/Hpp5/iX/7lX0BSLuZ/W3IsfK+0e/fuSgU3bNhQqXYSMa+lsxg2bBi+973vgZH88ePHlVp3XK7shYWF4e9//zvWrFlTqbxplwHEz372M2RnZysy1moCPoicERfJnOvy8nJs2LABkyZNUsqcM215L+vWrQvI6dyrRJ6Wlobhw4dj1apVSrXujY7GFX7gIRSLy2Q39s4MGjRIBXRdu3ZVAR6DOJbvI488gun8xxiBLmVl2JuQgDr/+AdK9+0D/wFdePgRReQDBgzAqVOnArXknu47QOSrV69Gjx490KZNG/UVMLaHadOmoX79+vj888/Nwx0uRN6372l0794XpaWl7vgGeqYGEzmDJ/oz9mrqhf5p3759t9dbKESu4XNfexE5ewYp6CZOnKi+P5GZmaneuWdP4ebNm1WPobsxH2e0In/mmXtHkfMx2LVNx/yPf/xDKWMqKy4kVVbQuLg49UECnqdKci6MhPi/cn/3u99h69atSmk7z3Ob/+ebjr5ly5aqq1R3gZDUP/zwQzz11FNKTZCkKxcfRF557sYGuxFJ3J07dwadPj/rOXny5Fu6dkk83oSwaP58jO7aFSUz5uOtBher9T9NYdDE4QN+7YwYMtji877//vvo9eabiAgPV2VEkmdZUpWxXKje2TvCMqwMkLxB9Ld/8SKu7dmDY2lp+PrIETX8kpeXpxrLu+++q3pUWFdIGHzvu127dnj11VdVQOfP7E3nysqwJz4erzz3HPbfY0SuVTB7iS7zP8UxYAjF4meMnD0ha9euxeDBg9GgQQMVGJPQ2VvFISi22YD+l7ULkYeHn0F4+EBVpxg8B7XUYCLn2zMsA+1/qBKJO0UOyyfg5QaRd2jeXH2itbp1rbMHl/WAz8cPNnFODHt8bpoXU4Wvn5Ez2KNct25ddOjQQfEXfVPPnj2VyCMnMMC6rYVEfi9OdmPUwoZPdcXZ4fqdbb6jvXjxYqWw6CTYtZ7IfxPoWJj27bffVmPXHOf2tUyYMEE5laFDh950mrPEqdRJAKwYNy0BEDnTk6RYkCQ1qg9+ypAKpKCgQI2xckggPj5eKTyOLesgIjU5GYPffx/lC1aiWcNLARM5K62vOQQ33bveYQViI3bBRSfzt+Y9M+IcMWKE6srmzP0pU6YoNc5x5K6NG6PD22+rIRFWZDrxjh07qgh1/PjxSjUTf3axsuuVvS/EZteuXYqYiTvJnqTvXBjNlu3fj3Nbt2LWgAHYsmqV6jVh0EScaZPj4wwy2LBpl70EvXv3VvgfOnRIYc3710EE10x/03IPEzmdV2FhoXruI7Nn4/LatWr+AomdeDJ4ZBsi4fPH7ZuC1ZuA8LPjg8iJK+emMGhjEEXHxSEv7nPSJieFksg5h4RtggGYXyI2EDmHslh/glqqiMgvbdyoegYZzAbcVgN5MK/JbhQSbEfEhr6TAXanTp0UoZPYud+4cWMV6AZiXqW5QeQdW7SoJPLY2M3q9VtvMRKwTWdC+tUgPtHKuk0Blp6erkQdfe3MmTPVW0RFRUWYPXs2iuPisCU5GVuWL1fDgOQF+plA5mrQ71QOrzrv27n97bcoT07G2pQU9RYTh4L49hIFRVRUlCLzJ598UtV/Dv1xro3fuu+0ze17kcjpEBgx8lUu/kjYLCQeZyUlwfN9bVZIOnBndEnHzEJk1P/ZZ5/5HKdm4RFkTlLjRCi98FqSwSuvvKKI6ZbCC5DIaY/kzG79IUOGKKfFd85JaozSatWqhWeffVb1CLCri8Sv0sfHo98771QSeZ06QyqVJJ0tiYgNh+m5Tzy40FESF01O+nn0fTAtnTYj1ZMFBSjPy8OFfftUMtrwdZ3ThnObjp9ddbNmzVL402GzB8LpnHbNnIkl0dFKkdNp//KXv1TlxACpdu3aeOihh9TQBZ0KKzoVA4MBBlXEbMmSJcrxc8yb3bHsQqWqZ+WPi47GqpQUtHj1VYwaPFjVD5Zjv379VBTuvFe9zcCJXf/sXieGvF9NYAwYNMHr9AxyvLvWBw48iaysLFX3iGPQi8Wudc7FIElzGId1gZgSy5l9+mDVzJnKybG8YmNjVdDL3ig6OLYb/uio9MK6QGxYL3SAqc/pNY9/U1GByzk5+GrdOlw4eVLVLw5hMR8GTiRxBsWsq3phefI82y6HrxiAsXxd6989QuTEg3jt3btX9QBSFerfvtWrsX32bOTFxCj86Q8YYLI9ss0Qa70QB1csdCLvtYPISWgsfw5J8g0aqnEO87HuM5Dmb8aMGYrgqcpv8W/etvW+j671mTO3gSqTeQa9BEHkFDFsz+zC5idjKez47C+//LJ6g4jznDi81u2ttzCwXTsM6NkTkZGRKrBnIMlhBk52pgDQk5vJDywHliu32cNH4eK2MN3Vy5exdORIdGrcWJE1sadvJ8YsZ4pL9oboH30ez98iItwy8SLyDh3WYsiQVNW23S657eOc51RYCLDdOXuivQwF/P/IGdXTaY4ePVr9SKwkXII5d+5c9aNTfu655xQ5OvNhRMru3kcffVQpPqcjYTqCzsJnAMDXxKj89cIIjU7omWeeAcf3bgH5Nohc2+SaBUb1SrLhvfG5WMH++te/qoCD3Sx0BMleRN6y5RRFXrxnzsp/7733VMOk89OVjxWNvQ+sGLoHgen1jw6DjY1kyNenxvTqhdkjRmB9To6qrFQ0dCZMz0Wvnfevt3mOkwF57y+88IIKmHgftyyOyW4MPNjlTrIk4VAh816JBXtaONOf5E7C58TDP//5z/jVr36ljnMy4j//8z+rgIvpfvGLX+CR3/8erz77LN6rWxf/+/Of31KGt9zLjQN0aGzkVCl/+9vfwMmTxJSkwrpEHCuf/cZkt2b16uFgaakaI58yBeoNB9YZt14et7x9HrdE5Lxv3j+Hl/jq47/+67+qwOk///M/1fwSzvX47W9/i3/6p3/C/fffj5/+9KcKRwZTTz/9tOotYRDIZ+eP7YWverG86IA0Jvo816xTZw4dwoFZs5A1dSrWrFihyImOkWXJVzJZR/0t7Dl4/fXXlXpxBoE3XXOPEDn9BCd7MkD/r//6L1WPWZf5e/Uf/8Cvf/Ur3HffffjRj36kAlb6ME36xEwv9F3e/kqf02tdHnpfv352vaxMiY/HH39c4cp27dbTQoXKnpKAu3erMZEzuGePH0mcBL57927FDyRSzs2g36Cwez8sDA3+8Q80qlNH+dyf/OQn+MMf/qCCG/pjiiwGl+QDBvf0pcSPqpk9GvxWiF68y4Dlf/LECTSpVQv/eOoppcB1Wu8109IH8v82sIeEwW9Ayw0ir/f3v6v3yHv3LsHYsTnVm8jZNciHZHcJC4qvdLFLlt2vVNkEl2sqMSpo50KFwQKkk2JheEe4JEwGCXTmLDinEyHAWuWzUXkXmK/Jbs683bbZOKniqJqUKj55UkWCnEzHHgdGiHQE3kT+/vuxSs3T4ZH02SXDiskfexzoNLl+7bXXlNIn0TPSJgEyrY5QST5Uus8//zz+95e/xMtPPoneH3xQOX7DIQAGGAkJCZX48llI8M7/bsR7/ctf/qJ6EuiIWOFvCXZ4oYPI2RhYWYk7t1kmDCyIBcmCJMKomM/PIROqNuZDkmfET8XP8qSqoLLeWFiI/Xl5ODRnDlamp4Pj9M4ydCsDEguVCrt2OYudz8yAhJiQ6BgM9e/f30NAPhQ5iZyOj71DQXfn8iYtEDkxZXDLOsv74uRPBmt00nQ+vZs2Rde33lJBE9sOsaIiJpFwjgnrCQMyzvSnDdYXBscsYyoa/jj/gW2P+HPuCMuCWLVp3hyftW+Pvz38MB787W+VLT15lBNTTYREIm/SpIkKPqjMOZeCdUO3OdaRo1QH/CDSlSvqLRA9a12PkVeHrnUG6Rwy+OMf/6gwJ0nyGOsKfwN79ULbBg3QplEjlY4YcW4O1TEn6RJ79jZREXKIUA8hetdjKjsq+XHjxqmeF+LHgPIQJ9OOGoXUyEgVpLKMOC+IdUNj6W2LgRoDW/pYtzQ3XeODyKdP36TKz0rvVBCKnH6L9ZY9UBQrxIk9TBQY7KHi8B3r0pHFi1G6cCEOrF2rgii2BfoW9gTyevoE1mu2I+7T/9CfsgeVAoI9TLqnkD6WPVr0Kez9Ig/VrVMH3evXR+6cOTf5zJtwvCGUyC1U5uyVZbvjsCTbpMaS/oz37+SuL44cwZK4OPRo0gS9P+T8sUMYMWK+ahcBlaH3jfjat63IOcOPURTVHBXTww8/rEAmGRFA3jjHsNk1SwfgXNi46XzoqL0XFjILl4VPdcaxC+fCcWsWClW5z+UOFbkvW1RS7HkgcbFisNF7E3mHDjMVWT/wwAPqvhiAsGuMREdFS2XLikanTBxIVKyYnExBwmLl5ngR0xMPYtbktdfQun59fNS5s2r4dKYkNKooRqXcJ6ERG8665Fjm1KlTlSOnE6dtOgK/i4PI/aZznCQeDBxYgdl1z2COPzZOPX7OAO4q39/fu5fjCbh0+LBShw4zrpt0fAwa2BjpbIkfAyESGZ+bz8lGTAy35+beMtmNRM77Yr2h09UL75ukpRsTt9nj473QsTLw0Y3zQnExzvr4Vr/3dW77DIqoPlhXGZCSoEkgDIiIGZ3M9hkzsDkpSRG4dux0FgzOGEixi11/lZC9Jmw37LFgXdFkw/rEQJHHOBzFOkSH17RRI7R97TV0f+cdjBg0SNVh1g1i6+v5vZ+DASDbNtUQh51IaHwOdv/n5OSortJJffrg4uzZwOXLrkSuu6m97Qe8H8QYOQmDvorth3NDKCJIGiwbvWxbtgxrZszA+rlzlTDhM7O9sr2RLIirwrNpU9VLSMfOYwzKSBL8ESMSNNs0A3QGPqyv3G/WuDFa8bOd7dopzNhmWNb+Fgai9K+s9+yKd3bv+7ru6rFjKJs0Cd3atkXXrkUIZLIbfbevesB7Y48O2wvbCttDeWkp1iQnY8GYMTh/7lxlG2FdppDjfCPWU9ZvPh99PEUegxoGrAxeOZThvWjhoNqmj8lu7JLX5Ew/yTzYc0pcaJe+gMEOCZ+iQvtKtgm2Ff5Yhiyb1JQUrI+IQIWP+/C+L+7Tp7G+s23R7zCoY7DMdswy5zkOw1Cw8vlPHDiAhVFR+LhFC/TrvgdDhx7FsGFpqsy17/GVz20ds0nkbODsRmd3IQudxEuFQAfKcXKt6KhEWaHZeJwLwSfgLGTnwkrDRk9Vx4iLQQAboXMh4dGpsFB9LhaJnPZ5T+zKYcMlSUdNmnTTGDmJnA6OZE21qhsBFSxJhU6DkRwbDXFTwUBysorwOT5JR8/GxArLCJyVNnf6dGSNH4/FycnKJoMXYsJAgBWI6Vh5WJmZN4c1WKl5j4wcma9xuQMiN9rUCVxeP9OnTWtWeka8HPdi9xaDId2guc3Ie+aIEeA4f5M6dW7qWqdyYoNjlM/yYqOjQ2RdZYDJ4RjiSQyZhmXGsmIQQefJa3ic5ZA+bhzSRoxQ+1RhdESsnzoqNz0Hy5yOh4RLewwSbln4poehi1tfw0lYbA90lnwO1isGbDxGgqZaZA8Sn4F1KzE2FrG9emHDvHk4fSN4IAbaOWu7pjXrPwNO9joxiGagQOfInoHmL76I3VOm4NuL/CTo/3uPXCtyBsH0FfQLzJs/4kDFw6BdL/QZbB8Muogby4XPSN9SQdW/eLEiFqZj3WBPEcuJ7UKrPG1Lr2lPtysSrTM/nUatfXwQhsEqgxWWH8uewRNVPYNLBtEkCpI72x0Jm8qQ3cbsOaKz548+4cEHH8Qb9eujyVNPYfzIkcqXkCRNC/0IgzgGBQzOiS3vhQTJOq3LXfc8nT98GOuHDsWAHj3Qu/fGSiJnmen5FhwiIK4sTwa6rD+sLyQhBi/sOaJwoW22Efb+se0wcIsYMgQdmjXDGy++iE9Hj1bth2lIqvTl7DpngEMsWD+4zUCIdYSER1I3Lj6InO2S5U3MWG9Ydxns8345hMj2Tn/BNsn7ZbBLXqGgJP+QyOkz6Etu98tuzJPDe8Segon+lT2nrPu0Sz/D9kAfTFG1dc0an0TOIINBO3+8X/oQ+mjWK9Zxlgl7mlmWOoDSip9lwvbAcuGw54l161CSmIi1GRk4dOCAwoS9qayvzsU4Rs6GRsdHwuDNs8Jx4cNwghu7jGiUDVd/yIXpeR0X3hSBYHcpbbBC8cfIjpEnHS5JimOwJHI2Vl7LH+1y3JwNhJVQ21SG9R/LRE6zdB5stHzVrl+vXhjywQeVk926d5+jKi8Vu7UlwFnrxJ/jTGzYdJgkC10ZjPdSjYncee8McrxnjtIp93/vPayPjkbnVq1w9PDhyjFyNnI6ETY8OlvWS86n4KuKdLZsjHzVjcM2bIR0lGxorK8kQnanKhXVrBnefvVVtKxdW9VDlj/Jkj1FxFoTOh0InYuvhQ6SQSsdnnOy2k1pb4PIb7oOUKpdExvb1S1Rv49Z6942Atln9zAdDme1M0BgcMWgnU66dYMGmNG9Oy5duOCTyDmsRudOp0ds6dwZkDL4oCMjqZCU6cwY8HOfTpgKSA/XZI4fj71xcaq7leqPhMSAlgESu1tZfvQTLHv6EbYB4k2/QyfMuQm8dxK7z8UHkTvT0c+QUOh/dFlTIZOcSHIkCgYr/PH5dMDGdkkluGblSmSEh+PUzp1Os8ZtPg+JUg/Nsa5yjJ9j7PSNnG9BNcp7qThwALl9+2Komqy1pZLIWdeJP9Uqryfp0k+zB4/7rNckYbYV9kKwDTBQZi8YJ6AxEGD38mOPPIK/PPQQnnvsMfzm179WAQvbliYytjkqV/bMcg4N/TSHhUh8LG/WT+Pig8iN1/hJwHrB3oHKxes98srjhg32GtAHkdRZ1sRP94gyeNDKPGHaNMyfOhVD2rRBvx7/T5Gzi57X8EeeIL/Rb7NMeC2Hcuib6M8ZoLBeMfhiefAYuY4+h0FrwvjxGNauHT5o2RKx06erc6zj7GXTEwHZg+KXyJmAjpUNmTdBJ8VIgQ6EN8bGyKiBUR7J9sc//rFS5ByPY2Xj9Yzw6FRZ4LRBQPhjNxUrDCf4UHVzogMrCRs8nRUjeI5Tc5yLFZgPycZ1i/PSRM6P07D7lBPEgvxdvXIFOYsWqUrfuH59xA4ahIoFKxHW8DLGjFmtcOC9BZtP5fUkckawdDB+7v1AaSmOGdK4Xs8uYyp3P/bv+ByJjV3r7N5nA7acB8mhd5s2SBs6VP3TlGNHjmBMBDBlsqdrvXatWsrh0eFv37YNkydNQq+ePfGTH/8Yzz/3nFIUPPbwH/6AV2rXxn/94hf4wfe/j989+CBqvfyy2m/M7tG33kKb2rXxev366PDBB/if++/HD3/wAzVJ8902bVQgynKnUv6GavKbb1Rwef3aNbVOmTMHrVu1QkV5uTrnE4f8fI8it4yRyotDHEuX8oMP1tqCfgZOHNpZUoIZUVFo8NxzqPjyS0z7/HMMGZyE4cMOIrzvaYT3HaAceUe+p/vuuwr7t8PC8NsHHlBfg/y3730PD/3ud2oSJbFn2bBtc4LTU08+qcqHE9Mef+ABtHj5ZbR55x3wa45UuSS3Z55+Wk1O+9f/83/U9ygavP46OnfqpFQZCZ/KkQp6dnKy/zrINsT2xnZ3B+Vw4fx5nDh+HHv37MHWLVtwhYr7+nUUrl6NdA4rsj3wvy0ePXrb9mmL7XxuSgpGDB+O8L590b1bN9ULx/r7YdeuKsi6icj7bkHk1OuIidmg2gHJn2PIj/3xj6hXt67CnLj/3x/+UNX7JzkXqU8ftGzRAs3ffhu9e/XCyBEjMHTIEJXv4txcRI8bh6Rhw3B43jzExsSAdZv35Y1X2rx5mJeaikMHD2LB/Pk4xzoYKKac1MzPNFNdBnqNn3TMW5eFssfhFE6I27/fin19jyz7SRMnomenTkgeMwbTe/XC4L4HMXTIEQwbmoZOHTviib/+VYkHfviKE1r/9NhjiPjsM/WjL2HQxK+f/vhHP8JPf/IT1T5Y9yk4WM+bvvWW2n70wQfxyP/+L371i1+APuq///u/FVcy8Bo2dKgS0nxuv0TOwIXRKcfvyP7sNtZRLiMuEi7Pk7T1JCmO8zm78hgpsyuM0TJtUNHwx+4BHucELe4zGmVkrQMABgGMdHkdo27a4bFbFk3kOTmcwgzwHdYgf9cPH8b5nTvxFlXIn/+M2L59UZGUjWavfYW4sYVIjYpC5owZQedTeZ+rVnkmo7Fi+7n3q6Wl+IZjJn7SuJ6jgykouLNrTfmxodAxZmQA27ZZzyN61CiEt2iBhJ490a9NGxxbtw5jBnyFKcMqsK+gAG2aNMFrL7yAZXPm4PK+fTi5cSP25uejZPFilCxZgp15edizYgX2LV+OgwUFWM2x0bQ07F22DPvz87EiKQlFaWnYPX069k6ZgrULFuBocTH25OVhU2Ym5k6dio6tW+MVqpYnnkCjevUwqHdvpE+fjtykJOxbtQrzY2PxcdeuGNqzJ64dOuSOATHirGgTpndyfs8eYP58gPWJ23diw+Ua1jtiWzR7Nrq89ho2ZGVhZHg4RvaNwcQh+xHe6QDCO3XH7x54AJ99/DH2rliB4vR0HC4sxKasLEwdOhRdWrdGWIMGeODXv1Yzlsf2749Jgwdj2siRqhyYLnnCBHzaoQMGNmmCfp07Y8HnnyN+zBgsSUjA2vnzMXnwYGRPn66OjezbFy3efBO/f/BBNHn9dXRr1w6JEyfiwOrV/p+d7Yw9VMTJ5Xn9Had/IB5X+Mravn3gPtOXb9+OExs2AHyNdOZMgJ+wvk37tMV2fpbDdBs34uT69aouz548Gb3bt0ffjh2RnZCAijVrsLhHDwzp0gXhnVYjalQFpkcsQ61nn1U/4rQxIwP78vOxMTMTu/PysGHhQlUm6xYuxJacHFU2R4uKVB7Miz/mS99XXliIrzIycDUzExVbt6rjvC/v52F6/njuXEmJ/7rvjcXy5Z62wPfVvc/dwT7bnS4LZY/tMCnJ842OO7Dndk8s+wmDB+PN2rXxaadOyBowACO67cLoj/ZiUI8YvP3GG2jI16WHDEHi+PFIi4xE0bx5OMO3cjZtwsq5c5HD14ETEjCyd2+sW7AAsydORES/fogZNQpbFi3CodWrMWvcOPRq0QIfh4Uhn5OvV65E7OjRSJ44EQtjYtCzfXtQaA7s2dNM5LcQZ3U7oImc755T7ZBQLP3a1q+Pxs88g+yPP0Z51ByEvXgSSyauRdmCBTjOSM9SPuB/U5s7F+BXv2zZ9LZDx0In733cxj4dIuc28CNAVIQ2bDpsZEVEYHDLlhjYuDE+atoUxzIyMKbrYUzudQAH0tPRIywMPZo2xca4OJX39aIiXF21CteLi/HN6tW4uGKF+un7upSfjysMatasAdNeWL4c55ctw9XkZHwTH6/2eS3P8/pT2dkoiopCwkcfYdbHH6N9gwZo8Pzz6NikCZq88gqav/46ujRrhug+fbAjIcH/8xOj1FT/aRzPru85oDW77ePjPSrEclvQ+e+fNQuTw8IwtU8fvPfGGxjZcSziBuxCeOttCG/dDs8/9hhmffKJwp+48zqWxdH587EpNhZpw4ej8fPPI2/8eOxPSUHp3LnqnE5HrPdOnYptQ4diS1wcynNzcSIjAxWLF6syPJyWhrN5eTi2cCF2JiZi6bhxiOreHYkDBqCAQ3fp6WD56vv1uWY7Y3tju7tTrH1c921hoaovKmDmpF0GCz7S3e4x4sfnnT9qFAa3a4d5o0ahgmP5nTtjaJs2CG+dg8i+BzH943mo/be/oVmtWiiIjFR1/Fph4U1t4XJBAS6tXOmp40VF7ve3bBmQng7Qr/pLF8zzUVywLYTAZyiMed8xMUBWlvtz3uH9R/bpg8bPPYehzZtjcd++GNVuI6L6ksTbFwAAGBtJREFU7kK/1qPxp9/9Dn2bN8eWmTNV3f0iJ+cm//PV0qWqPp/Ly1NtgOV7ZtGiyragfRfr/crRo7F8wABcSE/HtdWrVT04nZ2t0q+aOhX9W7VC67p1axCRU+kw0mYXr6Vfn/ffx4dhYSieOBHlcQsQ9sqXKE45Ys1+5X2y0ZAISR6W7v0WO2yQbDChsM9ZoXSefC1p3TrreZTk5mJ0jx6o//jj6NeyJY4XFGBM+BlM/uQUDufnY3C3bkifNg3HOD4WzPMtWgTQufiw8e2uXSjfuBEXtm5VimjciBGIGDwYb9Stiwb16qnt7XTcPq696RjtMx9Tujs5zzFHEhQVP7fvxIbhmhOLFiGV3dnt2+PNV17B8B5TkTjmJMLb70V4+y5oWrcuFkZH+8z7m127cHLNGmTNmoWz/toq75/11XAvPH+lpARfbNigflfZVR7ANaqdsb2x3QWS/nbTsD3ExnoI8HavdUl/fc8eHCoowNBu3TB92DBU5OdjcbduGNqhA8Lbr0Dk4FOYPiJHfc+hI0mE/tDFVkDH2bPA4TjaYe9OMLbcrqX97GyPYnZLE8zxXbsABtYMcIOx4+PapHHj0KZhQ/R96y0s7t8fozrvQNyok+j93lj8zy9/iaSJE/Elhw18XHs7x84uXowz7FVgLxOfx2Hv8o4dWJ+ZiYHdutUgImf0xfEZiwsnLcVOmIB92dmVk93ItdaXACe7BZXvPTLZzdczcp7GxPHj8dv771dj5MePHq2c7MZhH04A4lCN8xUjX3aMxwJ8j5wzTTkExKEiTtTixCpO4AxoCWKym9G+pclu/vKp2LUL+Z98gh5duqgJasOHp6iOmI8/LseoUWPVHBnOLg5qYXtgfQ3VwjFyvlnDfEKxOL7sZts85ytxUte2lStvmezGT7RystrgwYPV7P+g8mZPZxCfaA0ob8uT3W7J8w4nu91ix8cBzsfp0rEjmtSujdxRozBqQBk42jpoUIqa9MehYte3JnzYcz0UwOtnfNvCOEbumkF1OaG71kNA5OoR+anMHTuEyP2Vd5Cvn/kzrc/Nio/Hw7/5DQZ27QonkevzVtYBEnlQed3jRM5PRZ6cOlXNE+CkKk3kQ4deRF5egZpdztm+QS1C5K7wceY/X7nq16EDsnv3xtB+/dCv31Y1az0+frua+c/AkvOZglqEyP3Cx1dTOWH7Vz/5CbJHjKgk8sTETWqS9i2Tsv1a83MyACLn2xVC5H4wVKeEyE0IAVVA5Ktyc/FxmzbInz0b5ysqKhW5+eZuI4UQuRksFyL/7DN+ZvmiesuFPRZBLULkrvDxbR6+etS0Xj0MadIEEz/7DEOG7FVEPn/+YfWaGV/p40TkoBYhcr/wsZeQr6Z5E/nGjZd8fnTHrzF/JwMgck44FyL3ByLPCZGbEKoSIv9i507sSkxE+aZN6mMk/H/k/LKb1UWI3Azn4cMoj4lB/z591Ouk48dnqa71iAj11Vbz9YGkECL3ixLfPW7bvDmaP/ss4mNj8dlnRxWRr159Ub3hw9d0gx5mEiL3WwYkz6TERPVq2IbISIwZdFJ1rVsfrQmAyHmjQuR+i0uI3ASPOl8Fily9Y8+Z5qzYl/k+vxD5LWVTBWPk7Fq/yP+WlpOjxmpjYvKFyL0LIoRj5MyKH+v5oG1bPPv73yNr4UJMmfKlInLGodYWIXIjlBuLizHyww9xKjUVk4Z/IURuRMxfAla4ESM8M0QtT3ZT2Yoi94e+55wQuRkjnaIGjJFfT03F+S+/VF9cy8jYJUSuy1avq4DI27RujV///OcoLixEbOxFIXKNvXMdwsluzObSF1/gdGEhruflIXJUhRC5E/vb3hYiDwyye3jWunpAzjQWRe6/rKtIkev/fsab4dswfDVeutYdRRNiIuf36/nVux9+//vYs3s3+CE7fmhSFLmjDLgZYiIH5yHwlTAhci/g72RXiDww1ITIzTjJGLkZI8f/I2diIXIfkIWYyPmly6iJE1H7T3/CEf6rZSFyH4UgRO4blOp6VIg8sJIRIjfjJERuxkiI3IxRiImck9lKCguxbMAAfH36tBC5W4mIIndDphoeFyIPrFCEyM04CZGbMRIiN2MUYiLnjPSLhw7h0syZuP7VV0LkbiUiRO6GTDU8LkQeWKEIkZtxEiI3YyREbsYoxESubuDkSc8/BDl7VojcrUSEyN2QqYbHhcgDKxQhcjNOQuRmjITIzRgJkZsxYop7+BOt6gFlsltg5RxQKiHygGBS367m/yMPxSKvnwWOag14/UxmrRuKW4jcANCN00LkZpzkgzBmjAJKIe+Rm2ESIjdjpFMIkWsk3NfyZTd3bPQZ6VrXSLivpWvdHZtqd0YUeWBFIl3rZpyka92MkXStmzESRW7GiClEkZtxEkVuxiigFKLIzTCJIjdjpFOIItdIuK9Fkbtjo8+IItdIuK9FkbtjU+3OiCIPrEhEkZtxEkVuxkgUuRkjUeRmjJhCFLkZJ1HkZowCSiGK3AyTKHIzRjqFKHKNhPtaFLk7NvqMKHKNhPtaFLk7NtXujCjywIpEFLkZJ1HkZoxEkZsxEkVuxogpRJGbcRJFbsYooBSiyM0wiSI3Y6RTiCLXSLivRZG7Y6PPiCLXSLivRZG7Y1PtzogiD6xIRJGbcRJFbsZIFLkZI1HkZoyYQhS5GafvnCKn0jlxAmAjsvk7dkz9f8Dy1Dw0e/0CipdftGuf97p5M7BqFbB/v33bGovsbM//OdT7NtcMprZvB5YsAejobdrWtvbtU/8uEDt3AuXliBh5BZPHXrabV3ExsHSpXZv6/vWa9pmP3re5PnUKWLTIU5+o2Gza1rb27AFSUgD2VH39NfZuvYjE2MsYM/IqrpRfsJPnpk0A66vO0/aa7Yztje3Otm3aY3vgvyQLZXs+dAhISABOnkRy3GVETriCjYWX7D3P0aPA2rUA/Sq/YBYKnGi/qAg4eDA09vlvfdPSAPbwhOL+T5/2BCM5OYgcehozoq+gZINlfqC/W7ECYLvj87g8x33mkKCap9CKfNYsICcHWLbM7o+Occ4clE+ehbDnj6F4yga79nm/dIy8/4UL7dvWeEyf7slH79tck8DZYOLigMzM0DzDggXAzJlAeroKGCI67MOUD/fYzSspyfMMNrHxtkWMmI/3cRv7rP8s57lzQ9MWeI8sB/7zawYky5Zh36w1SPy4BBEd9uPKknw7z8X2wOewgYkvG2xnbG/Mx9f5YI+x92vKFA9Wwdpyu57tbOJEFbglDyhBVI892DTNom9iIDV7tidYcLuHYI8z2GFbCJXPyMsDoqM9vinYe/V1fW4ukJoKxMYiquM2xIXvRkncWrt1in41Ph6YP98jZHzdx7JlqDlETgezYYMn+mIEZuu3fj2Qm4vyGeloVusMipIP2LOt75FESOeyerV92zoPNhpWPL1vc01lwwrGSk21adO2tkUFxUqdnw9s3YoxfU5iSv8TdvPKyvI8g84zFGtixHxCYZv1f84cT89IKNoC75kKbcYMjxIpKcG+nP1I+uwYIvqcwpUtO+08F4mQ9TUUGNEm2xnbG9tdKPJgj0JMjEf1h8I+bVLJkqTWr0dyxDFEDTqBTfMs+iaqZYoY+lV+2jkUz0H7bAt8llDY532TBJcvD419DsUxoE1JQVTvUsSNOI6SjP1286IaJ4kXFHh6PV1wqjlEzsIqKwPOnrX7O3IEWLcOFXOXIqz+BRQvvWDXPu+XTpcOkt0ntu9f22PUy6BE79tcs0t361ZPoFBaGpo8iA0bDbvwz5zBmOGXMCXikt286OBJIjax8bZF+8zH+7iN/ePHPV3SdDAcErJh09vGrl2eYIHdimfPYt/m80icdhFjhl/GlTOW2h7rKeurd9629lmX2N7Y7mzZdNrhEF9iYmjbM7vt2UNVVobk2IuIHHcRGwss+iZ23a9Z4+nW5TCK8/lsbTPoZ1vgsJktm0475eWewHzbttDYZ3tj0LZoEaKGnMKMqRdRsva83bwYjFAksYv9yy9dbdccImdUx0K0vcisdTOiMmvdjJFOQQIh0YZi4Rgagx02em6HYpHJbmZUOY7J4Q0GU6FaZNa6GVmZtW7GqNqk0GPkQuT+i4RKUP77mX+MZNa6f3x4VojcjJEQuRkjppBZ62acvnOz1oXI/VcKIXL/+PCsELkZIyFyM0ZC5GaMmEKI3IyTELkZo4BSSNe6GSbpWjdjpFNI17pGwn3NCT0MPEO1cC4NJ3Mxn1AsQuSBoSpEbsZJiNyMUUAphMjNMAmRmzHSKYTINRLuayFyd2z0GRkj10i4r2WM3B2bandGxsgDKxLpWjfjJF3rZoyka92MkShyM0ZMIYrcjJMocjNGAaUQRW6GSRS5GSOdQhS5RsJ9LYrcHRt9RhS5RsJ9LYrcHZtqd0YUeWBFIorcjJMocjNGosjNGIkiN2PEFKLIzTiJIjdjFFAKUeRmmESRmzHSKUSRayTc16LI3bHRZ0SRayTc16LI3bGpdmdEkQdWJKLIzTiJIjdjJIrcjJEocjNGTCGK3IyTKHIzRgGlEEVuhkkUuRkjnUIUuUbCfS2K3B0bfUYUuUbCfS2K3B2bandGFHlgRSKK3IyTKHIzRqLIzRiJIjdjxBSiyM04iSI3YxRQClHkZphEkZsx0ilEkWsk3NeiyN2x0WdEkWsk3NeiyN2xqXZnRJEHViSiyM04iSI3YySK3IyRKHIzRkwhityMkyhyM0YBpRBFboZJFLkZI51CFLlGwn0titwdG31GFLlGwn0titwdm2p3RhR5YEUiityMkyhyM0aiyM0YiSI3Y8QUosjNOIkiN2MUUApR5GaYRJGbMdIpRJFrJNzXosjdsdFnRJFrJNzXosjdsal2Z0SRB1YkosjNOIkiN2MkityMkShyM0ZMIYrcjJMocjNGAaUQRW6GSRS5GSOdQhS5RsJ9LYrcHRt9RhS5RsJ9LYrcHZtqd0YUeWBFIorcjJMocjNGosjNGIkiN2PEFKLIzTiJIjdjFFAKUeRmmESRmzHSKUSRayTc16LI3bHRZ0SRayTc16LI3bGpdme0Is/NBfbsAcrK7P527wYKClCelI2wOl+hOOOMXfu839WrgSVLgM2b7dvWeKSlAatWhcZ+aSmwZg2QkQFs3x6aPBi9Z2UB69YBBw9izMCzmDL8K7t5LVsGZGbatanx12vaZz563+Z63z5g/nygsBDYuzc0ebDXIjFRlQGfYe+qk0icXI6IAV/hyqFjdvJkPWV9tYmN0xbbGdsb253zuK1ttof4+NC2Z7azGTOUz0ueWo7IkRXYmHva3vMwmMrPB+hXjx61Z9eJ8YoVQF4esG1baOwfOQLMnu3xGc58bW2zvbGtzZ+PqP5HMWNcBUpWnLL7LPR3ixYBGzYAfB6Xe7+v2hHz7d6QJvLISI+DSUkBbP7otGJiUP7ZNLz990MoHr7Mrn3ea0wMEB3tafw2791pa/JkYPp0+/fOPJKTgdhYYMoUICEhNHnMnAlMnepxXrNnY0yrLZjSdpPdvD7/3JOHEzfb23wG5mPbLu0lJQEsZ9Yn1ttQ5MFyGD/e4yBTUrB34iIkdl2DiFZbcCUp1U6erKd8jlDcP22SZNneiFMo8mB7GDcutO2Z7WzMGFXmyd2KEdVuIzaOXmrveWbNAqZNA+hX58yxZ9eJN9sBf6HyGbzviRM9PsOZr61ttrcbdTWqzRrM6LgOJWNz7WLFYI1lEBfntxxqDpGzy/LECYDjUzZ/x4+raKg8NQ9hDb5G8YpLdu3zXjdt8qjl/fvt29ZYZGd78tH7NtcMpnbs8KgcjqHatK1tERtG7zt3AhUViBh5BVPGXbGbV3GxJw+dZyjWfAbmEwrbp08DOTkeJXjqVGjyYK8XHSGHnL7+Gnu3XURi7BVVHlcqLLU9tgfW11BgRJusS1T9zCcUeZw54wluqcxDYZ82Dx3yEOCJE0iKu4zICVewsdCib6IKpxqkXz1/PjTPsXYtUFTk6d0JBU7nzgHz5gHsXQiFfbYx9hTm5iJq6BnMiLqMkg0Wy4D3TH/HnhH2DPN5XJ6j5hA5K8TZs7er583pZYzcjJGMkZsx0ilkjFwj4b6WMXJ3bPQZGSPXSLivZYzcHZtqd0Z3rQuR+y8ambXuHx+elVnrZoxk1roZI6qmuXOBY8fMae80hRC5GTkhcjNG1SaFEHlgRSFEbsZJiNyMkRC5GSMhcjNGTCGvn5lxktfPzBgFlEK61s0wSde6GSOdQrrWNRLua+lad8dGnxFFrpFwX4sid8em2p0RRR5YkYgiN+MkityMkShyM0aiyM0YMYUocjNOosjNGAWUQhS5GSZR5GaMdApR5BoJ97Uocnds9BlR5BoJ97Uocndsqt0ZUeSBFYkocjNOosjNGIkiN2MkityMEVOIIjfjJIrcjFFAKUSRm2ESRW7GSKcQRa6RcF+LInfHRp8RRa6RcF+LInfHptqdEUUeWJGIIjfjJIrcjJEocjNGosjNGDGFKHIzTqLIzRgFlEIUuRkmUeRmjHQKUeQaCfe1KHJ3bPQZUeQaCfe1KHJ3bKrdGVHkgRWJKHIzTqLIzRiJIjdjJIrcjBFTiCI34ySK3IxRQClEkZthEkVuxkinEEWukXBfiyJ3x0afEUWukXBfiyJ3x6banRFFHliRiCI34ySK3IyRKHIzRqLIzRgxhShyM06iyM0YBZRCFLkZJlHkZox0ClHkGgn3tShyd2z0GVHkGgn3tShyd2yq3RlR5IEViShyM06iyM0YiSI3YySK3IwRU4giN+MkityMUUApRJGbYRJFbsZIpxBFrpFwX4sid8dGnxFFrpFwX4sid8em2p0RRR5YkYgiN+MkityMkShyM0aiyM0YMYUocjNOosjNGAWUQhS5GSZR5GaMdApR5BoJ97Uocnds9BlR5BoJ97Uocndsqt0ZUeSBFYkocjNOosjNGIkiN2MkityMEVOIIjfjJIrcjFFAKUSRm2ESRW7GSKcQRa6RcF+LInfHRp8RRa6RcF+LInfHptqdqSJFfi5rJQb0uYzt20OAAB3X2rVAWVkIjN8wWcMUeVISkJpqGS5R5GZAvRT5kSPAokVAQgJw9ar58oBSCJGbYXIQeW6upy3s2mW+LOAU9KtbtwLFxcC1awFfdlsJa5AiT51egYULgdLS20LAnPg7p8jz8gA+9Jkzdn8smaIifJOZg83ZZajYd9qufd7vmjXA8uUAHZjt+9f2FizwNEq9b3N99CiwYQOQnQ3s3h2aZ9ixA6DH2rwZOHYMB9adxqENlsuCapmsZBMbb1u0z3y8j9vYP3QIyMjwBIUHD4YmDzr35GRVBnyGC4dOo2zLGZSuPYNrpyyVR1ERwPpqAxNfNtjO2N7Y7nydD/YYoxtGNqyzwdpyu56sHRenfN6xrWdUW/hqvyX8mee+fcDq1QD96mmLdp3Ps2oVkJ8P8Fmcx21tnzoFzJkDbNoUGvsMatetAzIzcWjFARzZdBrnDljGiv5uyRJPUHXihOtz3GcOCap5Cq3I09IU4SpHz4e39Sss9BBUSoqn0GzZddqhc09PB1assHffTvvcTkwEsrJCY5+VmYqfjYYk5Z23jX1iM3cusHQpsH59aPIgefAZbNyvmw3aZz5u54M5TmIiybI+UUkFY8vtWjr2mJjQlQHzZUDI+up2D8EeZ11ieyNOwdrydT171z7/3BMs+Dpv4xjbWVRUaHwe748knpkJ0K/auF9fNihh2RZC5TPYwzZjhocIfeUf7DG2N4oLdg8y+AzWnq/rSeLsely2DODz+EqzeTNqDpGTaFkh2Ihs/miTFY4OkoVl07a2RfuapPQx2+v4eM9z2LZLezrYYYVmhQtFHqzQLIOcnNCVA50WnyEU969t0j7z0fs211Q4VIJU5QUFocmDjoskFaq2QDzYHlhfbWLjtMVgkO2N+TiP29omCUZHewjElk1vOwyopk4Njc9jXgx25s/3BLbeedvaZzDFtsBnsWXTaYdEO326J2BzHre1zTbGYGfWLE/Pgi27TjsMNhn8s90xOHeec2zXHCKnYzl71n73wY3JbipIuHzZvn1alDFyM66cP8CGw+GTUJWDjJGby8FrjNx8wR2kkDFyM2iOMXJz4jtIIWPkZtDOn/cMCzAQ+eorc/o7SfGdGyMXIvdfTWrYZDf/D3uHZ4XIzcAJkZsxquLXz8w3dAcphMjNoAmRmzEKOIUeIxci9w+ZELl/fHhWiNyMkRC5GSMhcjNGTFGDZq3fbUX+/wMo10iidAOcMQAAAABJRU5ErkJggg==;" vertex="1" parent="jJ7y8H1RoMSDKaFRN04o-18">
          <mxGeometry x="10.582946920517145" y="10" width="193.66" height="70" as="geometry" />
        </mxCell>
        <mxCell id="jJ7y8H1RoMSDKaFRN04o-22" value="256x1" style="text;html=1;strokeColor=none;fillColor=none;align=center;verticalAlign=middle;whiteSpace=wrap;rounded=0;shadow=0;glass=0;dashed=1;sketch=0;fontSize=9;" vertex="1" parent="JzI5cQmfPr15dhNoTTF8-1">
          <mxGeometry x="244.43" y="410" width="70" height="20" as="geometry" />
        </mxCell>
        <mxCell id="jJ7y8H1RoMSDKaFRN04o-23" style="edgeStyle=orthogonalEdgeStyle;rounded=0;orthogonalLoop=1;jettySize=auto;html=1;exitX=1;exitY=0.5;exitDx=0;exitDy=0;sourcePerimeterSpacing=0;targetPerimeterSpacing=0;strokeColor=#000000;strokeWidth=1;" edge="1" parent="JzI5cQmfPr15dhNoTTF8-1" source="jJ7y8H1RoMSDKaFRN04o-25">
          <mxGeometry relative="1" as="geometry">
            <mxPoint x="350" y="491" as="targetPoint" />
            <Array as="points">
              <mxPoint x="425" y="545" />
              <mxPoint x="425" y="491" />
            </Array>
          </mxGeometry>
        </mxCell>
        <mxCell id="jJ7y8H1RoMSDKaFRN04o-24" style="edgeStyle=orthogonalEdgeStyle;rounded=0;orthogonalLoop=1;jettySize=auto;html=1;exitX=0.5;exitY=1;exitDx=0;exitDy=0;entryX=0.5;entryY=0;entryDx=0;entryDy=0;sourcePerimeterSpacing=3;targetPerimeterSpacing=3;strokeWidth=1;shape=flexArrow;strokeColor=#8C8C8C;" edge="1" parent="JzI5cQmfPr15dhNoTTF8-1" target="jJ7y8H1RoMSDKaFRN04o-8">
          <mxGeometry relative="1" as="geometry">
            <mxPoint x="330.615" y="580" as="sourcePoint" />
          </mxGeometry>
        </mxCell>
        <mxCell id="jJ7y8H1RoMSDKaFRN04o-25" value="IACM" style="rhombus;whiteSpace=wrap;html=1;shadow=0;strokeColor=#6c8ebf;fillColor=#dae8fc;fontSize=12;" vertex="1" parent="JzI5cQmfPr15dhNoTTF8-1">
          <mxGeometry x="256.45000000000005" y="515" width="148.33" height="60" as="geometry" />
        </mxCell>
        <mxCell id="jJ7y8H1RoMSDKaFRN04o-26" value="训练和验证" style="rounded=0;whiteSpace=wrap;html=1;shadow=0;strokeColor=#d6b656;fillColor=#fff2cc;" vertex="1" parent="JzI5cQmfPr15dhNoTTF8-1">
          <mxGeometry x="431.28" y="501" width="97.37" height="30" as="geometry" />
        </mxCell>
        <mxCell id="jJ7y8H1RoMSDKaFRN04o-27" value="NOR" style="rounded=1;whiteSpace=wrap;html=1;shadow=0;strokeColor=#8C8C8C;fillColor=none;" vertex="1" parent="JzI5cQmfPr15dhNoTTF8-1">
          <mxGeometry x="150.10999999999999" y="678" width="34.58" height="20" as="geometry" />
        </mxCell>
        <mxCell id="jJ7y8H1RoMSDKaFRN04o-28" value="LBB" style="rounded=1;whiteSpace=wrap;html=1;shadow=0;strokeColor=#8C8C8C;fillColor=none;" vertex="1" parent="JzI5cQmfPr15dhNoTTF8-1">
          <mxGeometry x="200.73000000000002" y="678" width="34.58" height="20" as="geometry" />
        </mxCell>
        <mxCell id="jJ7y8H1RoMSDKaFRN04o-29" value="RBB" style="rounded=1;whiteSpace=wrap;html=1;shadow=0;strokeColor=#8C8C8C;fillColor=none;" vertex="1" parent="JzI5cQmfPr15dhNoTTF8-1">
          <mxGeometry x="248.50000000000003" y="678" width="34.58" height="20" as="geometry" />
        </mxCell>
        <mxCell id="jJ7y8H1RoMSDKaFRN04o-30" value="PVC" style="rounded=1;whiteSpace=wrap;html=1;shadow=0;strokeColor=#8C8C8C;fillColor=none;" vertex="1" parent="JzI5cQmfPr15dhNoTTF8-1">
          <mxGeometry x="292.3999999999999" y="678" width="34.58" height="20" as="geometry" />
        </mxCell>
        <mxCell id="jJ7y8H1RoMSDKaFRN04o-31" value="PAB" style="rounded=1;whiteSpace=wrap;html=1;shadow=0;strokeColor=#8C8C8C;fillColor=none;" vertex="1" parent="JzI5cQmfPr15dhNoTTF8-1">
          <mxGeometry x="338.8499999999999" y="678" width="34.58" height="20" as="geometry" />
        </mxCell>
        <mxCell id="jJ7y8H1RoMSDKaFRN04o-32" value="APB" style="rounded=1;whiteSpace=wrap;html=1;shadow=0;strokeColor=#8C8C8C;fillColor=none;" vertex="1" parent="JzI5cQmfPr15dhNoTTF8-1">
          <mxGeometry x="383.6499999999999" y="678" width="34.58" height="20" as="geometry" />
        </mxCell>
        <mxCell id="jJ7y8H1RoMSDKaFRN04o-33" value="VEB" style="rounded=1;whiteSpace=wrap;html=1;shadow=0;strokeColor=#8C8C8C;fillColor=none;" vertex="1" parent="JzI5cQmfPr15dhNoTTF8-1">
          <mxGeometry x="431.2799999999999" y="678" width="34.58" height="20" as="geometry" />
        </mxCell>
        <mxCell id="jJ7y8H1RoMSDKaFRN04o-34" value="VFW" style="rounded=1;whiteSpace=wrap;html=1;shadow=0;strokeColor=#8C8C8C;fillColor=none;" vertex="1" parent="JzI5cQmfPr15dhNoTTF8-1">
          <mxGeometry x="478.6499999999999" y="678" width="34.58" height="20" as="geometry" />
        </mxCell>
        <mxCell id="jJ7y8H1RoMSDKaFRN04o-35" value="&lt;b&gt;预处理&lt;/b&gt;" style="text;html=1;strokeColor=none;fillColor=none;align=center;verticalAlign=middle;whiteSpace=wrap;rounded=0;shadow=0;glass=0;dashed=1;sketch=0;fontSize=9;" vertex="1" parent="JzI5cQmfPr15dhNoTTF8-1">
          <mxGeometry x="213.4" y="295" width="79" height="20" as="geometry" />
        </mxCell>
      </root>
    </mxGraphModel>
  </diagram>
</mxfile>
